{"glyphs":{"0":{"ha":996,"x_min":33,"x_max":997,"o":"m 435 -14 q 211 33 303 -12 q 76 160 119 79 q 47 342 33 240 q 63 433 53 379 q 86 542 74 488 q 110 636 99 597 q 199 816 139 738 q 356 940 258 894 q 592 986 453 986 q 811 940 718 986 q 951 816 904 894 q 982 636 997 738 q 965 542 976 597 q 942 433 954 488 q 919 342 931 379 q 833 160 890 240 q 678 33 775 79 q 435 -14 582 -12 m 465 258 q 528 284 506 258 q 560 349 550 310 q 582 439 571 389 q 603 540 593 489 q 619 628 614 590 q 615 690 625 664 q 563 718 604 717 q 500 690 521 717 q 469 628 479 664 q 448 540 460 590 q 426 439 436 489 q 410 349 417 389 q 415 284 404 310 q 465 258 426 258 z "},"1":{"ha":769,"x_min":61,"x_max":807,"o":"m 296 0 q 272 11 281 0 q 265 38 263 22 l 382 579 l 211 467 q 182 460 196 457 q 161 478 168 464 l 65 649 q 67 678 61 663 q 89 703 74 694 l 479 963 q 494 970 488 968 q 511 972 501 972 l 774 972 q 798 961 789 972 q 804 935 807 950 l 613 38 q 597 11 610 22 q 568 0 583 0 l 296 0 z "},"2":{"ha":978,"x_min":-14,"x_max":1001,"o":"m 18 0 q -6 11 3 0 q -11 38 -14 22 l 19 182 q 31 215 22 190 q 71 257 40 239 l 88 268 q 369 446 256 374 q 543 570 482 518 q 613 663 604 622 q 613 700 617 682 q 574 718 610 718 q 528 705 546 718 q 499 675 510 692 q 482 647 489 658 q 455 622 471 628 q 419 615 439 615 l 158 615 q 139 624 146 615 q 135 646 132 633 q 199 788 153 725 q 311 897 244 851 q 460 967 378 943 q 631 992 542 992 q 842 955 757 992 q 965 849 928 918 q 979 681 1001 779 q 913 539 964 604 q 781 415 861 474 q 597 293 700 356 l 586 286 l 879 286 q 903 275 894 286 q 908 249 911 264 l 864 38 q 847 11 861 22 q 818 0 833 0 l 18 0 z "},"3":{"ha":985,"x_min":15,"x_max":1011,"o":"m 413 -14 q 208 15 288 -14 q 85 90 128 44 q 29 184 43 135 q 22 275 15 233 q 36 297 25 288 q 60 306 47 306 l 339 306 q 366 299 358 306 q 382 283 374 293 q 397 269 388 276 q 424 259 407 263 q 471 256 442 256 q 546 277 519 256 q 579 329 572 299 q 566 376 586 361 q 500 390 546 390 l 326 390 q 302 401 311 390 q 297 428 293 413 l 321 540 q 337 576 325 561 q 360 596 349 590 l 576 701 l 211 701 q 187 713 196 701 q 181 739 178 724 l 222 935 q 239 961 225 950 q 268 972 253 972 l 979 972 q 1003 961 994 972 q 1008 935 1011 950 l 971 758 q 955 724 967 739 q 932 703 943 710 l 746 594 l 746 590 q 860 540 811 574 q 932 449 910 507 q 935 304 954 392 q 840 137 914 208 q 655 26 765 65 q 413 -14 544 -14 z "},"4":{"ha":1047,"x_min":-12,"x_max":1011,"o":"m 468 0 q 444 11 453 0 q 438 38 435 22 l 463 156 l 19 156 q -4 167 4 156 q -10 193 -12 178 l 32 392 q 44 419 36 410 q 57 435 51 429 l 560 949 q 615 972 583 972 l 932 972 q 956 961 947 972 q 963 935 965 950 l 856 438 l 976 438 q 1003 426 994 438 q 1008 400 1011 415 l 964 193 q 947 167 961 178 q 918 156 933 156 l 796 156 l 771 38 q 755 11 768 22 q 726 0 742 0 l 468 0 m 383 422 l 529 422 l 572 622 l 383 422 z "},"5":{"ha":958,"x_min":-12,"x_max":961,"o":"m 410 -17 q 173 26 269 -17 q 32 140 76 69 q 3 294 -12 211 q 16 316 6 307 q 39 325 26 325 l 319 325 q 352 317 342 325 q 365 303 363 308 q 383 276 375 288 q 405 260 392 265 q 440 254 418 254 q 484 264 463 254 q 522 293 506 274 q 544 340 539 313 q 535 399 551 372 q 478 425 518 425 q 441 420 456 425 q 416 408 426 415 q 397 397 406 401 q 381 392 389 392 l 104 392 q 83 403 89 392 q 82 429 78 415 l 243 925 q 269 960 251 949 q 307 972 288 972 l 928 972 q 952 961 943 972 q 958 935 961 950 l 917 739 q 899 713 913 724 q 871 701 886 701 l 465 701 l 433 603 q 519 640 478 629 q 629 650 561 650 q 749 624 693 650 q 843 551 804 597 q 898 444 882 506 q 899 314 914 383 q 823 147 879 222 q 665 28 767 72 q 410 -17 564 -17 z "},"6":{"ha":961,"x_min":10,"x_max":956,"o":"m 415 -14 q 190 28 285 -14 q 53 151 96 71 q 33 346 10 232 q 68 436 43 390 q 124 524 93 482 q 185 598 156 565 q 232 649 214 631 l 522 944 q 544 962 529 951 q 582 972 560 972 l 861 972 q 881 963 874 972 q 885 942 888 954 q 881 931 883 936 q 876 924 879 926 l 651 692 q 657 692 654 692 q 661 692 660 692 q 766 664 711 688 q 867 599 821 640 q 934 496 913 557 q 939 353 956 435 q 842 165 917 249 q 657 34 768 82 q 415 -14 546 -14 m 469 257 q 519 267 496 257 q 560 298 543 278 q 583 347 578 318 q 581 397 590 376 q 553 427 572 417 q 507 438 535 438 q 456 427 481 438 q 415 397 432 417 q 392 347 399 376 q 394 298 386 318 q 423 267 403 278 q 469 257 443 257 z "},"7":{"ha":868,"x_min":92,"x_max":965,"o":"m 118 0 q 99 9 106 0 q 94 31 92 18 q 100 43 97 40 l 536 688 l 154 688 q 131 699 139 688 q 125 725 122 710 l 169 935 q 186 961 172 950 q 215 972 200 972 l 933 972 q 958 961 950 972 q 963 935 965 950 l 924 751 q 909 711 918 728 q 890 681 900 694 l 450 32 q 428 13 444 25 q 386 0 413 0 l 118 0 z "},"8":{"ha":986,"x_min":11,"x_max":971,"o":"m 429 -14 q 185 35 281 -14 q 51 158 90 83 q 28 311 11 232 q 90 433 43 381 q 192 514 136 485 q 148 597 163 547 q 146 703 133 646 q 213 841 161 776 q 356 946 264 906 q 586 986 449 986 q 810 942 724 986 q 934 828 897 897 q 954 685 971 758 q 915 587 943 628 q 836 514 886 546 q 906 416 886 475 q 911 288 926 357 q 840 140 894 210 q 685 28 785 71 q 429 -14 585 -14 m 451 219 q 503 229 479 219 q 544 258 528 239 q 567 301 561 276 q 551 362 574 340 q 486 383 528 383 q 434 374 458 383 q 394 346 410 364 q 372 301 378 328 q 387 241 364 263 q 451 219 410 219 m 533 601 q 583 612 561 601 q 619 639 606 622 q 638 676 633 656 q 625 730 644 708 q 564 751 606 751 q 515 742 536 751 q 479 715 493 732 q 461 676 465 697 q 474 624 456 646 q 533 601 492 601 z "},"9":{"ha":949,"x_min":76,"x_max":1004,"o":"m 151 0 q 132 9 139 0 q 128 31 125 18 q 132 42 129 38 q 138 49 135 46 l 371 292 q 360 293 364 292 q 256 321 310 299 q 160 383 203 343 q 97 483 117 422 q 94 624 76 543 q 151 760 110 694 q 259 876 193 825 q 413 956 325 926 q 610 986 501 986 q 797 961 718 986 q 923 890 875 936 q 988 779 971 843 q 988 638 1004 715 q 933 509 974 569 q 838 392 892 449 q 726 272 783 335 l 490 28 q 469 10 485 21 q 431 0 454 0 l 151 0 m 518 535 q 568 545 546 535 q 606 576 590 556 q 626 625 621 596 q 626 674 633 654 q 601 705 619 694 q 557 715 583 715 q 508 705 531 715 q 471 674 486 694 q 449 625 456 654 q 449 576 443 596 q 474 545 456 556 q 518 535 492 535 z "},"A":{"ha":1057,"x_min":-85,"x_max":979,"o":"m -56 0 q -78 13 -71 0 q -76 40 -85 26 l 421 926 q 447 957 429 942 q 493 972 465 972 l 801 972 q 841 957 829 972 q 854 926 853 942 l 976 40 q 967 11 979 22 q 939 0 954 0 l 689 0 q 653 12 663 0 q 642 35 644 24 l 628 126 l 329 126 l 276 35 q 256 12 269 24 q 215 0 243 0 l -56 0 m 457 397 l 614 397 l 590 656 l 457 397 z "},"Á":{"ha":1057,"x_min":-85,"x_max":1049,"o":"m -56 0 q -78 13 -71 0 q -76 40 -85 26 l 421 926 q 447 957 429 942 q 493 972 465 972 l 801 972 q 841 957 829 972 q 854 926 853 942 l 976 40 q 967 11 979 22 q 939 0 954 0 l 689 0 q 653 12 663 0 q 642 35 644 24 l 628 126 l 329 126 l 276 35 q 256 12 269 24 q 215 0 243 0 l -56 0 m 457 397 l 614 397 l 590 656 l 457 397 m 528 1042 q 510 1064 506 1042 q 521 1082 513 1075 l 696 1251 q 726 1274 715 1269 q 753 1278 738 1278 l 1025 1278 q 1043 1270 1038 1278 q 1046 1250 1049 1263 q 1035 1233 1044 1240 l 796 1065 q 768 1049 782 1056 q 732 1042 754 1042 l 528 1042 z "},"Ă":{"ha":1057,"x_min":-85,"x_max":979,"o":"m -56 0 q -78 13 -71 0 q -76 40 -85 26 l 421 926 q 447 957 429 942 q 493 972 465 972 l 801 972 q 841 957 829 972 q 854 926 853 942 l 976 40 q 967 11 979 22 q 939 0 954 0 l 689 0 q 653 12 663 0 q 642 35 644 24 l 628 126 l 329 126 l 276 35 q 256 12 269 24 q 215 0 243 0 l -56 0 m 457 397 l 614 397 l 590 656 l 457 397 m 664 1035 q 535 1063 588 1035 q 460 1140 482 1092 q 450 1251 438 1189 q 461 1270 453 1263 q 482 1278 469 1278 l 619 1278 q 638 1270 632 1278 q 640 1251 643 1263 q 640 1198 635 1221 q 679 1175 646 1175 q 729 1198 713 1175 q 751 1251 746 1221 q 763 1270 754 1263 q 783 1278 771 1278 l 921 1278 q 939 1270 933 1278 q 942 1251 944 1263 q 898 1140 929 1189 q 810 1063 867 1092 q 664 1035 754 1035 z "},"Â":{"ha":1057,"x_min":-85,"x_max":979,"o":"m -56 0 q -78 13 -71 0 q -76 40 -85 26 l 421 926 q 447 957 429 942 q 493 972 465 972 l 801 972 q 841 957 829 972 q 854 926 853 942 l 976 40 q 967 11 979 22 q 939 0 954 0 l 689 0 q 653 12 663 0 q 642 35 644 24 l 628 126 l 329 126 l 276 35 q 256 12 269 24 q 215 0 243 0 l -56 0 m 457 397 l 614 397 l 590 656 l 457 397 m 361 1042 q 343 1064 339 1042 q 354 1082 346 1075 l 546 1251 q 575 1272 563 1267 q 603 1278 588 1278 l 783 1278 q 809 1272 799 1278 q 829 1251 819 1267 l 949 1082 q 951 1064 954 1075 q 925 1042 947 1042 l 838 1042 q 810 1043 824 1042 q 783 1051 797 1044 l 668 1110 l 528 1051 q 499 1044 513 1046 q 471 1042 485 1042 l 361 1042 z "},"Ä":{"ha":1057,"x_min":-85,"x_max":1006,"o":"m -56 0 q -78 13 -71 0 q -76 40 -85 26 l 421 926 q 447 957 429 942 q 493 972 465 972 l 801 972 q 841 957 829 972 q 854 926 853 942 l 976 40 q 967 11 979 22 q 939 0 954 0 l 689 0 q 653 12 663 0 q 642 35 644 24 l 628 126 l 329 126 l 276 35 q 256 12 269 24 q 215 0 243 0 l -56 0 m 457 397 l 614 397 l 590 656 l 457 397 m 756 1042 q 735 1051 742 1042 q 731 1074 728 1060 l 767 1246 q 781 1269 769 1260 q 806 1278 792 1278 l 978 1278 q 999 1269 992 1278 q 1003 1246 1006 1260 l 967 1074 q 953 1051 964 1060 q 928 1042 942 1042 l 756 1042 m 382 1042 q 361 1051 368 1042 q 357 1074 354 1060 l 393 1246 q 407 1269 396 1260 q 432 1278 418 1278 l 604 1278 q 625 1269 618 1278 q 629 1246 632 1260 l 593 1074 q 579 1051 590 1060 q 554 1042 568 1042 l 382 1042 z "},"À":{"ha":1057,"x_min":-85,"x_max":979,"o":"m -56 0 q -78 13 -71 0 q -76 40 -85 26 l 421 926 q 447 957 429 942 q 493 972 465 972 l 801 972 q 841 957 829 972 q 854 926 853 942 l 976 40 q 967 11 979 22 q 939 0 954 0 l 689 0 q 653 12 663 0 q 642 35 644 24 l 628 126 l 329 126 l 276 35 q 256 12 269 24 q 215 0 243 0 l -56 0 m 457 397 l 614 397 l 590 656 l 457 397 m 569 1042 q 537 1049 547 1042 q 517 1065 526 1056 l 347 1233 q 344 1250 342 1239 q 376 1278 349 1278 l 635 1278 q 660 1274 650 1278 q 681 1251 669 1269 l 783 1082 q 786 1064 789 1075 q 760 1042 782 1042 l 569 1042 z "},"Ā":{"ha":1057,"x_min":-85,"x_max":988,"o":"m -56 0 q -78 13 -71 0 q -76 40 -85 26 l 421 926 q 447 957 429 942 q 493 972 465 972 l 801 972 q 841 957 829 972 q 854 926 853 942 l 976 40 q 967 11 979 22 q 939 0 954 0 l 689 0 q 653 12 663 0 q 642 35 644 24 l 628 126 l 329 126 l 276 35 q 256 12 269 24 q 215 0 243 0 l -56 0 m 457 397 l 614 397 l 590 656 l 457 397 m 392 1042 q 371 1051 378 1042 q 367 1074 364 1060 l 397 1218 q 411 1241 400 1232 q 436 1250 422 1250 l 960 1250 q 981 1241 974 1250 q 985 1218 988 1232 l 954 1074 q 940 1051 951 1060 q 915 1042 929 1042 l 392 1042 z "},"Ą":{"ha":1050,"x_min":-82,"x_max":971,"o":"m 826 -306 q 697 -274 743 -306 q 638 -187 651 -242 q 639 -68 625 -133 q 649 -32 643 -49 q 660 0 654 -15 q 635 14 642 3 q 629 35 629 25 l 615 126 l 317 126 l 264 35 q 243 12 257 24 q 201 0 229 0 l -56 0 q -75 9 -68 0 q -79 31 -82 18 q -78 35 -79 33 q -76 40 -78 38 l 422 926 q 448 957 429 942 q 494 972 467 972 l 796 972 q 835 957 824 972 q 849 926 847 942 l 969 40 q 970 35 971 38 q 969 31 969 33 q 956 9 967 18 q 932 0 944 0 l 889 0 q 836 -24 854 -1 q 814 -68 818 -47 q 818 -113 808 -90 q 868 -136 828 -136 l 882 -136 q 906 -147 897 -136 q 913 -174 915 -158 l 892 -268 q 875 -294 889 -283 q 846 -306 861 -306 l 826 -306 m 444 397 l 601 397 l 578 656 l 444 397 z "},"Å":{"ha":1057,"x_min":-85,"x_max":979,"o":"m -56 0 q -78 13 -71 0 q -76 40 -85 26 l 421 926 q 447 957 429 942 q 493 972 465 972 l 801 972 q 841 957 829 972 q 854 926 853 942 l 976 40 q 967 11 979 22 q 939 0 954 0 l 689 0 q 653 12 663 0 q 642 35 644 24 l 628 126 l 329 126 l 276 35 q 256 12 269 24 q 215 0 243 0 l -56 0 m 457 397 l 614 397 l 590 656 l 457 397 m 649 1028 q 558 1065 592 1028 q 538 1160 525 1103 q 599 1254 550 1217 q 704 1292 647 1292 q 794 1254 761 1292 q 815 1160 828 1217 q 754 1065 803 1103 q 649 1028 706 1028 m 668 1118 q 700 1130 686 1118 q 718 1160 714 1142 q 713 1190 722 1178 q 685 1201 703 1201 q 653 1190 667 1201 q 635 1160 639 1178 q 640 1130 631 1142 q 668 1118 650 1118 z "},"Ã":{"ha":1057,"x_min":-85,"x_max":994,"o":"m -56 0 q -78 13 -71 0 q -76 40 -85 26 l 421 926 q 447 957 429 942 q 493 972 465 972 l 801 972 q 841 957 829 972 q 854 926 853 942 l 976 40 q 967 11 979 22 q 939 0 954 0 l 689 0 q 653 12 663 0 q 642 35 644 24 l 628 126 l 329 126 l 276 35 q 256 12 269 24 q 215 0 243 0 l -56 0 m 457 397 l 614 397 l 590 656 l 457 397 m 771 1035 q 702 1047 729 1035 q 653 1072 675 1060 q 604 1085 632 1085 q 572 1074 583 1085 q 550 1053 560 1064 q 525 1042 540 1042 l 408 1042 q 392 1049 399 1042 q 388 1067 386 1057 q 407 1127 393 1090 q 446 1200 421 1164 q 511 1260 471 1236 q 608 1285 551 1285 q 677 1272 650 1285 q 726 1247 704 1260 q 775 1235 749 1235 q 808 1246 796 1235 q 829 1267 819 1257 q 854 1278 839 1278 l 971 1278 q 989 1270 983 1278 q 992 1251 994 1263 q 972 1192 986 1228 q 933 1119 958 1156 q 867 1059 907 1083 q 771 1035 828 1035 z "},"Æ":{"ha":1411,"x_min":-78,"x_max":1464,"o":"m -49 0 q -71 13 -64 0 q -69 40 -78 26 l 428 926 q 453 957 435 942 q 500 972 472 972 l 1431 972 q 1455 961 1446 972 q 1461 935 1464 950 l 1419 739 q 1402 713 1415 724 q 1374 701 1389 701 l 999 701 l 979 614 l 1324 614 q 1348 603 1339 614 q 1354 576 1357 592 l 1315 396 q 1299 369 1313 381 q 1269 358 1285 358 l 925 358 l 907 271 l 1293 271 q 1317 260 1308 271 q 1322 233 1325 249 l 1281 38 q 1265 11 1278 22 q 1236 0 1251 0 l 554 0 q 530 11 539 0 q 524 38 521 22 l 543 126 l 336 126 l 283 35 q 263 12 276 24 q 222 0 250 0 l -49 0 m 464 397 l 600 397 l 665 701 l 621 701 l 464 397 z "},"Ǽ":{"ha":1411,"x_min":-78,"x_max":1464,"o":"m -49 0 q -71 13 -64 0 q -69 40 -78 26 l 428 926 q 453 957 435 942 q 500 972 472 972 l 1431 972 q 1455 961 1446 972 q 1461 935 1464 950 l 1419 739 q 1402 713 1415 724 q 1374 701 1389 701 l 999 701 l 979 614 l 1324 614 q 1348 603 1339 614 q 1354 576 1357 592 l 1315 396 q 1299 369 1313 381 q 1269 358 1285 358 l 925 358 l 907 271 l 1293 271 q 1317 260 1308 271 q 1322 233 1325 249 l 1281 38 q 1265 11 1278 22 q 1236 0 1251 0 l 554 0 q 530 11 539 0 q 524 38 521 22 l 543 126 l 336 126 l 283 35 q 263 12 276 24 q 222 0 250 0 l -49 0 m 464 397 l 600 397 l 665 701 l 621 701 l 464 397 m 735 1042 q 717 1064 713 1042 q 728 1082 719 1075 l 903 1251 q 933 1274 922 1269 q 960 1278 944 1278 l 1232 1278 q 1250 1270 1244 1278 q 1253 1250 1256 1263 q 1242 1233 1251 1240 l 1003 1065 q 975 1049 989 1056 q 939 1042 961 1042 l 735 1042 z "},"B":{"ha":1018,"x_min":-7,"x_max":1038,"o":"m 26 0 q 2 11 11 0 q -4 38 -7 22 l 188 935 q 203 961 190 950 q 232 972 217 972 l 665 972 q 877 940 792 972 q 1000 842 963 907 q 1017 681 1038 778 q 981 601 1007 636 q 924 542 954 565 q 868 507 893 518 q 944 430 917 485 q 957 306 972 375 q 882 134 935 201 q 742 33 829 67 q 529 0 654 0 l 26 0 m 386 239 l 515 239 q 569 262 550 239 q 593 307 589 285 q 588 353 600 332 q 544 375 576 375 l 415 375 l 386 239 m 464 607 l 581 607 q 628 627 611 607 q 651 669 646 647 q 647 713 656 692 q 608 733 639 733 l 492 733 l 464 607 z "},"C":{"ha":1015,"x_min":25,"x_max":1051,"o":"m 454 -14 q 277 8 360 -14 q 135 75 194 29 q 51 192 76 121 q 42 363 25 263 q 66 485 51 419 q 94 610 81 550 q 197 822 128 739 q 371 946 267 906 q 611 986 475 986 q 777 966 694 986 q 924 903 860 946 q 1019 792 988 860 q 1032 631 1051 725 q 1018 609 1029 618 q 994 600 1007 600 l 711 600 q 681 609 689 600 q 668 640 672 618 q 640 700 663 685 q 581 715 617 715 q 502 691 535 715 q 454 603 469 667 q 404 369 425 489 q 415 281 393 306 q 483 257 438 257 q 550 274 519 257 q 603 332 581 290 q 628 364 615 356 q 663 372 640 372 l 946 372 q 966 363 958 372 q 971 342 974 354 q 901 180 949 247 q 784 69 853 113 q 632 6 715 26 q 454 -14 549 -14 z "},"Ć":{"ha":1015,"x_min":25,"x_max":1051,"o":"m 454 -14 q 277 8 360 -14 q 135 75 194 29 q 51 192 76 121 q 42 363 25 263 q 66 485 51 419 q 94 610 81 550 q 197 822 128 739 q 371 946 267 906 q 611 986 475 986 q 777 966 694 986 q 924 903 860 946 q 1019 792 988 860 q 1032 631 1051 725 q 1018 609 1029 618 q 994 600 1007 600 l 711 600 q 681 609 689 600 q 668 640 672 618 q 640 700 663 685 q 581 715 617 715 q 502 691 535 715 q 454 603 469 667 q 404 369 425 489 q 415 281 393 306 q 483 257 438 257 q 550 274 519 257 q 603 332 581 290 q 628 364 615 356 q 663 372 640 372 l 946 372 q 966 363 958 372 q 971 342 974 354 q 901 180 949 247 q 784 69 853 113 q 632 6 715 26 q 454 -14 549 -14 m 521 1042 q 503 1064 499 1042 q 514 1082 506 1075 l 689 1251 q 719 1274 708 1269 q 746 1278 731 1278 l 1018 1278 q 1036 1270 1031 1278 q 1039 1250 1042 1263 q 1028 1233 1038 1240 l 789 1065 q 761 1049 775 1056 q 725 1042 747 1042 l 521 1042 z "},"Č":{"ha":1015,"x_min":25,"x_max":1051,"o":"m 454 -14 q 277 8 360 -14 q 135 75 194 29 q 51 192 76 121 q 42 363 25 263 q 66 485 51 419 q 94 610 81 550 q 197 822 128 739 q 371 946 267 906 q 611 986 475 986 q 777 966 694 986 q 924 903 860 946 q 1019 792 988 860 q 1032 631 1051 725 q 1018 609 1029 618 q 994 600 1007 600 l 711 600 q 681 609 689 600 q 668 640 672 618 q 640 700 663 685 q 581 715 617 715 q 502 691 535 715 q 454 603 469 667 q 404 369 425 489 q 415 281 393 306 q 483 257 438 257 q 550 274 519 257 q 603 332 581 290 q 628 364 615 356 q 663 372 640 372 l 946 372 q 966 363 958 372 q 971 342 974 354 q 901 180 949 247 q 784 69 853 113 q 632 6 715 26 q 454 -14 549 -14 m 556 1042 q 531 1048 540 1042 q 510 1068 521 1054 l 390 1238 q 388 1256 385 1244 q 414 1278 392 1278 l 501 1278 q 528 1276 515 1278 q 556 1268 542 1275 l 671 1210 l 811 1268 q 840 1276 826 1275 q 868 1278 854 1278 l 978 1278 q 996 1256 1000 1278 q 985 1238 993 1244 l 793 1068 q 764 1048 776 1054 q 736 1042 751 1042 l 556 1042 z "},"Ç":{"ha":1015,"x_min":21,"x_max":1050,"o":"m 356 -306 q 292 -294 319 -306 q 255 -265 264 -282 q 264 -235 246 -249 l 299 -210 q 321 -201 313 -199 q 340 -208 329 -203 q 375 -214 351 -214 q 407 -203 394 -214 q 422 -181 419 -193 q 418 -158 425 -168 q 390 -147 411 -147 q 363 -151 378 -147 q 335 -155 349 -154 q 315 -147 322 -156 l 292 -118 q 285 -100 285 -108 q 299 -72 285 -92 l 340 -8 q 159 45 233 3 q 53 166 85 88 q 42 363 21 244 q 65 485 51 419 q 94 610 79 550 q 207 822 128 739 q 398 946 286 906 q 639 986 510 986 q 806 966 728 986 q 942 903 885 946 q 1025 792 1000 860 q 1032 631 1050 725 q 1018 609 1029 618 q 994 600 1007 600 l 711 600 q 681 609 689 600 q 668 640 672 618 q 640 700 663 685 q 581 715 617 715 q 501 691 535 715 q 453 603 468 667 q 427 488 439 546 q 404 369 415 429 q 415 281 393 306 q 483 257 438 257 q 550 274 519 257 q 603 332 581 290 q 628 364 615 356 q 663 372 640 372 l 946 372 q 965 363 958 372 q 969 342 972 354 q 894 180 949 247 q 765 69 840 113 q 603 6 690 26 q 426 -14 515 -14 l 392 -62 q 415 -58 400 -60 q 435 -56 431 -56 q 510 -90 488 -56 q 521 -181 532 -125 q 463 -271 508 -236 q 356 -306 418 -306 z "},"Ĉ":{"ha":1015,"x_min":25,"x_max":1051,"o":"m 454 -14 q 277 8 360 -14 q 135 75 194 29 q 51 192 76 121 q 42 363 25 263 q 66 485 51 419 q 94 610 81 550 q 197 822 128 739 q 371 946 267 906 q 611 986 475 986 q 777 966 694 986 q 924 903 860 946 q 1019 792 988 860 q 1032 631 1051 725 q 1018 609 1029 618 q 994 600 1007 600 l 711 600 q 681 609 689 600 q 668 640 672 618 q 640 700 663 685 q 581 715 617 715 q 502 691 535 715 q 454 603 469 667 q 404 369 425 489 q 415 281 393 306 q 483 257 438 257 q 550 274 519 257 q 603 332 581 290 q 628 364 615 356 q 663 372 640 372 l 946 372 q 966 363 958 372 q 971 342 974 354 q 901 180 949 247 q 784 69 853 113 q 632 6 715 26 q 454 -14 549 -14 m 354 1042 q 336 1064 332 1042 q 347 1082 339 1075 l 539 1251 q 568 1272 556 1267 q 596 1278 581 1278 l 776 1278 q 802 1272 792 1278 q 822 1251 813 1267 l 942 1082 q 944 1064 947 1075 q 918 1042 940 1042 l 831 1042 q 803 1043 817 1042 q 776 1051 790 1044 l 661 1110 l 521 1051 q 492 1044 506 1046 q 464 1042 478 1042 l 354 1042 z "},"Ċ":{"ha":1015,"x_min":25,"x_max":1051,"o":"m 454 -14 q 277 8 360 -14 q 135 75 194 29 q 51 192 76 121 q 42 363 25 263 q 66 485 51 419 q 94 610 81 550 q 197 822 128 739 q 371 946 267 906 q 611 986 475 986 q 777 966 694 986 q 924 903 860 946 q 1019 792 988 860 q 1032 631 1051 725 q 1018 609 1029 618 q 994 600 1007 600 l 711 600 q 681 609 689 600 q 668 640 672 618 q 640 700 663 685 q 581 715 617 715 q 502 691 535 715 q 454 603 469 667 q 404 369 425 489 q 415 281 393 306 q 483 257 438 257 q 550 274 519 257 q 603 332 581 290 q 628 364 615 356 q 663 372 640 372 l 946 372 q 966 363 958 372 q 971 342 974 354 q 901 180 949 247 q 784 69 853 113 q 632 6 715 26 q 454 -14 549 -14 m 551 1042 q 531 1051 538 1042 q 526 1074 524 1060 l 567 1263 q 581 1285 569 1276 q 606 1294 592 1294 l 794 1294 q 815 1285 808 1294 q 819 1263 822 1276 l 779 1074 q 765 1051 776 1060 q 740 1042 754 1042 l 551 1042 z "},"D":{"ha":1026,"x_min":-7,"x_max":1032,"o":"m 26 0 q 2 11 11 0 q -4 38 -7 22 l 188 935 q 203 961 190 950 q 232 972 217 972 l 604 972 q 772 947 692 972 q 913 874 853 922 q 1003 755 974 826 q 1015 590 1032 683 q 996 485 1006 531 q 971 383 986 440 q 874 167 938 253 q 709 41 810 82 q 461 0 608 0 l 26 0 m 393 271 l 483 271 q 541 283 514 271 q 588 319 568 294 q 618 383 608 344 q 637 456 629 424 q 651 520 644 488 q 663 590 657 553 q 644 675 672 649 q 568 701 615 701 l 485 701 l 393 271 z "},"Ð":{"ha":1057,"x_min":15,"x_max":1063,"o":"m 57 0 q 33 11 42 0 q 26 38 24 22 l 100 382 l 47 382 q 24 393 32 382 q 18 419 15 404 l 47 560 q 64 586 50 575 q 93 597 78 597 l 146 597 l 218 935 q 234 961 221 950 q 263 972 247 972 l 635 972 q 803 947 722 972 q 944 874 883 922 q 1033 755 1004 826 q 1046 590 1063 683 q 1026 485 1036 531 q 1001 383 1017 440 q 904 167 968 253 q 740 41 840 82 q 492 0 639 0 l 57 0 m 424 271 l 514 271 q 572 283 544 271 q 619 319 599 294 q 649 383 639 344 q 667 456 660 424 q 681 520 675 488 q 693 590 688 553 q 674 675 703 649 q 599 701 646 701 l 515 701 l 493 597 l 571 597 q 594 586 586 597 q 600 560 603 575 l 571 419 q 554 393 568 404 q 525 382 540 382 l 447 382 l 424 271 z "},"Ď":{"ha":1026,"x_min":-7,"x_max":1032,"o":"m 26 0 q 2 11 11 0 q -4 38 -7 22 l 188 935 q 203 961 190 950 q 232 972 217 972 l 604 972 q 772 947 692 972 q 913 874 853 922 q 1003 755 974 826 q 1015 590 1032 683 q 996 485 1006 531 q 971 383 986 440 q 874 167 938 253 q 709 41 810 82 q 461 0 608 0 l 26 0 m 393 271 l 483 271 q 541 283 514 271 q 588 319 568 294 q 618 383 608 344 q 637 456 629 424 q 651 520 644 488 q 663 590 657 553 q 644 675 672 649 q 568 701 615 701 l 485 701 l 393 271 m 493 1042 q 468 1048 478 1042 q 447 1068 458 1054 l 328 1238 q 325 1256 322 1244 q 351 1278 329 1278 l 439 1278 q 466 1276 453 1278 q 493 1268 479 1275 l 608 1210 l 749 1268 q 778 1276 764 1275 q 806 1278 792 1278 l 915 1278 q 933 1256 938 1278 q 922 1238 931 1244 l 731 1068 q 701 1048 714 1054 q 674 1042 689 1042 l 493 1042 z "},"Đ":{"ha":1057,"x_min":15,"x_max":1063,"o":"m 57 0 q 33 11 42 0 q 26 38 24 22 l 100 382 l 47 382 q 24 393 32 382 q 18 419 15 404 l 47 560 q 64 586 50 575 q 93 597 78 597 l 146 597 l 218 935 q 234 961 221 950 q 263 972 247 972 l 635 972 q 803 947 722 972 q 944 874 883 922 q 1033 755 1004 826 q 1046 590 1063 683 q 1026 485 1036 531 q 1001 383 1017 440 q 904 167 968 253 q 740 41 840 82 q 492 0 639 0 l 57 0 m 424 271 l 514 271 q 572 283 544 271 q 619 319 599 294 q 649 383 639 344 q 667 456 660 424 q 681 520 675 488 q 693 590 688 553 q 674 675 703 649 q 599 701 646 701 l 515 701 l 493 597 l 571 597 q 594 586 586 597 q 600 560 603 575 l 571 419 q 554 393 568 404 q 525 382 540 382 l 447 382 l 424 271 z "},"E":{"ha":925,"x_min":-7,"x_max":978,"o":"m 26 0 q 2 11 11 0 q -4 38 -7 22 l 188 935 q 203 961 190 950 q 232 972 217 972 l 944 972 q 969 961 960 972 q 975 935 978 950 l 933 739 q 917 713 931 724 q 888 701 903 701 l 471 701 l 451 614 l 838 614 q 862 603 853 614 q 868 576 871 592 l 829 396 q 813 369 826 381 q 783 358 799 358 l 397 358 l 379 271 l 807 271 q 831 260 822 271 q 836 233 839 249 l 794 38 q 778 11 792 22 q 750 0 765 0 l 26 0 z "},"É":{"ha":925,"x_min":-7,"x_max":992,"o":"m 26 0 q 2 11 11 0 q -4 38 -7 22 l 188 935 q 203 961 190 950 q 232 972 217 972 l 944 972 q 969 961 960 972 q 975 935 978 950 l 933 739 q 917 713 931 724 q 888 701 903 701 l 471 701 l 451 614 l 838 614 q 862 603 853 614 q 868 576 871 592 l 829 396 q 813 369 826 381 q 783 358 799 358 l 397 358 l 379 271 l 807 271 q 831 260 822 271 q 836 233 839 249 l 794 38 q 778 11 792 22 q 750 0 765 0 l 26 0 m 471 1042 q 453 1064 449 1042 q 464 1082 456 1075 l 639 1251 q 669 1274 658 1269 q 696 1278 681 1278 l 968 1278 q 986 1270 981 1278 q 989 1250 992 1263 q 978 1233 988 1240 l 739 1065 q 711 1049 725 1056 q 675 1042 697 1042 l 471 1042 z "},"Ĕ":{"ha":925,"x_min":-7,"x_max":978,"o":"m 26 0 q 2 11 11 0 q -4 38 -7 22 l 188 935 q 203 961 190 950 q 232 972 217 972 l 944 972 q 969 961 960 972 q 975 935 978 950 l 933 739 q 917 713 931 724 q 888 701 903 701 l 471 701 l 451 614 l 838 614 q 862 603 853 614 q 868 576 871 592 l 829 396 q 813 369 826 381 q 783 358 799 358 l 397 358 l 379 271 l 807 271 q 831 260 822 271 q 836 233 839 249 l 794 38 q 778 11 792 22 q 750 0 765 0 l 26 0 m 607 1035 q 478 1063 531 1035 q 403 1140 425 1092 q 393 1251 381 1189 q 404 1270 396 1263 q 425 1278 413 1278 l 563 1278 q 581 1270 575 1278 q 583 1251 586 1263 q 583 1198 578 1221 q 622 1175 589 1175 q 672 1198 656 1175 q 694 1251 689 1221 q 706 1270 697 1263 q 726 1278 714 1278 l 864 1278 q 882 1270 876 1278 q 885 1251 888 1263 q 841 1140 872 1189 q 753 1063 810 1092 q 607 1035 697 1035 z "},"Ě":{"ha":925,"x_min":-7,"x_max":978,"o":"m 26 0 q 2 11 11 0 q -4 38 -7 22 l 188 935 q 203 961 190 950 q 232 972 217 972 l 944 972 q 969 961 960 972 q 975 935 978 950 l 933 739 q 917 713 931 724 q 888 701 903 701 l 471 701 l 451 614 l 838 614 q 862 603 853 614 q 868 576 871 592 l 829 396 q 813 369 826 381 q 783 358 799 358 l 397 358 l 379 271 l 807 271 q 831 260 822 271 q 836 233 839 249 l 794 38 q 778 11 792 22 q 750 0 765 0 l 26 0 m 506 1042 q 481 1048 490 1042 q 460 1068 471 1054 l 340 1238 q 338 1256 335 1244 q 364 1278 342 1278 l 451 1278 q 478 1276 465 1278 q 506 1268 492 1275 l 621 1210 l 761 1268 q 790 1276 776 1275 q 818 1278 804 1278 l 928 1278 q 946 1256 950 1278 q 935 1238 943 1244 l 743 1068 q 714 1048 726 1054 q 686 1042 701 1042 l 506 1042 z "},"Ê":{"ha":925,"x_min":-7,"x_max":978,"o":"m 26 0 q 2 11 11 0 q -4 38 -7 22 l 188 935 q 203 961 190 950 q 232 972 217 972 l 944 972 q 969 961 960 972 q 975 935 978 950 l 933 739 q 917 713 931 724 q 888 701 903 701 l 471 701 l 451 614 l 838 614 q 862 603 853 614 q 868 576 871 592 l 829 396 q 813 369 826 381 q 783 358 799 358 l 397 358 l 379 271 l 807 271 q 831 260 822 271 q 836 233 839 249 l 794 38 q 778 11 792 22 q 750 0 765 0 l 26 0 m 304 1042 q 286 1064 282 1042 q 297 1082 289 1075 l 489 1251 q 518 1272 506 1267 q 546 1278 531 1278 l 726 1278 q 752 1272 742 1278 q 772 1251 763 1267 l 892 1082 q 894 1064 897 1075 q 868 1042 890 1042 l 781 1042 q 753 1043 767 1042 q 726 1051 740 1044 l 611 1110 l 471 1051 q 442 1044 456 1046 q 414 1042 428 1042 l 304 1042 z "},"Ë":{"ha":925,"x_min":-7,"x_max":978,"o":"m 26 0 q 2 11 11 0 q -4 38 -7 22 l 188 935 q 203 961 190 950 q 232 972 217 972 l 944 972 q 969 961 960 972 q 975 935 978 950 l 933 739 q 917 713 931 724 q 888 701 903 701 l 471 701 l 451 614 l 838 614 q 862 603 853 614 q 868 576 871 592 l 829 396 q 813 369 826 381 q 783 358 799 358 l 397 358 l 379 271 l 807 271 q 831 260 822 271 q 836 233 839 249 l 794 38 q 778 11 792 22 q 750 0 765 0 l 26 0 m 699 1042 q 678 1051 685 1042 q 674 1074 671 1060 l 710 1246 q 724 1269 713 1260 q 749 1278 735 1278 l 921 1278 q 942 1269 935 1278 q 946 1246 949 1260 l 910 1074 q 896 1051 907 1060 q 871 1042 885 1042 l 699 1042 m 325 1042 q 304 1051 311 1042 q 300 1074 297 1060 l 336 1246 q 350 1269 339 1260 q 375 1278 361 1278 l 547 1278 q 568 1269 561 1278 q 572 1246 575 1260 l 536 1074 q 522 1051 533 1060 q 497 1042 511 1042 l 325 1042 z "},"Ė":{"ha":925,"x_min":-7,"x_max":978,"o":"m 26 0 q 2 11 11 0 q -4 38 -7 22 l 188 935 q 203 961 190 950 q 232 972 217 972 l 944 972 q 969 961 960 972 q 975 935 978 950 l 933 739 q 917 713 931 724 q 888 701 903 701 l 471 701 l 451 614 l 838 614 q 862 603 853 614 q 868 576 871 592 l 829 396 q 813 369 826 381 q 783 358 799 358 l 397 358 l 379 271 l 807 271 q 831 260 822 271 q 836 233 839 249 l 794 38 q 778 11 792 22 q 750 0 765 0 l 26 0 m 501 1042 q 481 1051 488 1042 q 476 1074 474 1060 l 517 1263 q 531 1285 519 1276 q 556 1294 542 1294 l 744 1294 q 765 1285 758 1294 q 769 1263 772 1276 l 729 1074 q 715 1051 726 1060 q 690 1042 704 1042 l 501 1042 z "},"È":{"ha":925,"x_min":-7,"x_max":978,"o":"m 26 0 q 2 11 11 0 q -4 38 -7 22 l 188 935 q 203 961 190 950 q 232 972 217 972 l 944 972 q 969 961 960 972 q 975 935 978 950 l 933 739 q 917 713 931 724 q 888 701 903 701 l 471 701 l 451 614 l 838 614 q 862 603 853 614 q 868 576 871 592 l 829 396 q 813 369 826 381 q 783 358 799 358 l 397 358 l 379 271 l 807 271 q 831 260 822 271 q 836 233 839 249 l 794 38 q 778 11 792 22 q 750 0 765 0 l 26 0 m 513 1042 q 480 1049 490 1042 q 460 1065 469 1056 l 290 1233 q 288 1250 285 1239 q 319 1278 292 1278 l 578 1278 q 603 1274 593 1278 q 624 1251 613 1269 l 726 1082 q 729 1064 732 1075 q 703 1042 725 1042 l 513 1042 z "},"Ē":{"ha":925,"x_min":-7,"x_max":978,"o":"m 26 0 q 2 11 11 0 q -4 38 -7 22 l 188 935 q 203 961 190 950 q 232 972 217 972 l 944 972 q 969 961 960 972 q 975 935 978 950 l 933 739 q 917 713 931 724 q 888 701 903 701 l 471 701 l 451 614 l 838 614 q 862 603 853 614 q 868 576 871 592 l 829 396 q 813 369 826 381 q 783 358 799 358 l 397 358 l 379 271 l 807 271 q 831 260 822 271 q 836 233 839 249 l 794 38 q 778 11 792 22 q 750 0 765 0 l 26 0 m 335 1042 q 314 1051 321 1042 q 310 1074 307 1060 l 340 1218 q 354 1241 343 1232 q 379 1250 365 1250 l 903 1250 q 924 1241 917 1250 q 928 1218 931 1232 l 897 1074 q 883 1051 894 1060 q 858 1042 872 1042 l 335 1042 z "},"Ę":{"ha":925,"x_min":-7,"x_max":978,"o":"m 679 -306 q 546 -270 596 -306 q 479 -177 496 -235 q 476 -54 463 -119 q 483 -26 479 -39 q 492 0 486 -12 l 26 0 q 2 11 11 0 q -4 38 -7 22 l 188 935 q 203 961 190 950 q 232 972 217 972 l 944 972 q 969 961 960 972 q 975 935 978 950 l 933 739 q 916 713 929 724 q 888 701 903 701 l 471 701 l 451 614 l 838 614 q 862 603 853 614 q 868 576 871 592 l 829 396 q 813 369 826 381 q 783 358 799 358 l 397 358 l 379 271 l 807 271 q 831 260 822 271 q 836 233 839 249 l 794 38 q 778 11 792 22 q 750 0 765 0 l 728 0 q 674 -24 692 -1 q 651 -68 656 -47 q 657 -113 647 -90 q 707 -136 667 -136 l 721 -136 q 744 -147 736 -136 q 750 -174 753 -158 l 729 -268 q 713 -294 726 -283 q 685 -306 700 -306 l 679 -306 z "},"F":{"ha":897,"x_min":-7,"x_max":965,"o":"m 26 0 q 2 11 11 0 q -4 38 -7 22 l 188 935 q 203 961 190 950 q 232 972 217 972 l 932 972 q 956 961 947 972 q 963 935 965 950 l 917 724 q 901 697 914 708 q 872 686 888 686 l 475 686 l 453 583 l 822 583 q 846 572 838 583 q 851 546 854 561 l 807 336 q 790 310 804 321 q 761 299 776 299 l 392 299 l 336 38 q 320 11 333 22 q 292 0 307 0 l 26 0 z "},"G":{"ha":1046,"x_min":40,"x_max":1085,"o":"m 449 -14 q 215 28 308 -14 q 81 154 121 69 q 63 368 40 239 q 87 492 72 425 q 115 618 101 558 q 223 823 146 742 q 413 945 300 904 q 661 986 525 986 q 853 962 771 986 q 989 894 936 938 q 1063 795 1042 851 q 1074 676 1085 739 q 1060 655 1071 664 q 1036 646 1049 646 l 729 646 q 706 650 714 646 q 692 661 697 654 q 681 681 689 668 q 656 705 674 694 q 604 715 639 715 q 520 690 553 715 q 475 611 488 664 q 449 494 461 554 q 425 375 436 435 q 438 285 414 313 q 513 257 461 257 q 576 267 547 257 q 624 299 604 276 q 651 356 644 321 l 651 357 l 586 357 q 563 368 571 357 q 557 394 554 379 l 589 549 q 606 575 592 564 q 635 586 619 586 l 1017 586 q 1040 575 1032 586 q 1046 549 1049 564 l 1008 368 q 903 158 983 243 q 706 30 824 74 q 449 -14 589 -14 z "},"Ğ":{"ha":1046,"x_min":40,"x_max":1085,"o":"m 449 -14 q 215 28 308 -14 q 81 154 121 69 q 63 368 40 239 q 87 492 72 425 q 115 618 101 558 q 223 823 146 742 q 413 945 300 904 q 661 986 525 986 q 853 962 771 986 q 989 894 936 938 q 1063 795 1042 851 q 1074 676 1085 739 q 1060 655 1071 664 q 1036 646 1049 646 l 729 646 q 706 650 714 646 q 692 661 697 654 q 681 681 689 668 q 656 705 674 694 q 604 715 639 715 q 520 690 553 715 q 475 611 488 664 q 449 494 461 554 q 425 375 436 435 q 438 285 414 313 q 513 257 461 257 q 576 267 547 257 q 624 299 604 276 q 651 356 644 321 l 651 357 l 586 357 q 563 368 571 357 q 557 394 554 379 l 589 549 q 606 575 592 564 q 635 586 619 586 l 1017 586 q 1040 575 1032 586 q 1046 549 1049 564 l 1008 368 q 903 158 983 243 q 706 30 824 74 q 449 -14 589 -14 m 658 1035 q 529 1063 582 1035 q 454 1140 476 1092 q 444 1251 432 1189 q 456 1270 447 1263 q 476 1278 464 1278 l 614 1278 q 632 1270 626 1278 q 635 1251 638 1263 q 635 1198 629 1221 q 674 1175 640 1175 q 724 1198 707 1175 q 746 1251 740 1221 q 757 1270 749 1263 q 778 1278 765 1278 l 915 1278 q 933 1270 928 1278 q 936 1251 939 1263 q 892 1140 924 1189 q 805 1063 861 1092 q 658 1035 749 1035 z "},"Ĝ":{"ha":1046,"x_min":40,"x_max":1085,"o":"m 449 -14 q 215 28 308 -14 q 81 154 121 69 q 63 368 40 239 q 87 492 72 425 q 115 618 101 558 q 223 823 146 742 q 413 945 300 904 q 661 986 525 986 q 853 962 771 986 q 989 894 936 938 q 1063 795 1042 851 q 1074 676 1085 739 q 1060 655 1071 664 q 1036 646 1049 646 l 729 646 q 706 650 714 646 q 692 661 697 654 q 681 681 689 668 q 656 705 674 694 q 604 715 639 715 q 520 690 553 715 q 475 611 488 664 q 449 494 461 554 q 425 375 436 435 q 438 285 414 313 q 513 257 461 257 q 576 267 547 257 q 624 299 604 276 q 651 356 644 321 l 651 357 l 586 357 q 563 368 571 357 q 557 394 554 379 l 589 549 q 606 575 592 564 q 635 586 619 586 l 1017 586 q 1040 575 1032 586 q 1046 549 1049 564 l 1008 368 q 903 158 983 243 q 706 30 824 74 q 449 -14 589 -14 m 356 1042 q 338 1064 333 1042 q 349 1082 340 1075 l 540 1251 q 569 1272 557 1267 q 597 1278 582 1278 l 778 1278 q 803 1272 793 1278 q 824 1251 814 1267 l 943 1082 q 946 1064 949 1075 q 919 1042 942 1042 l 832 1042 q 805 1043 818 1042 q 778 1051 792 1044 l 663 1110 l 522 1051 q 493 1044 507 1046 q 465 1042 479 1042 l 356 1042 z "},"Ģ":{"ha":1046,"x_min":40,"x_max":1085,"o":"m 449 -14 q 215 28 308 -14 q 81 154 121 69 q 63 368 40 239 q 87 492 72 425 q 115 618 101 558 q 223 823 146 742 q 413 945 300 904 q 661 986 525 986 q 853 962 771 986 q 989 894 936 938 q 1063 795 1042 851 q 1074 676 1085 739 q 1060 655 1071 664 q 1036 646 1049 646 l 729 646 q 706 650 714 646 q 692 661 697 654 q 681 681 689 668 q 656 705 674 694 q 604 715 639 715 q 520 690 553 715 q 475 611 488 664 q 449 494 461 554 q 425 375 436 435 q 438 285 414 313 q 513 257 461 257 q 576 267 547 257 q 624 299 604 276 q 651 356 644 321 l 651 357 l 586 357 q 563 368 571 357 q 557 394 554 379 l 589 549 q 606 575 592 564 q 635 586 619 586 l 1017 586 q 1040 575 1032 586 q 1046 549 1049 564 l 1008 368 q 903 158 983 243 q 706 30 824 74 q 449 -14 589 -14 m 206 -347 q 184 -337 192 -347 q 182 -314 176 -326 l 253 -124 q 278 -87 260 -104 q 324 -69 296 -69 l 533 -69 q 551 -77 544 -69 q 558 -94 558 -85 q 554 -110 558 -101 l 436 -303 q 411 -332 428 -317 q 367 -347 394 -347 l 206 -347 z "},"Ġ":{"ha":1046,"x_min":40,"x_max":1085,"o":"m 449 -14 q 215 28 308 -14 q 81 154 121 69 q 63 368 40 239 q 87 492 72 425 q 115 618 101 558 q 223 823 146 742 q 413 945 300 904 q 661 986 525 986 q 853 962 771 986 q 989 894 936 938 q 1063 795 1042 851 q 1074 676 1085 739 q 1060 655 1071 664 q 1036 646 1049 646 l 729 646 q 706 650 714 646 q 692 661 697 654 q 681 681 689 668 q 656 705 674 694 q 604 715 639 715 q 520 690 553 715 q 475 611 488 664 q 449 494 461 554 q 425 375 436 435 q 438 285 414 313 q 513 257 461 257 q 576 267 547 257 q 624 299 604 276 q 651 356 644 321 l 651 357 l 586 357 q 563 368 571 357 q 557 394 554 379 l 589 549 q 606 575 592 564 q 635 586 619 586 l 1017 586 q 1040 575 1032 586 q 1046 549 1049 564 l 1008 368 q 903 158 983 243 q 706 30 824 74 q 449 -14 589 -14 m 553 1042 q 532 1051 539 1042 q 528 1074 525 1060 l 568 1263 q 582 1285 571 1276 q 607 1294 593 1294 l 796 1294 q 817 1285 810 1294 q 821 1263 824 1276 l 781 1074 q 767 1051 778 1060 q 742 1042 756 1042 l 553 1042 z "},"H":{"ha":1071,"x_min":-7,"x_max":1110,"o":"m 26 0 q 2 10 11 0 q -4 38 -7 21 l 188 935 q 203 961 190 950 q 232 972 217 972 l 504 972 q 528 961 519 972 q 535 935 538 950 l 472 643 l 697 643 l 760 935 q 776 961 763 950 q 804 972 789 972 l 1076 972 q 1101 961 1092 972 q 1107 935 1110 950 l 915 38 q 899 11 913 22 q 871 0 886 0 l 599 0 q 574 11 583 0 q 568 38 565 22 l 632 338 l 407 338 l 343 38 q 327 11 340 22 q 299 0 314 0 l 26 0 z "},"Ħ":{"ha":1071,"x_min":-7,"x_max":1110,"o":"m 182 724 q 158 735 167 724 q 153 761 150 746 l 172 856 q 189 882 175 871 q 218 893 203 893 l 1043 893 q 1067 882 1058 893 q 1072 856 1075 871 l 1053 761 q 1036 735 1050 746 q 1007 724 1022 724 l 182 724 m 26 0 q 2 10 11 0 q -4 38 -7 21 l 188 935 q 203 961 190 950 q 232 972 217 972 l 504 972 q 528 961 519 972 q 535 935 538 950 l 472 643 l 697 643 l 760 935 q 776 961 763 950 q 804 972 789 972 l 1076 972 q 1101 961 1092 972 q 1107 935 1110 950 l 915 38 q 899 11 913 22 q 871 0 886 0 l 599 0 q 574 11 583 0 q 568 38 565 22 l 632 338 l 407 338 l 343 38 q 327 11 340 22 q 299 0 314 0 l 26 0 z "},"Ĥ":{"ha":1071,"x_min":-7,"x_max":1110,"o":"m 26 0 q 2 10 11 0 q -4 38 -7 21 l 188 935 q 203 961 190 950 q 232 972 217 972 l 504 972 q 528 961 519 972 q 535 935 538 950 l 472 643 l 697 643 l 760 935 q 776 961 763 950 q 804 972 789 972 l 1076 972 q 1101 961 1092 972 q 1107 935 1110 950 l 915 38 q 899 11 913 22 q 871 0 886 0 l 599 0 q 574 11 583 0 q 568 38 565 22 l 632 338 l 407 338 l 343 38 q 327 11 340 22 q 299 0 314 0 l 26 0 m 365 1042 q 347 1064 343 1042 q 358 1082 350 1075 l 550 1251 q 579 1272 567 1267 q 607 1278 592 1278 l 788 1278 q 813 1272 803 1278 q 833 1251 824 1267 l 953 1082 q 956 1064 958 1075 q 929 1042 951 1042 l 842 1042 q 815 1043 828 1042 q 788 1051 801 1044 l 672 1110 l 532 1051 q 503 1044 517 1046 q 475 1042 489 1042 l 365 1042 z "},"I":{"ha":510,"x_min":-7,"x_max":549,"o":"m 26 0 q 2 11 11 0 q -4 38 -7 22 l 188 935 q 203 961 190 950 q 232 972 217 972 l 515 972 q 540 961 531 972 q 546 935 549 950 l 354 38 q 338 11 351 22 q 310 0 325 0 l 26 0 z "},"Ĳ":{"ha":1121,"x_min":-7,"x_max":1167,"o":"m 492 -14 q 468 -3 476 -14 q 463 24 460 8 l 510 247 q 527 274 514 263 q 556 285 540 285 q 646 313 614 285 q 693 414 678 340 l 804 935 q 820 961 807 950 q 849 972 833 972 l 1133 972 q 1158 961 1149 972 q 1164 935 1167 950 l 1040 358 q 944 130 1010 211 q 767 17 878 49 q 492 -14 657 -14 m 26 0 q 2 11 11 0 q -4 38 -7 22 l 188 935 q 203 961 190 950 q 232 972 217 972 l 515 972 q 540 961 531 972 q 546 935 549 950 l 354 38 q 338 11 351 22 q 310 0 325 0 l 26 0 z "},"Í":{"ha":510,"x_min":-7,"x_max":786,"o":"m 26 0 q 2 11 11 0 q -4 38 -7 22 l 188 935 q 203 961 190 950 q 232 972 217 972 l 515 972 q 540 961 531 972 q 546 935 549 950 l 354 38 q 338 11 351 22 q 310 0 325 0 l 26 0 m 265 1042 q 247 1064 243 1042 q 258 1082 250 1075 l 433 1251 q 464 1274 453 1269 q 490 1278 475 1278 l 763 1278 q 781 1270 775 1278 q 783 1250 786 1263 q 772 1233 782 1240 l 533 1065 q 506 1049 519 1056 q 469 1042 492 1042 l 265 1042 z "},"Ĭ":{"ha":510,"x_min":-7,"x_max":682,"o":"m 26 0 q 2 11 11 0 q -4 38 -7 22 l 188 935 q 203 961 190 950 q 232 972 217 972 l 515 972 q 540 961 531 972 q 546 935 549 950 l 354 38 q 338 11 351 22 q 310 0 325 0 l 26 0 m 401 1035 q 272 1063 325 1035 q 197 1140 219 1092 q 188 1251 175 1189 q 199 1270 190 1263 q 219 1278 207 1278 l 357 1278 q 375 1270 369 1278 q 378 1251 381 1263 q 378 1198 372 1221 q 417 1175 383 1175 q 467 1198 450 1175 q 489 1251 483 1221 q 500 1270 492 1263 q 521 1278 508 1278 l 658 1278 q 676 1270 671 1278 q 679 1251 682 1263 q 635 1140 667 1189 q 548 1063 604 1092 q 401 1035 492 1035 z "},"Î":{"ha":510,"x_min":-7,"x_max":692,"o":"m 26 0 q 2 11 11 0 q -4 38 -7 22 l 188 935 q 203 961 190 950 q 232 972 217 972 l 515 972 q 540 961 531 972 q 546 935 549 950 l 354 38 q 338 11 351 22 q 310 0 325 0 l 26 0 m 99 1042 q 81 1064 76 1042 q 92 1082 83 1075 l 283 1251 q 313 1272 300 1267 q 340 1278 325 1278 l 521 1278 q 547 1272 536 1278 q 567 1251 557 1267 l 686 1082 q 689 1064 692 1075 q 663 1042 685 1042 l 575 1042 q 548 1043 561 1042 q 521 1051 535 1044 l 406 1110 l 265 1051 q 236 1044 250 1046 q 208 1042 222 1042 l 99 1042 z "},"Ï":{"ha":510,"x_min":-7,"x_max":743,"o":"m 26 0 q 2 11 11 0 q -4 38 -7 22 l 188 935 q 203 961 190 950 q 232 972 217 972 l 515 972 q 540 961 531 972 q 546 935 549 950 l 354 38 q 338 11 351 22 q 310 0 325 0 l 26 0 m 493 1042 q 472 1051 479 1042 q 468 1074 465 1060 l 504 1246 q 518 1269 507 1260 q 543 1278 529 1278 l 715 1278 q 736 1269 729 1278 q 740 1246 743 1260 l 704 1074 q 690 1051 701 1060 q 665 1042 679 1042 l 493 1042 m 119 1042 q 99 1051 106 1042 q 94 1074 92 1060 l 131 1246 q 144 1269 133 1260 q 169 1278 156 1278 l 342 1278 q 363 1269 356 1278 q 367 1246 369 1260 l 331 1074 q 317 1051 328 1060 q 292 1042 306 1042 l 119 1042 z "},"İ":{"ha":510,"x_min":-7,"x_max":567,"o":"m 26 0 q 2 11 11 0 q -4 38 -7 22 l 188 935 q 203 961 190 950 q 232 972 217 972 l 515 972 q 540 961 531 972 q 546 935 549 950 l 354 38 q 338 11 351 22 q 310 0 325 0 l 26 0 m 296 1042 q 275 1051 282 1042 q 271 1074 268 1060 l 311 1263 q 325 1285 314 1276 q 350 1294 336 1294 l 539 1294 q 560 1285 553 1294 q 564 1263 567 1276 l 524 1074 q 510 1051 521 1060 q 485 1042 499 1042 l 296 1042 z "},"Ì":{"ha":510,"x_min":-7,"x_max":549,"o":"m 26 0 q 2 11 11 0 q -4 38 -7 22 l 188 935 q 203 961 190 950 q 232 972 217 972 l 515 972 q 540 961 531 972 q 546 935 549 950 l 354 38 q 338 11 351 22 q 310 0 325 0 l 26 0 m 307 1042 q 274 1049 285 1042 q 254 1065 264 1056 l 85 1233 q 82 1250 79 1239 q 114 1278 86 1278 l 372 1278 q 397 1274 388 1278 q 418 1251 407 1269 l 521 1082 q 524 1064 526 1075 q 497 1042 519 1042 l 307 1042 z "},"Ī":{"ha":510,"x_min":-7,"x_max":725,"o":"m 26 0 q 2 11 11 0 q -4 38 -7 22 l 188 935 q 203 961 190 950 q 232 972 217 972 l 515 972 q 540 961 531 972 q 546 935 549 950 l 354 38 q 338 11 351 22 q 310 0 325 0 l 26 0 m 129 1042 q 108 1051 115 1042 q 104 1074 101 1060 l 135 1218 q 149 1241 138 1232 q 174 1250 160 1250 l 697 1250 q 718 1241 711 1250 q 722 1218 725 1232 l 692 1074 q 678 1051 689 1060 q 653 1042 667 1042 l 129 1042 z "},"Į":{"ha":511,"x_min":14,"x_max":568,"o":"m 244 -308 q 114 -276 160 -308 q 56 -190 68 -244 q 57 -69 43 -135 q 66 -33 60 -50 q 78 0 72 -17 l 46 0 q 22 11 31 0 q 17 38 14 22 l 207 935 q 224 961 210 950 q 253 972 238 972 l 536 972 q 560 961 551 972 q 565 935 568 950 l 375 38 q 358 11 372 22 q 329 0 344 0 l 315 0 q 256 -24 275 0 q 232 -69 236 -47 q 236 -115 226 -92 q 286 -139 246 -139 l 300 -139 q 324 -150 315 -139 q 329 -176 332 -161 l 310 -271 q 293 -297 307 -286 q 264 -308 279 -308 l 244 -308 z "},"Ĩ":{"ha":510,"x_min":-7,"x_max":732,"o":"m 26 0 q 2 11 11 0 q -4 38 -7 22 l 188 935 q 203 961 190 950 q 232 972 217 972 l 515 972 q 540 961 531 972 q 546 935 549 950 l 354 38 q 338 11 351 22 q 310 0 325 0 l 26 0 m 508 1035 q 440 1047 467 1035 q 391 1072 413 1060 q 342 1085 369 1085 q 309 1074 321 1085 q 288 1053 297 1064 q 263 1042 278 1042 l 146 1042 q 130 1049 136 1042 q 125 1067 124 1057 q 144 1127 131 1090 q 183 1200 158 1164 q 249 1260 208 1236 q 346 1285 289 1285 q 415 1272 388 1285 q 464 1247 442 1260 q 513 1235 486 1235 q 545 1246 533 1235 q 567 1267 557 1257 q 592 1278 576 1278 l 708 1278 q 726 1270 721 1278 q 729 1251 732 1263 q 710 1192 724 1228 q 670 1119 696 1156 q 605 1059 644 1083 q 508 1035 565 1035 z "},"J":{"ha":969,"x_min":-25,"x_max":1017,"o":"m 400 -14 q 247 8 325 -14 q 104 74 168 31 q 8 181 40 118 q -10 326 -25 244 q 4 348 -7 339 q 28 357 15 357 l 311 357 q 344 347 335 357 q 358 313 353 336 q 380 271 367 285 q 428 257 393 257 q 492 281 465 257 q 533 369 519 306 l 601 690 l 189 690 q 165 701 174 690 q 160 728 157 713 l 204 935 q 220 961 207 950 q 249 972 233 972 l 983 972 q 1008 961 999 972 q 1014 935 1017 950 l 890 358 q 801 148 864 231 q 640 26 739 65 q 400 -14 540 -14 z "},"Ĵ":{"ha":969,"x_min":-25,"x_max":1017,"o":"m 400 -14 q 247 8 325 -14 q 104 74 168 31 q 8 181 40 118 q -10 326 -25 244 q 4 348 -7 339 q 28 357 15 357 l 311 357 q 344 347 335 357 q 358 313 353 336 q 380 271 367 285 q 428 257 393 257 q 492 281 465 257 q 533 369 519 306 l 601 690 l 189 690 q 165 701 174 690 q 160 728 157 713 l 204 935 q 220 961 207 950 q 249 972 233 972 l 983 972 q 1008 961 999 972 q 1014 935 1017 950 l 890 358 q 801 148 864 231 q 640 26 739 65 q 400 -14 540 -14 m 332 1042 q 314 1064 310 1042 q 325 1082 317 1075 l 517 1251 q 546 1272 533 1267 q 574 1278 558 1278 l 754 1278 q 780 1272 769 1278 q 800 1251 790 1267 l 919 1082 q 922 1064 925 1075 q 896 1042 918 1042 l 808 1042 q 781 1043 794 1042 q 754 1051 768 1044 l 639 1110 l 499 1051 q 469 1044 483 1046 q 442 1042 456 1042 l 332 1042 z "},"K":{"ha":989,"x_min":-7,"x_max":1089,"o":"m 26 0 q 2 11 11 0 q -4 38 -7 22 l 188 935 q 203 961 190 950 q 232 972 217 972 l 497 972 q 522 961 513 972 q 528 935 531 950 l 468 660 l 686 942 q 710 963 694 953 q 747 972 725 972 l 1061 972 q 1085 956 1081 972 q 1078 926 1089 940 l 718 478 l 901 46 q 895 14 910 28 q 865 0 881 0 l 569 0 q 535 9 547 0 q 518 32 524 18 l 400 335 l 336 38 q 320 11 333 22 q 292 0 307 0 l 26 0 z "},"Ķ":{"ha":989,"x_min":-7,"x_max":1089,"o":"m 26 0 q 2 11 11 0 q -4 38 -7 22 l 188 935 q 203 961 190 950 q 232 972 217 972 l 497 972 q 522 961 513 972 q 528 935 531 950 l 468 660 l 686 942 q 710 963 694 953 q 747 972 725 972 l 1061 972 q 1085 956 1081 972 q 1078 926 1089 940 l 718 478 l 901 46 q 895 14 910 28 q 865 0 881 0 l 569 0 q 535 9 547 0 q 518 32 524 18 l 400 335 l 336 38 q 320 11 333 22 q 292 0 307 0 l 26 0 m 188 -347 q 166 -337 174 -347 q 164 -314 158 -326 l 235 -124 q 260 -87 242 -104 q 306 -69 278 -69 l 515 -69 q 533 -77 526 -69 q 540 -94 540 -85 q 536 -110 540 -101 l 418 -303 q 393 -332 410 -317 q 349 -347 376 -347 l 188 -347 z "},"L":{"ha":865,"x_min":-7,"x_max":818,"o":"m 26 0 q 2 11 11 0 q -4 38 -7 22 l 188 935 q 203 961 190 950 q 232 972 217 972 l 510 972 q 534 961 525 972 q 540 935 543 950 l 401 285 l 786 285 q 810 274 801 285 q 815 247 818 263 l 771 38 q 755 11 768 22 q 726 0 742 0 l 26 0 z "},"Ĺ":{"ha":865,"x_min":-7,"x_max":818,"o":"m 26 0 q 2 11 11 0 q -4 38 -7 22 l 188 935 q 203 961 190 950 q 232 972 217 972 l 510 972 q 534 961 525 972 q 540 935 543 950 l 401 285 l 786 285 q 810 274 801 285 q 815 247 818 263 l 771 38 q 755 11 768 22 q 726 0 742 0 l 26 0 m 267 1042 q 249 1064 244 1042 q 260 1082 251 1075 l 435 1251 q 465 1274 454 1269 q 492 1278 476 1278 l 764 1278 q 782 1270 776 1278 q 785 1250 788 1263 q 774 1233 783 1240 l 535 1065 q 507 1049 521 1056 q 471 1042 493 1042 l 267 1042 z "},"Ľ":{"ha":875,"x_min":-7,"x_max":961,"o":"m 608 708 q 587 719 594 708 q 585 742 579 729 l 656 932 q 681 969 663 951 q 726 986 699 986 l 936 986 q 954 978 947 986 q 961 961 961 971 q 957 946 961 954 l 839 753 q 814 724 831 739 q 769 708 797 708 l 608 708 m 26 0 q 2 11 11 0 q -4 38 -7 22 l 188 935 q 203 961 190 950 q 232 972 217 972 l 510 972 q 534 961 525 972 q 540 935 543 950 l 401 285 l 786 285 q 810 274 801 285 q 815 247 818 263 l 771 38 q 755 11 768 22 q 726 0 742 0 l 26 0 z "},"Ļ":{"ha":865,"x_min":-7,"x_max":818,"o":"m 26 0 q 2 11 11 0 q -4 38 -7 22 l 188 935 q 203 961 190 950 q 232 972 217 972 l 510 972 q 534 961 525 972 q 540 935 543 950 l 401 285 l 786 285 q 810 274 801 285 q 815 247 818 263 l 771 38 q 755 11 768 22 q 726 0 742 0 l 26 0 m 121 -347 q 99 -337 107 -347 q 97 -314 92 -326 l 168 -124 q 193 -87 175 -104 q 239 -69 211 -69 l 449 -69 q 467 -77 460 -69 q 474 -94 474 -85 q 469 -110 474 -101 l 351 -303 q 326 -332 343 -317 q 282 -347 310 -347 l 121 -347 z "},"Ŀ":{"ha":874,"x_min":-7,"x_max":867,"o":"m 26 0 q 2 11 11 0 q -4 38 -7 22 l 188 935 q 203 961 190 950 q 232 972 217 972 l 510 972 q 534 961 525 972 q 540 935 543 950 l 401 285 l 786 285 q 810 274 801 285 q 815 247 818 263 l 771 38 q 755 11 768 22 q 726 0 742 0 l 26 0 m 596 429 q 575 438 582 429 q 571 461 568 447 l 611 650 q 625 673 614 664 q 650 682 636 682 l 839 682 q 860 673 853 682 q 864 650 867 664 l 824 461 q 810 438 821 447 q 785 429 799 429 l 596 429 z "},"Ł":{"ha":876,"x_min":-3,"x_max":831,"o":"m 38 0 q 13 11 22 0 q 7 38 4 22 l 65 313 l 39 303 q 22 299 26 299 q 3 307 10 299 q 0 328 -3 315 l 32 478 q 44 508 35 497 q 72 524 54 518 l 114 539 l 199 935 q 215 961 201 950 q 243 972 228 972 l 521 972 q 545 961 536 972 q 551 935 554 950 l 496 678 l 714 757 q 731 761 726 761 q 750 753 743 761 q 754 732 757 744 l 722 582 q 709 553 718 564 q 682 536 700 543 l 449 451 l 413 285 l 797 285 q 822 274 813 285 q 826 247 831 263 l 782 38 q 766 11 779 22 q 738 0 753 0 l 38 0 z "},"M":{"ha":1188,"x_min":-7,"x_max":1226,"o":"m 26 0 q 2 11 11 0 q -4 38 -7 22 l 188 935 q 203 961 190 950 q 232 972 217 972 l 451 972 q 490 957 479 972 q 504 935 501 942 l 635 601 l 907 935 q 929 957 913 942 q 974 972 946 972 l 1193 972 q 1217 961 1208 972 q 1224 935 1226 950 l 1032 38 q 1016 11 1029 22 q 988 0 1003 0 l 736 0 q 712 11 721 0 q 706 38 703 22 l 786 418 l 664 268 q 640 245 654 257 q 604 233 625 233 l 507 233 q 477 245 486 233 q 464 268 468 257 l 403 418 l 322 38 q 306 11 319 22 q 278 0 293 0 l 26 0 z "},"N":{"ha":1026,"x_min":-7,"x_max":1065,"o":"m 26 0 q 2 11 11 0 q -4 38 -7 22 l 188 935 q 203 961 190 950 q 232 972 217 972 l 451 972 q 489 960 479 972 q 501 940 499 947 l 656 556 l 736 935 q 752 961 739 950 q 781 972 765 972 l 1032 972 q 1056 961 1047 972 q 1063 935 1065 950 l 871 38 q 855 11 868 22 q 826 0 842 0 l 607 0 q 569 13 579 0 q 556 32 558 26 l 397 386 l 322 38 q 306 11 319 22 q 278 0 293 0 l 26 0 z "},"Ń":{"ha":1026,"x_min":-7,"x_max":1065,"o":"m 26 0 q 2 11 11 0 q -4 38 -7 22 l 188 935 q 203 961 190 950 q 232 972 217 972 l 451 972 q 489 960 479 972 q 501 940 499 947 l 656 556 l 736 935 q 752 961 739 950 q 781 972 765 972 l 1032 972 q 1056 961 1047 972 q 1063 935 1065 950 l 871 38 q 855 11 868 22 q 826 0 842 0 l 607 0 q 569 13 579 0 q 556 32 558 26 l 397 386 l 322 38 q 306 11 319 22 q 278 0 293 0 l 26 0 m 503 1042 q 485 1064 481 1042 q 496 1082 488 1075 l 671 1251 q 701 1274 690 1269 q 728 1278 713 1278 l 1000 1278 q 1018 1270 1013 1278 q 1021 1250 1024 1263 q 1010 1233 1019 1240 l 771 1065 q 743 1049 757 1056 q 707 1042 729 1042 l 503 1042 z "},"Ň":{"ha":1026,"x_min":-7,"x_max":1065,"o":"m 26 0 q 2 11 11 0 q -4 38 -7 22 l 188 935 q 203 961 190 950 q 232 972 217 972 l 451 972 q 489 960 479 972 q 501 940 499 947 l 656 556 l 736 935 q 752 961 739 950 q 781 972 765 972 l 1032 972 q 1056 961 1047 972 q 1063 935 1065 950 l 871 38 q 855 11 868 22 q 826 0 842 0 l 607 0 q 569 13 579 0 q 556 32 558 26 l 397 386 l 322 38 q 306 11 319 22 q 278 0 293 0 l 26 0 m 538 1042 q 513 1048 522 1042 q 492 1068 503 1054 l 372 1238 q 369 1256 367 1244 q 396 1278 374 1278 l 483 1278 q 510 1276 497 1278 q 538 1268 524 1275 l 653 1210 l 793 1268 q 822 1276 808 1275 q 850 1278 836 1278 l 960 1278 q 978 1256 982 1278 q 967 1238 975 1244 l 775 1068 q 746 1048 758 1054 q 718 1042 733 1042 l 538 1042 z "},"Ņ":{"ha":1026,"x_min":-7,"x_max":1065,"o":"m 26 0 q 2 11 11 0 q -4 38 -7 22 l 188 935 q 203 961 190 950 q 232 972 217 972 l 451 972 q 489 960 479 972 q 501 940 499 947 l 656 556 l 736 935 q 752 961 739 950 q 781 972 765 972 l 1032 972 q 1056 961 1047 972 q 1063 935 1065 950 l 871 38 q 855 11 868 22 q 826 0 842 0 l 607 0 q 569 13 579 0 q 556 32 558 26 l 397 386 l 322 38 q 306 11 319 22 q 278 0 293 0 l 26 0 m 201 -347 q 180 -337 188 -347 q 178 -314 172 -326 l 249 -124 q 274 -87 256 -104 q 319 -69 292 -69 l 529 -69 q 547 -77 540 -69 q 554 -94 554 -85 q 550 -110 554 -101 l 432 -303 q 407 -332 424 -317 q 363 -347 390 -347 l 201 -347 z "},"Ñ":{"ha":1026,"x_min":-7,"x_max":1065,"o":"m 26 0 q 2 11 11 0 q -4 38 -7 22 l 188 935 q 203 961 190 950 q 232 972 217 972 l 451 972 q 489 960 479 972 q 501 940 499 947 l 656 556 l 736 935 q 752 961 739 950 q 781 972 765 972 l 1032 972 q 1056 961 1047 972 q 1063 935 1065 950 l 871 38 q 855 11 868 22 q 826 0 842 0 l 607 0 q 569 13 579 0 q 556 32 558 26 l 397 386 l 322 38 q 306 11 319 22 q 278 0 293 0 l 26 0 m 746 1035 q 677 1047 704 1035 q 628 1072 650 1060 q 579 1085 607 1085 q 547 1074 558 1085 q 525 1053 535 1064 q 500 1042 515 1042 l 383 1042 q 367 1049 374 1042 q 363 1067 361 1057 q 382 1127 368 1090 q 421 1200 396 1164 q 486 1260 446 1236 q 583 1285 526 1285 q 652 1272 625 1285 q 701 1247 679 1260 q 750 1235 724 1235 q 783 1246 771 1235 q 804 1267 794 1257 q 829 1278 814 1278 l 946 1278 q 964 1270 958 1278 q 967 1251 969 1263 q 947 1192 961 1228 q 908 1119 933 1156 q 842 1059 882 1083 q 746 1035 803 1035 z "},"Ŋ":{"ha":1028,"x_min":14,"x_max":1085,"o":"m 342 -312 q 318 -301 326 -312 q 313 -275 310 -290 l 357 -68 q 374 -42 360 -53 q 403 -31 388 -31 l 458 -31 q 511 -20 489 -31 q 549 8 533 -10 q 568 50 564 26 l 568 53 l 417 386 l 343 38 q 326 11 340 22 q 297 0 313 0 l 46 0 q 22 11 31 0 q 17 38 14 22 l 207 935 q 224 961 210 950 q 253 972 238 972 l 472 972 q 510 960 500 972 q 522 940 521 947 l 675 556 l 756 935 q 772 961 758 950 q 801 972 786 972 l 1053 972 q 1076 961 1068 972 q 1082 935 1085 950 l 892 36 q 789 -160 867 -82 q 601 -275 711 -237 q 364 -312 490 -312 l 342 -312 z "},"O":{"ha":1031,"x_min":26,"x_max":1036,"o":"m 453 -14 q 280 10 361 -14 q 140 81 199 33 q 53 198 81 128 q 42 361 26 268 q 65 482 51 418 q 93 606 79 546 q 262 887 139 788 q 610 986 385 986 q 783 961 701 986 q 923 888 864 936 q 1009 768 982 839 q 1021 606 1036 697 q 997 482 1011 546 q 969 361 983 418 q 800 81 922 175 q 453 -14 678 -14 m 483 257 q 563 284 529 257 q 610 369 596 311 q 638 488 625 429 q 660 603 650 546 q 648 688 671 661 q 581 715 625 715 q 503 688 536 715 q 454 603 469 661 q 428 488 440 546 q 404 369 415 429 q 416 284 394 311 q 483 257 438 257 z "},"Ó":{"ha":1031,"x_min":26,"x_max":1036,"o":"m 453 -14 q 280 10 361 -14 q 140 81 199 33 q 53 198 81 128 q 42 361 26 268 q 65 482 51 418 q 93 606 79 546 q 262 887 139 788 q 610 986 385 986 q 783 961 701 986 q 923 888 864 936 q 1009 768 982 839 q 1021 606 1036 697 q 997 482 1011 546 q 969 361 983 418 q 800 81 922 175 q 453 -14 678 -14 m 483 257 q 563 284 529 257 q 610 369 596 311 q 638 488 625 429 q 660 603 650 546 q 648 688 671 661 q 581 715 625 715 q 503 688 536 715 q 454 603 469 661 q 428 488 440 546 q 404 369 415 429 q 416 284 394 311 q 483 257 438 257 m 513 1042 q 494 1064 490 1042 q 506 1082 497 1075 l 681 1251 q 711 1274 700 1269 q 738 1278 722 1278 l 1010 1278 q 1028 1270 1022 1278 q 1031 1250 1033 1263 q 1019 1233 1029 1240 l 781 1065 q 753 1049 767 1056 q 717 1042 739 1042 l 513 1042 z "},"Ŏ":{"ha":1031,"x_min":26,"x_max":1036,"o":"m 453 -14 q 280 10 361 -14 q 140 81 199 33 q 53 198 81 128 q 42 361 26 268 q 65 482 51 418 q 93 606 79 546 q 262 887 139 788 q 610 986 385 986 q 783 961 701 986 q 923 888 864 936 q 1009 768 982 839 q 1021 606 1036 697 q 997 482 1011 546 q 969 361 983 418 q 800 81 922 175 q 453 -14 678 -14 m 483 257 q 563 284 529 257 q 610 369 596 311 q 638 488 625 429 q 660 603 650 546 q 648 688 671 661 q 581 715 625 715 q 503 688 536 715 q 454 603 469 661 q 428 488 440 546 q 404 369 415 429 q 416 284 394 311 q 483 257 438 257 m 649 1035 q 519 1063 572 1035 q 444 1140 467 1092 q 435 1251 422 1189 q 446 1270 438 1263 q 467 1278 454 1278 l 604 1278 q 622 1270 617 1278 q 625 1251 628 1263 q 625 1198 619 1221 q 664 1175 631 1175 q 714 1198 697 1175 q 736 1251 731 1221 q 747 1270 739 1263 q 768 1278 756 1278 l 906 1278 q 924 1270 918 1278 q 926 1251 929 1263 q 883 1140 914 1189 q 795 1063 851 1092 q 649 1035 739 1035 z "},"Ô":{"ha":1031,"x_min":26,"x_max":1036,"o":"m 453 -14 q 280 10 361 -14 q 140 81 199 33 q 53 198 81 128 q 42 361 26 268 q 65 482 51 418 q 93 606 79 546 q 262 887 139 788 q 610 986 385 986 q 783 961 701 986 q 923 888 864 936 q 1009 768 982 839 q 1021 606 1036 697 q 997 482 1011 546 q 969 361 983 418 q 800 81 922 175 q 453 -14 678 -14 m 483 257 q 563 284 529 257 q 610 369 596 311 q 638 488 625 429 q 660 603 650 546 q 648 688 671 661 q 581 715 625 715 q 503 688 536 715 q 454 603 469 661 q 428 488 440 546 q 404 369 415 429 q 416 284 394 311 q 483 257 438 257 m 346 1042 q 328 1064 324 1042 q 339 1082 331 1075 l 531 1251 q 560 1272 547 1267 q 588 1278 572 1278 l 768 1278 q 794 1272 783 1278 q 814 1251 804 1267 l 933 1082 q 936 1064 939 1075 q 910 1042 932 1042 l 822 1042 q 795 1043 808 1042 q 768 1051 782 1044 l 653 1110 l 513 1051 q 483 1044 497 1046 q 456 1042 469 1042 l 346 1042 z "},"Ö":{"ha":1031,"x_min":26,"x_max":1036,"o":"m 453 -14 q 280 10 361 -14 q 140 81 199 33 q 53 198 81 128 q 42 361 26 268 q 65 482 51 418 q 93 606 79 546 q 262 887 139 788 q 610 986 385 986 q 783 961 701 986 q 923 888 864 936 q 1009 768 982 839 q 1021 606 1036 697 q 997 482 1011 546 q 969 361 983 418 q 800 81 922 175 q 453 -14 678 -14 m 483 257 q 563 284 529 257 q 610 369 596 311 q 638 488 625 429 q 660 603 650 546 q 648 688 671 661 q 581 715 625 715 q 503 688 536 715 q 454 603 469 661 q 428 488 440 546 q 404 369 415 429 q 416 284 394 311 q 483 257 438 257 m 740 1042 q 719 1051 726 1042 q 715 1074 713 1060 l 751 1246 q 765 1269 754 1260 q 790 1278 776 1278 l 963 1278 q 983 1269 976 1278 q 988 1246 990 1260 l 951 1074 q 938 1051 949 1060 q 913 1042 926 1042 l 740 1042 m 367 1042 q 346 1051 353 1042 q 342 1074 339 1060 l 378 1246 q 392 1269 381 1260 q 417 1278 403 1278 l 589 1278 q 610 1269 603 1278 q 614 1246 617 1260 l 578 1074 q 564 1051 575 1060 q 539 1042 553 1042 l 367 1042 z "},"Ò":{"ha":1031,"x_min":26,"x_max":1036,"o":"m 453 -14 q 280 10 361 -14 q 140 81 199 33 q 53 198 81 128 q 42 361 26 268 q 65 482 51 418 q 93 606 79 546 q 262 887 139 788 q 610 986 385 986 q 783 961 701 986 q 923 888 864 936 q 1009 768 982 839 q 1021 606 1036 697 q 997 482 1011 546 q 969 361 983 418 q 800 81 922 175 q 453 -14 678 -14 m 483 257 q 563 284 529 257 q 610 369 596 311 q 638 488 625 429 q 660 603 650 546 q 648 688 671 661 q 581 715 625 715 q 503 688 536 715 q 454 603 469 661 q 428 488 440 546 q 404 369 415 429 q 416 284 394 311 q 483 257 438 257 m 554 1042 q 522 1049 532 1042 q 501 1065 511 1056 l 332 1233 q 329 1250 326 1239 q 361 1278 333 1278 l 619 1278 q 644 1274 635 1278 q 665 1251 654 1269 l 768 1082 q 771 1064 774 1075 q 744 1042 767 1042 l 554 1042 z "},"Ő":{"ha":1031,"x_min":26,"x_max":1128,"o":"m 453 -14 q 280 10 361 -14 q 140 81 199 33 q 53 198 81 128 q 42 361 26 268 q 65 482 51 418 q 93 606 79 546 q 262 887 139 788 q 610 986 385 986 q 783 961 701 986 q 923 888 864 936 q 1009 768 982 839 q 1021 606 1036 697 q 997 482 1011 546 q 969 361 983 418 q 800 81 922 175 q 453 -14 678 -14 m 483 257 q 563 284 529 257 q 610 369 596 311 q 638 488 625 429 q 660 603 650 546 q 648 688 671 661 q 581 715 625 715 q 503 688 536 715 q 454 603 469 661 q 428 488 440 546 q 404 369 415 429 q 416 284 394 311 q 483 257 438 257 m 719 1042 q 701 1064 697 1042 q 707 1075 703 1069 q 714 1085 711 1081 l 824 1251 q 846 1272 833 1265 q 881 1278 858 1278 l 1099 1278 q 1121 1251 1128 1278 q 1108 1233 1119 1242 l 914 1061 q 863 1042 892 1042 l 719 1042 m 379 1042 q 361 1064 357 1042 q 367 1075 363 1069 q 374 1085 371 1081 l 483 1251 q 506 1272 493 1265 q 540 1278 518 1278 l 758 1278 q 781 1251 788 1278 q 768 1233 779 1242 l 574 1061 q 522 1042 551 1042 l 379 1042 z "},"Ō":{"ha":1031,"x_min":26,"x_max":1036,"o":"m 453 -14 q 280 10 361 -14 q 140 81 199 33 q 53 198 81 128 q 42 361 26 268 q 65 482 51 418 q 93 606 79 546 q 262 887 139 788 q 610 986 385 986 q 783 961 701 986 q 923 888 864 936 q 1009 768 982 839 q 1021 606 1036 697 q 997 482 1011 546 q 969 361 983 418 q 800 81 922 175 q 453 -14 678 -14 m 483 257 q 563 284 529 257 q 610 369 596 311 q 638 488 625 429 q 660 603 650 546 q 648 688 671 661 q 581 715 625 715 q 503 688 536 715 q 454 603 469 661 q 428 488 440 546 q 404 369 415 429 q 416 284 394 311 q 483 257 438 257 m 376 1042 q 356 1051 363 1042 q 351 1074 349 1060 l 382 1218 q 396 1241 385 1232 q 421 1250 407 1250 l 944 1250 q 965 1241 958 1250 q 969 1218 972 1232 l 939 1074 q 925 1051 936 1060 q 900 1042 914 1042 l 376 1042 z "},"Ø":{"ha":1031,"x_min":-14,"x_max":1097,"o":"m 453 -14 q 280 10 361 -14 q 140 81 199 33 q 53 198 81 128 q 42 361 26 268 q 65 482 51 418 q 93 606 79 546 q 262 887 139 788 q 610 986 385 986 q 783 961 701 986 q 923 888 864 936 q 1009 768 982 839 q 1021 606 1036 697 q 997 482 1011 546 q 969 361 983 418 q 800 81 922 175 q 453 -14 678 -14 m 483 257 q 563 284 529 257 q 610 369 596 311 q 638 488 625 429 q 660 603 650 546 q 648 688 671 661 q 581 715 625 715 q 503 688 536 715 q 454 603 469 661 q 428 488 440 546 q 404 369 415 429 q 416 284 394 311 q 483 257 438 257 m 18 -90 q -7 -72 0 -90 q 0 -36 -14 -53 l 971 1043 q 981 1055 974 1047 q 1003 1063 989 1063 l 1065 1063 q 1091 1044 1085 1063 q 1085 1011 1097 1025 l 111 -69 q 101 -82 108 -74 q 76 -90 93 -90 l 18 -90 z "},"Ǿ":{"ha":1081,"x_min":-14,"x_max":1097,"o":"m 547 1042 q 529 1064 525 1042 q 540 1082 532 1075 l 715 1251 q 746 1274 735 1269 q 772 1278 757 1278 l 1044 1278 q 1063 1270 1057 1278 q 1065 1250 1068 1263 q 1054 1233 1064 1240 l 815 1065 q 788 1049 801 1056 q 751 1042 774 1042 l 547 1042 m 453 -14 q 280 10 361 -14 q 140 81 199 33 q 53 198 81 128 q 42 361 26 268 q 65 482 51 418 q 93 606 79 546 q 262 887 139 788 q 610 986 385 986 q 783 961 701 986 q 923 888 864 936 q 1009 768 982 839 q 1021 606 1036 697 q 997 482 1011 546 q 969 361 983 418 q 800 81 922 175 q 453 -14 678 -14 m 483 257 q 563 284 529 257 q 610 369 596 311 q 638 488 625 429 q 660 603 650 546 q 648 688 671 661 q 581 715 625 715 q 503 688 536 715 q 454 603 469 661 q 428 488 440 546 q 404 369 415 429 q 416 284 394 311 q 483 257 438 257 m 18 -90 q -7 -72 0 -90 q 0 -36 -14 -53 l 971 1043 q 981 1055 974 1047 q 1003 1063 989 1063 l 1065 1063 q 1091 1044 1085 1063 q 1085 1011 1097 1025 l 111 -69 q 101 -82 108 -74 q 76 -90 93 -90 l 18 -90 z "},"Õ":{"ha":1031,"x_min":26,"x_max":1036,"o":"m 453 -14 q 280 10 361 -14 q 140 81 199 33 q 53 198 81 128 q 42 361 26 268 q 65 482 51 418 q 93 606 79 546 q 262 887 139 788 q 610 986 385 986 q 783 961 701 986 q 923 888 864 936 q 1009 768 982 839 q 1021 606 1036 697 q 997 482 1011 546 q 969 361 983 418 q 800 81 922 175 q 453 -14 678 -14 m 483 257 q 563 284 529 257 q 610 369 596 311 q 638 488 625 429 q 660 603 650 546 q 648 688 671 661 q 581 715 625 715 q 503 688 536 715 q 454 603 469 661 q 428 488 440 546 q 404 369 415 429 q 416 284 394 311 q 483 257 438 257 m 756 1035 q 687 1047 714 1035 q 638 1072 660 1060 q 589 1085 617 1085 q 556 1074 568 1085 q 535 1053 544 1064 q 510 1042 525 1042 l 393 1042 q 377 1049 383 1042 q 372 1067 371 1057 q 392 1127 378 1090 q 431 1200 406 1164 q 496 1260 456 1236 q 593 1285 536 1285 q 662 1272 635 1285 q 711 1247 689 1260 q 760 1235 733 1235 q 792 1246 781 1235 q 814 1267 804 1257 q 839 1278 824 1278 l 956 1278 q 974 1270 968 1278 q 976 1251 979 1263 q 957 1192 971 1228 q 917 1119 943 1156 q 852 1059 892 1083 q 756 1035 813 1035 z "},"Œ":{"ha":1390,"x_min":26,"x_max":1443,"o":"m 447 0 q 278 23 358 0 q 140 93 199 46 q 53 213 81 140 q 43 383 26 285 q 64 485 54 440 q 88 590 74 531 q 185 800 119 715 q 356 928 251 885 q 604 972 461 972 l 1410 972 q 1434 961 1425 972 q 1440 935 1443 950 l 1399 739 q 1381 713 1394 724 q 1353 701 1368 701 l 964 701 l 944 614 l 1303 614 q 1327 603 1318 614 q 1333 576 1336 592 l 1294 396 q 1278 369 1292 381 q 1249 358 1264 358 l 890 358 l 872 271 l 1272 271 q 1296 260 1288 271 q 1301 233 1304 249 l 1260 38 q 1244 11 1257 22 q 1215 0 1231 0 l 447 0 m 483 271 l 540 271 l 632 701 l 582 701 q 522 690 551 701 q 472 653 493 678 q 440 590 451 629 q 422 520 431 553 q 408 456 414 488 q 396 383 403 424 q 412 298 386 325 q 483 271 438 271 z "},"P":{"ha":979,"x_min":-7,"x_max":1017,"o":"m 26 0 q 2 11 11 0 q -4 38 -7 22 l 188 935 q 203 961 190 950 q 232 972 217 972 l 625 972 q 790 951 714 972 q 919 888 865 931 q 994 782 972 846 q 999 632 1017 718 q 850 381 963 460 q 539 303 738 303 l 414 303 l 357 38 q 341 11 354 22 q 313 0 328 0 l 26 0 m 461 560 l 558 560 q 605 577 581 560 q 639 635 629 594 q 641 671 643 653 q 628 701 639 689 q 592 714 617 714 l 494 714 l 461 560 z "},"Þ":{"ha":978,"x_min":-7,"x_max":988,"o":"m 26 0 q 2 11 11 0 q -4 38 -7 22 l 188 935 q 203 961 190 950 q 232 972 217 972 l 518 972 q 542 961 533 972 q 549 935 551 950 l 526 835 l 596 835 q 760 814 685 835 q 890 751 836 793 q 965 644 943 708 q 969 494 988 581 q 821 244 933 322 q 510 165 708 165 l 385 165 l 357 38 q 341 11 354 22 q 313 0 328 0 l 26 0 m 432 422 l 529 422 q 576 440 551 422 q 610 497 600 457 q 612 533 614 515 q 599 564 610 551 q 563 576 588 576 l 465 576 l 432 422 z "},"Q":{"ha":1031,"x_min":38,"x_max":1060,"o":"m 604 -90 q 568 -78 578 -90 q 553 -58 558 -67 l 525 -10 q 443 -14 486 -14 q 213 28 307 -14 q 78 153 119 69 q 58 361 38 238 q 83 482 69 418 q 111 606 97 546 q 219 813 142 728 q 408 942 296 897 q 656 986 519 986 q 885 942 792 986 q 1019 813 978 897 q 1039 606 1060 728 q 1015 482 1029 546 q 986 361 1001 418 q 833 110 944 204 l 910 -47 q 911 -60 913 -54 q 900 -81 911 -72 q 876 -90 889 -90 l 604 -90 m 501 257 q 581 284 547 257 q 628 369 614 311 q 655 488 643 429 q 676 603 667 546 q 676 667 683 642 q 649 703 668 692 q 599 715 629 715 q 520 688 554 715 q 471 603 486 661 q 445 488 457 546 q 422 369 433 429 q 423 306 415 331 q 451 269 431 281 q 501 257 471 257 z "},"R":{"ha":1003,"x_min":14,"x_max":1050,"o":"m 46 0 q 22 11 31 0 q 17 38 14 22 l 207 935 q 224 961 210 950 q 253 972 238 972 l 664 972 q 957 882 864 972 q 1017 635 1050 792 q 940 473 997 542 q 810 363 883 404 l 913 46 q 915 39 914 42 q 914 31 915 36 q 900 9 911 18 q 876 0 889 0 l 592 0 q 553 14 564 0 q 540 38 543 28 l 478 303 l 421 303 l 364 38 q 347 11 361 22 q 318 0 333 0 l 46 0 m 476 567 l 578 567 q 631 588 610 567 q 657 638 651 610 q 653 690 663 665 q 608 714 643 714 l 507 714 l 476 567 z "},"Ŕ":{"ha":1003,"x_min":14,"x_max":1050,"o":"m 46 0 q 22 11 31 0 q 17 38 14 22 l 207 935 q 224 961 210 950 q 253 972 238 972 l 664 972 q 957 882 864 972 q 1017 635 1050 792 q 940 473 997 542 q 810 363 883 404 l 913 46 q 915 39 914 42 q 914 31 915 36 q 900 9 911 18 q 876 0 889 0 l 592 0 q 553 14 564 0 q 540 38 543 28 l 478 303 l 421 303 l 364 38 q 347 11 361 22 q 318 0 333 0 l 46 0 m 476 567 l 578 567 q 631 588 610 567 q 657 638 651 610 q 653 690 663 665 q 608 714 643 714 l 507 714 l 476 567 m 481 1042 q 463 1064 458 1042 q 474 1082 465 1075 l 649 1251 q 679 1274 668 1269 q 706 1278 690 1278 l 978 1278 q 996 1270 990 1278 q 999 1250 1001 1263 q 988 1233 997 1240 l 749 1065 q 721 1049 735 1056 q 685 1042 707 1042 l 481 1042 z "},"Ř":{"ha":1003,"x_min":14,"x_max":1050,"o":"m 46 0 q 22 11 31 0 q 17 38 14 22 l 207 935 q 224 961 210 950 q 253 972 238 972 l 664 972 q 957 882 864 972 q 1017 635 1050 792 q 940 473 997 542 q 810 363 883 404 l 913 46 q 915 39 914 42 q 914 31 915 36 q 900 9 911 18 q 876 0 889 0 l 592 0 q 553 14 564 0 q 540 38 543 28 l 478 303 l 421 303 l 364 38 q 347 11 361 22 q 318 0 333 0 l 46 0 m 476 567 l 578 567 q 631 588 610 567 q 657 638 651 610 q 653 690 663 665 q 608 714 643 714 l 507 714 l 476 567 m 515 1042 q 490 1048 500 1042 q 469 1068 481 1054 l 350 1238 q 347 1256 344 1244 q 374 1278 351 1278 l 461 1278 q 488 1276 475 1278 q 515 1268 501 1275 l 631 1210 l 771 1268 q 800 1276 786 1275 q 828 1278 814 1278 l 938 1278 q 956 1256 960 1278 q 944 1238 953 1244 l 753 1068 q 724 1048 736 1054 q 696 1042 711 1042 l 515 1042 z "},"Ŗ":{"ha":1003,"x_min":14,"x_max":1050,"o":"m 46 0 q 22 11 31 0 q 17 38 14 22 l 207 935 q 224 961 210 950 q 253 972 238 972 l 664 972 q 957 882 864 972 q 1017 635 1050 792 q 940 473 997 542 q 810 363 883 404 l 913 46 q 915 39 914 42 q 914 31 915 36 q 900 9 911 18 q 876 0 889 0 l 592 0 q 553 14 564 0 q 540 38 543 28 l 478 303 l 421 303 l 364 38 q 347 11 361 22 q 318 0 333 0 l 46 0 m 476 567 l 578 567 q 631 588 610 567 q 657 638 651 610 q 653 690 663 665 q 608 714 643 714 l 507 714 l 476 567 m 194 -347 q 173 -337 181 -347 q 171 -314 165 -326 l 242 -124 q 267 -87 249 -104 q 313 -69 285 -69 l 522 -69 q 540 -77 533 -69 q 547 -94 547 -85 q 543 -110 547 -101 l 425 -303 q 400 -332 417 -317 q 356 -347 383 -347 l 194 -347 z "},"S":{"ha":969,"x_min":-17,"x_max":976,"o":"m 418 -14 q 167 28 265 -14 q 26 138 68 69 q -3 282 -17 206 q 10 303 0 294 q 33 313 21 313 l 297 313 q 330 306 319 313 q 353 289 340 300 q 377 272 364 279 q 408 260 390 264 q 449 257 426 257 q 526 267 496 257 q 561 296 557 278 q 551 324 565 313 q 500 344 538 335 q 396 361 463 353 q 217 417 289 376 q 115 526 144 458 q 106 686 85 594 q 256 907 135 828 q 565 986 376 986 q 737 959 660 986 q 869 888 814 932 q 950 794 924 844 q 968 699 976 744 q 956 677 967 686 q 933 668 944 668 l 656 668 q 626 674 636 668 q 604 690 615 679 q 582 706 599 697 q 536 715 565 715 q 483 705 501 715 q 461 676 465 694 q 469 653 458 664 q 510 633 479 642 q 603 617 542 625 q 815 558 739 600 q 915 451 890 517 q 921 294 940 385 q 763 65 889 143 q 418 -14 636 -14 z "},"Ś":{"ha":969,"x_min":-17,"x_max":1001,"o":"m 418 -14 q 167 28 265 -14 q 26 138 68 69 q -3 282 -17 206 q 10 303 0 294 q 33 313 21 313 l 297 313 q 330 306 319 313 q 353 289 340 300 q 377 272 364 279 q 408 260 390 264 q 449 257 426 257 q 526 267 496 257 q 561 296 557 278 q 551 324 565 313 q 500 344 538 335 q 396 361 463 353 q 217 417 289 376 q 115 526 144 458 q 106 686 85 594 q 256 907 135 828 q 565 986 376 986 q 737 959 660 986 q 869 888 814 932 q 950 794 924 844 q 968 699 976 744 q 956 677 967 686 q 933 668 944 668 l 656 668 q 626 674 636 668 q 604 690 615 679 q 582 706 599 697 q 536 715 565 715 q 483 705 501 715 q 461 676 465 694 q 469 653 458 664 q 510 633 479 642 q 603 617 542 625 q 815 558 739 600 q 915 451 890 517 q 921 294 940 385 q 763 65 889 143 q 418 -14 636 -14 m 481 1042 q 463 1064 458 1042 q 474 1082 465 1075 l 649 1251 q 679 1274 668 1269 q 706 1278 690 1278 l 978 1278 q 996 1270 990 1278 q 999 1250 1001 1263 q 988 1233 997 1240 l 749 1065 q 721 1049 735 1056 q 685 1042 707 1042 l 481 1042 z "},"Š":{"ha":969,"x_min":-17,"x_max":976,"o":"m 418 -14 q 167 28 265 -14 q 26 138 68 69 q -3 282 -17 206 q 10 303 0 294 q 33 313 21 313 l 297 313 q 330 306 319 313 q 353 289 340 300 q 377 272 364 279 q 408 260 390 264 q 449 257 426 257 q 526 267 496 257 q 561 296 557 278 q 551 324 565 313 q 500 344 538 335 q 396 361 463 353 q 217 417 289 376 q 115 526 144 458 q 106 686 85 594 q 256 907 135 828 q 565 986 376 986 q 737 959 660 986 q 869 888 814 932 q 950 794 924 844 q 968 699 976 744 q 956 677 967 686 q 933 668 944 668 l 656 668 q 626 674 636 668 q 604 690 615 679 q 582 706 599 697 q 536 715 565 715 q 483 705 501 715 q 461 676 465 694 q 469 653 458 664 q 510 633 479 642 q 603 617 542 625 q 815 558 739 600 q 915 451 890 517 q 921 294 940 385 q 763 65 889 143 q 418 -14 636 -14 m 515 1042 q 490 1048 500 1042 q 469 1068 481 1054 l 350 1238 q 347 1256 344 1244 q 374 1278 351 1278 l 461 1278 q 488 1276 475 1278 q 515 1268 501 1275 l 631 1210 l 771 1268 q 800 1276 786 1275 q 828 1278 814 1278 l 938 1278 q 956 1256 960 1278 q 944 1238 953 1244 l 753 1068 q 724 1048 736 1054 q 696 1042 711 1042 l 515 1042 z "},"Ş":{"ha":967,"x_min":-15,"x_max":978,"o":"m 326 -306 q 263 -294 290 -306 q 226 -265 235 -282 q 235 -235 217 -249 l 269 -210 q 292 -201 283 -199 q 311 -208 300 -203 q 346 -214 322 -214 q 378 -203 365 -214 q 393 -181 390 -193 q 389 -158 396 -168 q 361 -147 382 -147 q 334 -151 349 -147 q 306 -155 319 -154 q 286 -147 293 -156 l 263 -118 q 256 -100 256 -108 q 269 -72 256 -92 l 311 -10 q 114 44 188 1 q 13 150 40 88 q -3 282 -15 213 q 11 303 0 294 q 35 313 22 313 l 299 313 q 331 306 321 313 q 353 289 342 300 q 378 272 364 279 q 410 260 392 264 q 450 257 428 257 q 528 267 497 257 q 561 296 558 278 q 551 324 565 313 q 501 344 538 335 q 396 361 464 353 q 217 413 290 376 q 114 512 144 449 q 103 667 83 575 q 192 833 124 761 q 364 946 260 906 q 594 986 468 986 q 774 959 699 986 q 894 888 849 932 q 959 794 940 844 q 969 699 978 744 q 956 677 968 686 q 933 668 944 668 l 656 668 q 626 674 636 668 q 606 690 617 679 q 583 706 600 697 q 538 715 567 715 q 484 705 503 715 q 463 676 465 694 q 470 653 460 664 q 512 633 481 642 q 604 617 543 625 q 815 563 739 600 q 917 465 892 526 q 922 314 942 404 q 826 140 901 214 q 639 27 750 67 q 397 -14 528 -12 l 363 -62 q 386 -58 371 -60 q 406 -56 401 -56 q 481 -90 458 -56 q 492 -181 503 -125 q 434 -271 479 -236 q 326 -306 389 -306 z "},"Ŝ":{"ha":969,"x_min":-17,"x_max":976,"o":"m 418 -14 q 167 28 265 -14 q 26 138 68 69 q -3 282 -17 206 q 10 303 0 294 q 33 313 21 313 l 297 313 q 330 306 319 313 q 353 289 340 300 q 377 272 364 279 q 408 260 390 264 q 449 257 426 257 q 526 267 496 257 q 561 296 557 278 q 551 324 565 313 q 500 344 538 335 q 396 361 463 353 q 217 417 289 376 q 115 526 144 458 q 106 686 85 594 q 256 907 135 828 q 565 986 376 986 q 737 959 660 986 q 869 888 814 932 q 950 794 924 844 q 968 699 976 744 q 956 677 967 686 q 933 668 944 668 l 656 668 q 626 674 636 668 q 604 690 615 679 q 582 706 599 697 q 536 715 565 715 q 483 705 501 715 q 461 676 465 694 q 469 653 458 664 q 510 633 479 642 q 603 617 542 625 q 815 558 739 600 q 915 451 890 517 q 921 294 940 385 q 763 65 889 143 q 418 -14 636 -14 m 314 1042 q 296 1064 292 1042 q 307 1082 299 1075 l 499 1251 q 528 1272 515 1267 q 556 1278 540 1278 l 736 1278 q 762 1272 751 1278 q 782 1251 772 1267 l 901 1082 q 904 1064 907 1075 q 878 1042 900 1042 l 790 1042 q 763 1043 776 1042 q 736 1051 750 1044 l 621 1110 l 481 1051 q 451 1044 465 1046 q 424 1042 438 1042 l 314 1042 z "},"Ș":{"ha":969,"x_min":-17,"x_max":976,"o":"m 418 -14 q 167 28 265 -14 q 26 138 68 69 q -3 282 -17 206 q 10 303 0 294 q 33 313 21 313 l 297 313 q 330 306 319 313 q 353 289 340 300 q 377 272 364 279 q 408 260 390 264 q 449 257 426 257 q 526 267 496 257 q 561 296 557 278 q 551 324 565 313 q 500 344 538 335 q 396 361 463 353 q 217 417 289 376 q 115 526 144 458 q 106 686 85 594 q 256 907 135 828 q 565 986 376 986 q 737 959 660 986 q 869 888 814 932 q 950 794 924 844 q 968 699 976 744 q 956 677 967 686 q 933 668 944 668 l 656 668 q 626 674 636 668 q 604 690 615 679 q 582 706 599 697 q 536 715 565 715 q 483 705 501 715 q 461 676 465 694 q 469 653 458 664 q 510 633 479 642 q 603 617 542 625 q 815 558 739 600 q 915 451 890 517 q 921 294 940 385 q 763 65 889 143 q 418 -14 636 -14 m 172 -347 q 151 -337 158 -347 q 149 -314 143 -326 l 219 -124 q 244 -87 226 -104 q 290 -69 263 -69 l 500 -69 q 518 -77 511 -69 q 525 -94 525 -85 q 521 -110 525 -101 l 403 -303 q 378 -332 394 -317 q 333 -347 361 -347 l 172 -347 z "},"ẞ":{"ha":1028,"x_min":-24,"x_max":1028,"o":"m 10 0 q -16 12 -8 0 q -21 38 -24 24 l 104 626 q 270 892 140 797 q 628 986 400 986 q 838 951 749 986 q 978 861 928 915 q 1028 750 1028 807 q 1015 697 1028 719 q 969 644 1001 674 l 696 396 l 753 517 q 916 472 858 517 q 974 344 974 428 q 915 169 974 247 q 755 46 856 92 q 528 0 654 0 l 399 0 q 368 10 381 0 q 360 38 356 19 l 399 208 q 417 236 403 225 q 454 247 432 247 l 497 247 q 581 265 553 247 q 610 318 610 283 q 588 356 610 342 q 517 369 567 369 l 461 369 q 431 381 439 369 q 428 408 424 392 l 460 547 q 472 577 464 567 q 497 606 479 588 l 592 697 q 598 704 594 700 q 601 714 601 708 q 588 731 601 725 q 551 738 574 738 q 483 714 507 738 q 449 638 460 690 l 322 38 q 306 12 319 24 q 275 0 292 0 l 10 0 z "},"T":{"ha":935,"x_min":83,"x_max":1026,"o":"m 242 0 q 217 11 226 0 q 211 38 208 22 l 347 674 l 117 674 q 92 685 101 674 q 86 711 83 696 l 135 935 q 151 961 138 950 q 179 972 164 972 l 993 972 q 1017 961 1008 972 q 1024 935 1026 950 l 975 711 q 959 685 972 696 q 931 674 946 674 l 700 674 l 564 38 q 548 11 561 22 q 519 0 535 0 l 242 0 z "},"Ŧ":{"ha":944,"x_min":88,"x_max":1031,"o":"m 246 0 q 222 11 231 0 q 215 38 213 22 l 283 358 l 158 358 q 135 369 143 358 q 129 396 126 381 l 150 494 q 167 521 153 510 q 196 532 181 532 l 321 532 l 351 674 l 121 674 q 97 685 106 674 q 90 711 88 696 l 139 935 q 155 961 142 950 q 183 972 168 972 l 997 972 q 1022 961 1013 972 q 1028 935 1031 950 l 979 711 q 963 685 976 696 q 935 674 950 674 l 704 674 l 674 532 l 799 532 q 822 521 814 532 q 828 494 831 510 l 807 396 q 790 369 804 381 q 761 358 776 358 l 636 358 l 568 38 q 552 11 565 22 q 524 0 539 0 l 246 0 z "},"Ť":{"ha":935,"x_min":83,"x_max":1026,"o":"m 242 0 q 217 11 226 0 q 211 38 208 22 l 347 674 l 117 674 q 92 685 101 674 q 86 711 83 696 l 135 935 q 151 961 138 950 q 179 972 164 972 l 993 972 q 1017 961 1008 972 q 1024 935 1026 950 l 975 711 q 959 685 972 696 q 931 674 946 674 l 700 674 l 564 38 q 548 11 561 22 q 519 0 535 0 l 242 0 m 517 1042 q 492 1048 501 1042 q 471 1068 482 1054 l 351 1238 q 349 1256 346 1244 q 375 1278 353 1278 l 463 1278 q 490 1276 476 1278 q 517 1268 503 1275 l 632 1210 l 772 1268 q 801 1276 788 1275 q 829 1278 815 1278 l 939 1278 q 957 1256 961 1278 q 946 1238 954 1244 l 754 1068 q 725 1048 738 1054 q 697 1042 713 1042 l 517 1042 z "},"Ț":{"ha":935,"x_min":83,"x_max":1026,"o":"m 242 0 q 217 11 226 0 q 211 38 208 22 l 347 674 l 117 674 q 92 685 101 674 q 86 711 83 696 l 135 935 q 151 961 138 950 q 179 972 164 972 l 993 972 q 1017 961 1008 972 q 1024 935 1026 950 l 975 711 q 959 685 972 696 q 931 674 946 674 l 700 674 l 564 38 q 548 11 561 22 q 519 0 535 0 l 242 0 m 156 -347 q 134 -337 142 -347 q 132 -314 126 -326 l 203 -124 q 228 -87 210 -104 q 274 -69 246 -69 l 483 -69 q 501 -77 494 -69 q 508 -94 508 -85 q 504 -110 508 -101 l 386 -303 q 361 -332 378 -317 q 317 -347 344 -347 l 156 -347 z "},"U":{"ha":1035,"x_min":36,"x_max":1081,"o":"m 454 -14 q 285 9 365 -14 q 145 78 204 32 q 61 197 86 125 q 57 367 36 268 l 178 935 q 194 961 181 950 q 222 972 207 972 l 494 972 q 519 961 510 972 q 525 935 528 950 l 404 372 q 413 293 393 321 q 485 265 433 265 q 567 293 536 265 q 610 372 599 321 l 731 935 q 747 961 733 950 q 775 972 760 972 l 1047 972 q 1072 961 1063 972 q 1078 935 1081 950 l 957 367 q 794 78 915 169 q 454 -14 674 -14 z "},"Ú":{"ha":1035,"x_min":36,"x_max":1081,"o":"m 454 -14 q 285 9 365 -14 q 145 78 204 32 q 61 197 86 125 q 57 367 36 268 l 178 935 q 194 961 181 950 q 222 972 207 972 l 494 972 q 519 961 510 972 q 525 935 528 950 l 404 372 q 413 293 393 321 q 485 265 433 265 q 567 293 536 265 q 610 372 599 321 l 731 935 q 747 961 733 950 q 775 972 760 972 l 1047 972 q 1072 961 1063 972 q 1078 935 1081 950 l 957 367 q 794 78 915 169 q 454 -14 674 -14 m 514 1042 q 496 1064 492 1042 q 507 1082 499 1075 l 682 1251 q 713 1274 701 1269 q 739 1278 724 1278 l 1011 1278 q 1029 1270 1024 1278 q 1032 1250 1035 1263 q 1021 1233 1031 1240 l 782 1065 q 754 1049 768 1056 q 718 1042 740 1042 l 514 1042 z "},"Ŭ":{"ha":1035,"x_min":36,"x_max":1081,"o":"m 454 -14 q 285 9 365 -14 q 145 78 204 32 q 61 197 86 125 q 57 367 36 268 l 178 935 q 194 961 181 950 q 222 972 207 972 l 494 972 q 519 961 510 972 q 525 935 528 950 l 404 372 q 413 293 393 321 q 485 265 433 265 q 567 293 536 265 q 610 372 599 321 l 731 935 q 747 961 733 950 q 775 972 760 972 l 1047 972 q 1072 961 1063 972 q 1078 935 1081 950 l 957 367 q 794 78 915 169 q 454 -14 674 -14 m 650 1035 q 521 1063 574 1035 q 446 1140 468 1092 q 436 1251 424 1189 q 447 1270 439 1263 q 468 1278 456 1278 l 606 1278 q 624 1270 618 1278 q 626 1251 629 1263 q 626 1198 621 1221 q 665 1175 632 1175 q 715 1198 699 1175 q 738 1251 732 1221 q 749 1270 740 1263 q 769 1278 757 1278 l 907 1278 q 925 1270 919 1278 q 928 1251 931 1263 q 884 1140 915 1189 q 797 1063 853 1092 q 650 1035 740 1035 z "},"Û":{"ha":1035,"x_min":36,"x_max":1081,"o":"m 454 -14 q 285 9 365 -14 q 145 78 204 32 q 61 197 86 125 q 57 367 36 268 l 178 935 q 194 961 181 950 q 222 972 207 972 l 494 972 q 519 961 510 972 q 525 935 528 950 l 404 372 q 413 293 393 321 q 485 265 433 265 q 567 293 536 265 q 610 372 599 321 l 731 935 q 747 961 733 950 q 775 972 760 972 l 1047 972 q 1072 961 1063 972 q 1078 935 1081 950 l 957 367 q 794 78 915 169 q 454 -14 674 -14 m 347 1042 q 329 1064 325 1042 q 340 1082 332 1075 l 532 1251 q 561 1272 549 1267 q 589 1278 574 1278 l 769 1278 q 795 1272 785 1278 q 815 1251 806 1267 l 935 1082 q 938 1064 940 1075 q 911 1042 933 1042 l 824 1042 q 797 1043 810 1042 q 769 1051 783 1044 l 654 1110 l 514 1051 q 485 1044 499 1046 q 457 1042 471 1042 l 347 1042 z "},"Ü":{"ha":1035,"x_min":36,"x_max":1081,"o":"m 454 -14 q 285 9 365 -14 q 145 78 204 32 q 61 197 86 125 q 57 367 36 268 l 178 935 q 194 961 181 950 q 222 972 207 972 l 494 972 q 519 961 510 972 q 525 935 528 950 l 404 372 q 413 293 393 321 q 485 265 433 265 q 567 293 536 265 q 610 372 599 321 l 731 935 q 747 961 733 950 q 775 972 760 972 l 1047 972 q 1072 961 1063 972 q 1078 935 1081 950 l 957 367 q 794 78 915 169 q 454 -14 674 -14 m 742 1042 q 721 1051 728 1042 q 717 1074 714 1060 l 753 1246 q 767 1269 756 1260 q 792 1278 778 1278 l 964 1278 q 985 1269 978 1278 q 989 1246 992 1260 l 953 1074 q 939 1051 950 1060 q 914 1042 928 1042 l 742 1042 m 368 1042 q 347 1051 354 1042 q 343 1074 340 1060 l 379 1246 q 393 1269 382 1260 q 418 1278 404 1278 l 590 1278 q 611 1269 604 1278 q 615 1246 618 1260 l 579 1074 q 565 1051 576 1060 q 540 1042 554 1042 l 368 1042 z "},"Ù":{"ha":1035,"x_min":36,"x_max":1081,"o":"m 454 -14 q 285 9 365 -14 q 145 78 204 32 q 61 197 86 125 q 57 367 36 268 l 178 935 q 194 961 181 950 q 222 972 207 972 l 494 972 q 519 961 510 972 q 525 935 528 950 l 404 372 q 413 293 393 321 q 485 265 433 265 q 567 293 536 265 q 610 372 599 321 l 731 935 q 747 961 733 950 q 775 972 760 972 l 1047 972 q 1072 961 1063 972 q 1078 935 1081 950 l 957 367 q 794 78 915 169 q 454 -14 674 -14 m 556 1042 q 523 1049 533 1042 q 503 1065 513 1056 l 333 1233 q 331 1250 328 1239 q 363 1278 335 1278 l 621 1278 q 646 1274 636 1278 q 667 1251 656 1269 l 769 1082 q 772 1064 775 1075 q 746 1042 768 1042 l 556 1042 z "},"Ű":{"ha":1035,"x_min":36,"x_max":1129,"o":"m 454 -14 q 285 9 365 -14 q 145 78 204 32 q 61 197 86 125 q 57 367 36 268 l 178 935 q 194 961 181 950 q 222 972 207 972 l 494 972 q 519 961 510 972 q 525 935 528 950 l 404 372 q 413 293 393 321 q 485 265 433 265 q 567 293 536 265 q 610 372 599 321 l 731 935 q 747 961 733 950 q 775 972 760 972 l 1047 972 q 1072 961 1063 972 q 1078 935 1081 950 l 957 367 q 794 78 915 169 q 454 -14 674 -14 m 721 1042 q 703 1064 699 1042 q 708 1075 704 1069 q 715 1085 713 1081 l 825 1251 q 847 1272 835 1265 q 882 1278 860 1278 l 1100 1278 q 1122 1251 1129 1278 q 1110 1233 1121 1242 l 915 1061 q 864 1042 893 1042 l 721 1042 m 381 1042 q 363 1064 358 1042 q 368 1075 364 1069 q 375 1085 372 1081 l 485 1251 q 507 1272 494 1265 q 542 1278 519 1278 l 760 1278 q 782 1251 789 1278 q 769 1233 781 1242 l 575 1061 q 524 1042 553 1042 l 381 1042 z "},"Ū":{"ha":1035,"x_min":36,"x_max":1081,"o":"m 454 -14 q 285 9 365 -14 q 145 78 204 32 q 61 197 86 125 q 57 367 36 268 l 178 935 q 194 961 181 950 q 222 972 207 972 l 494 972 q 519 961 510 972 q 525 935 528 950 l 404 372 q 413 293 393 321 q 485 265 433 265 q 567 293 536 265 q 610 372 599 321 l 731 935 q 747 961 733 950 q 775 972 760 972 l 1047 972 q 1072 961 1063 972 q 1078 935 1081 950 l 957 367 q 794 78 915 169 q 454 -14 674 -14 m 378 1042 q 357 1051 364 1042 q 353 1074 350 1060 l 383 1218 q 397 1241 386 1232 q 422 1250 408 1250 l 946 1250 q 967 1241 960 1250 q 971 1218 974 1232 l 940 1074 q 926 1051 938 1060 q 901 1042 915 1042 l 378 1042 z "},"Ų":{"ha":1033,"x_min":35,"x_max":1081,"o":"m 496 -306 q 363 -270 413 -306 q 296 -177 313 -235 q 293 -54 279 -119 q 300 -25 296 -39 q 308 1 304 -11 q 157 68 222 22 q 63 188 92 114 q 57 367 35 263 l 178 935 q 194 961 181 950 q 222 972 207 972 l 494 972 q 519 961 510 972 q 525 935 528 950 l 404 372 q 414 293 394 321 q 485 265 433 265 q 568 293 536 265 q 610 372 600 321 l 731 935 q 747 961 733 950 q 775 972 760 972 l 1047 972 q 1072 961 1063 972 q 1078 935 1081 950 l 957 367 q 880 171 932 250 q 746 47 828 92 q 549 -10 664 3 q 491 -30 508 -14 q 468 -68 474 -46 q 474 -113 464 -90 q 524 -136 483 -136 l 538 -136 q 561 -147 553 -136 q 567 -174 569 -158 l 546 -268 q 530 -294 543 -283 q 501 -306 517 -306 l 496 -306 z "},"Ů":{"ha":1035,"x_min":36,"x_max":1081,"o":"m 454 -14 q 285 9 365 -14 q 145 78 204 32 q 61 197 86 125 q 57 367 36 268 l 178 935 q 194 961 181 950 q 222 972 207 972 l 494 972 q 519 961 510 972 q 525 935 528 950 l 404 372 q 413 293 393 321 q 485 265 433 265 q 567 293 536 265 q 610 372 599 321 l 731 935 q 747 961 733 950 q 775 972 760 972 l 1047 972 q 1072 961 1063 972 q 1078 935 1081 950 l 957 367 q 794 78 915 169 q 454 -14 674 -14 m 635 1028 q 544 1065 578 1028 q 524 1160 511 1103 q 585 1254 536 1217 q 690 1292 633 1292 q 781 1254 747 1292 q 801 1160 814 1217 q 740 1065 789 1103 q 635 1028 692 1028 m 654 1118 q 686 1130 672 1118 q 704 1160 700 1142 q 699 1190 708 1178 q 671 1201 689 1201 q 639 1190 653 1201 q 621 1160 625 1178 q 626 1130 617 1142 q 654 1118 636 1118 z "},"Ũ":{"ha":1035,"x_min":36,"x_max":1081,"o":"m 454 -14 q 285 9 365 -14 q 145 78 204 32 q 61 197 86 125 q 57 367 36 268 l 178 935 q 194 961 181 950 q 222 972 207 972 l 494 972 q 519 961 510 972 q 525 935 528 950 l 404 372 q 413 293 393 321 q 485 265 433 265 q 567 293 536 265 q 610 372 599 321 l 731 935 q 747 961 733 950 q 775 972 760 972 l 1047 972 q 1072 961 1063 972 q 1078 935 1081 950 l 957 367 q 794 78 915 169 q 454 -14 674 -14 m 757 1035 q 688 1047 715 1035 q 640 1072 661 1060 q 590 1085 618 1085 q 558 1074 569 1085 q 536 1053 546 1064 q 511 1042 526 1042 l 394 1042 q 378 1049 385 1042 q 374 1067 372 1057 q 393 1127 379 1090 q 432 1200 407 1164 q 497 1260 457 1236 q 594 1285 538 1285 q 663 1272 636 1285 q 713 1247 690 1260 q 761 1235 735 1235 q 794 1246 782 1235 q 815 1267 806 1257 q 840 1278 825 1278 l 957 1278 q 975 1270 969 1278 q 978 1251 981 1263 q 958 1192 972 1228 q 919 1119 944 1156 q 853 1059 893 1083 q 757 1035 814 1035 z "},"V":{"ha":1008,"x_min":129,"x_max":1106,"o":"m 257 0 q 217 15 229 0 q 204 46 204 31 l 131 932 q 141 962 129 951 q 168 972 153 972 l 417 972 q 456 957 444 972 q 469 926 468 942 l 492 410 l 733 926 q 759 957 740 942 q 806 972 778 972 l 1078 972 q 1100 960 1094 972 q 1099 932 1106 947 l 650 46 q 624 15 642 31 q 578 0 606 0 l 257 0 z "},"W":{"ha":1188,"x_min":90,"x_max":1264,"o":"m 144 0 q 103 17 117 0 q 92 53 90 35 l 138 938 q 151 962 139 951 q 176 972 163 972 l 428 972 q 462 964 451 972 q 469 935 472 956 l 433 543 l 526 717 q 544 742 532 726 q 582 757 557 757 l 724 757 q 755 742 749 757 q 763 717 761 726 l 783 544 l 914 935 q 972 972 926 972 l 1238 972 q 1258 961 1251 972 q 1260 938 1264 950 l 958 53 q 932 17 953 35 q 883 0 911 0 l 685 0 q 647 15 657 0 q 635 38 638 29 l 561 322 l 407 38 q 387 15 403 29 q 343 0 371 0 l 144 0 z "},"Ẃ":{"ha":1188,"x_min":90,"x_max":1264,"o":"m 144 0 q 103 17 117 0 q 92 53 90 35 l 138 938 q 151 962 139 951 q 176 972 163 972 l 428 972 q 462 964 451 972 q 469 935 472 956 l 433 543 l 526 717 q 544 742 532 726 q 582 757 557 757 l 724 757 q 755 742 749 757 q 763 717 761 726 l 783 544 l 914 935 q 972 972 926 972 l 1238 972 q 1258 961 1251 972 q 1260 938 1264 950 l 958 53 q 932 17 953 35 q 883 0 911 0 l 685 0 q 647 15 657 0 q 635 38 638 29 l 561 322 l 407 38 q 387 15 403 29 q 343 0 371 0 l 144 0 m 583 1042 q 565 1064 561 1042 q 576 1082 568 1075 l 751 1251 q 782 1274 771 1269 q 808 1278 793 1278 l 1081 1278 q 1099 1270 1093 1278 q 1101 1250 1104 1263 q 1090 1233 1100 1240 l 851 1065 q 824 1049 838 1056 q 788 1042 810 1042 l 583 1042 z "},"Ŵ":{"ha":1188,"x_min":90,"x_max":1264,"o":"m 144 0 q 103 17 117 0 q 92 53 90 35 l 138 938 q 151 962 139 951 q 176 972 163 972 l 428 972 q 462 964 451 972 q 469 935 472 956 l 433 543 l 526 717 q 544 742 532 726 q 582 757 557 757 l 724 757 q 755 742 749 757 q 763 717 761 726 l 783 544 l 914 935 q 972 972 926 972 l 1238 972 q 1258 961 1251 972 q 1260 938 1264 950 l 958 53 q 932 17 953 35 q 883 0 911 0 l 685 0 q 647 15 657 0 q 635 38 638 29 l 561 322 l 407 38 q 387 15 403 29 q 343 0 371 0 l 144 0 m 417 1042 q 399 1064 394 1042 q 410 1082 401 1075 l 601 1251 q 631 1272 618 1267 q 658 1278 643 1278 l 839 1278 q 865 1272 854 1278 q 885 1251 875 1267 l 1004 1082 q 1007 1064 1010 1075 q 981 1042 1003 1042 l 893 1042 q 866 1043 879 1042 q 839 1051 853 1044 l 724 1110 l 583 1051 q 554 1044 568 1046 q 526 1042 540 1042 l 417 1042 z "},"Ẅ":{"ha":1188,"x_min":90,"x_max":1264,"o":"m 144 0 q 103 17 117 0 q 92 53 90 35 l 138 938 q 151 962 139 951 q 176 972 163 972 l 428 972 q 462 964 451 972 q 469 935 472 956 l 433 543 l 526 717 q 544 742 532 726 q 582 757 557 757 l 724 757 q 755 742 749 757 q 763 717 761 726 l 783 544 l 914 935 q 972 972 926 972 l 1238 972 q 1258 961 1251 972 q 1260 938 1264 950 l 958 53 q 932 17 953 35 q 883 0 911 0 l 685 0 q 647 15 657 0 q 635 38 638 29 l 561 322 l 407 38 q 387 15 403 29 q 343 0 371 0 l 144 0 m 811 1042 q 790 1051 797 1042 q 786 1074 783 1060 l 822 1246 q 836 1269 825 1260 q 861 1278 847 1278 l 1033 1278 q 1054 1269 1047 1278 q 1058 1246 1061 1260 l 1022 1074 q 1008 1051 1019 1060 q 983 1042 997 1042 l 811 1042 m 438 1042 q 417 1051 424 1042 q 413 1074 410 1060 l 449 1246 q 463 1269 451 1260 q 488 1278 474 1278 l 660 1278 q 681 1269 674 1278 q 685 1246 688 1260 l 649 1074 q 635 1051 646 1060 q 610 1042 624 1042 l 438 1042 z "},"Ẁ":{"ha":1188,"x_min":90,"x_max":1264,"o":"m 144 0 q 103 17 117 0 q 92 53 90 35 l 138 938 q 151 962 139 951 q 176 972 163 972 l 428 972 q 462 964 451 972 q 469 935 472 956 l 433 543 l 526 717 q 544 742 532 726 q 582 757 557 757 l 724 757 q 755 742 749 757 q 763 717 761 726 l 783 544 l 914 935 q 972 972 926 972 l 1238 972 q 1258 961 1251 972 q 1260 938 1264 950 l 958 53 q 932 17 953 35 q 883 0 911 0 l 685 0 q 647 15 657 0 q 635 38 638 29 l 561 322 l 407 38 q 387 15 403 29 q 343 0 371 0 l 144 0 m 625 1042 q 592 1049 603 1042 q 572 1065 582 1056 l 403 1233 q 400 1250 397 1239 q 432 1278 404 1278 l 690 1278 q 715 1274 706 1278 q 736 1251 725 1269 l 839 1082 q 842 1064 844 1075 q 815 1042 838 1042 l 625 1042 z "},"X":{"ha":1025,"x_min":-83,"x_max":1131,"o":"m -54 0 q -78 16 -72 0 q -71 46 -83 32 l 342 501 l 131 926 q 134 957 124 942 q 167 972 144 972 l 440 972 q 478 958 468 972 q 492 938 489 944 l 582 754 l 736 938 q 759 958 743 944 q 801 972 775 972 l 1103 972 q 1126 956 1122 972 q 1119 926 1131 939 l 729 460 l 935 46 q 932 15 942 31 q 899 0 922 0 l 626 0 q 589 13 600 0 q 575 32 578 26 l 490 200 l 339 32 q 319 13 335 26 q 276 0 304 0 l -54 0 z "},"Y":{"ha":985,"x_min":111,"x_max":1099,"o":"m 269 0 q 245 11 254 0 q 239 38 236 22 l 297 311 l 117 929 q 123 959 111 946 q 153 972 135 972 l 400 972 q 439 958 428 972 q 451 938 450 944 l 531 658 l 729 938 q 750 958 733 944 q 794 972 767 972 l 1069 972 q 1094 957 1089 972 q 1089 929 1099 942 l 644 311 l 586 38 q 570 11 583 22 q 542 0 557 0 l 269 0 z "},"Ý":{"ha":985,"x_min":111,"x_max":1099,"o":"m 269 0 q 245 11 254 0 q 239 38 236 22 l 297 311 l 117 929 q 123 959 111 946 q 153 972 135 972 l 400 972 q 439 958 428 972 q 451 938 450 944 l 531 658 l 729 938 q 750 958 733 944 q 794 972 767 972 l 1069 972 q 1094 957 1089 972 q 1089 929 1099 942 l 644 311 l 586 38 q 570 11 583 22 q 542 0 557 0 l 269 0 m 481 1042 q 463 1064 458 1042 q 474 1082 465 1075 l 649 1251 q 679 1274 668 1269 q 706 1278 690 1278 l 978 1278 q 996 1270 990 1278 q 999 1250 1001 1263 q 988 1233 997 1240 l 749 1065 q 721 1049 735 1056 q 685 1042 707 1042 l 481 1042 z "},"Ŷ":{"ha":985,"x_min":111,"x_max":1099,"o":"m 269 0 q 245 11 254 0 q 239 38 236 22 l 297 311 l 117 929 q 123 959 111 946 q 153 972 135 972 l 400 972 q 439 958 428 972 q 451 938 450 944 l 531 658 l 729 938 q 750 958 733 944 q 794 972 767 972 l 1069 972 q 1094 957 1089 972 q 1089 929 1099 942 l 644 311 l 586 38 q 570 11 583 22 q 542 0 557 0 l 269 0 m 314 1042 q 296 1064 292 1042 q 307 1082 299 1075 l 499 1251 q 528 1272 515 1267 q 556 1278 540 1278 l 736 1278 q 762 1272 751 1278 q 782 1251 772 1267 l 901 1082 q 904 1064 907 1075 q 878 1042 900 1042 l 790 1042 q 763 1043 776 1042 q 736 1051 750 1044 l 621 1110 l 481 1051 q 451 1044 465 1046 q 424 1042 438 1042 l 314 1042 z "},"Ÿ":{"ha":985,"x_min":111,"x_max":1099,"o":"m 269 0 q 245 11 254 0 q 239 38 236 22 l 297 311 l 117 929 q 123 959 111 946 q 153 972 135 972 l 400 972 q 439 958 428 972 q 451 938 450 944 l 531 658 l 729 938 q 750 958 733 944 q 794 972 767 972 l 1069 972 q 1094 957 1089 972 q 1089 929 1099 942 l 644 311 l 586 38 q 570 11 583 22 q 542 0 557 0 l 269 0 m 708 1042 q 688 1051 694 1042 q 683 1074 681 1060 l 719 1246 q 733 1269 722 1260 q 758 1278 744 1278 l 931 1278 q 951 1269 944 1278 q 956 1246 958 1260 l 919 1074 q 906 1051 917 1060 q 881 1042 894 1042 l 708 1042 m 335 1042 q 314 1051 321 1042 q 310 1074 307 1060 l 346 1246 q 360 1269 349 1260 q 385 1278 371 1278 l 557 1278 q 578 1269 571 1278 q 582 1246 585 1260 l 546 1074 q 532 1051 543 1060 q 507 1042 521 1042 l 335 1042 z "},"Ỳ":{"ha":985,"x_min":111,"x_max":1099,"o":"m 269 0 q 245 11 254 0 q 239 38 236 22 l 297 311 l 117 929 q 123 959 111 946 q 153 972 135 972 l 400 972 q 439 958 428 972 q 451 938 450 944 l 531 658 l 729 938 q 750 958 733 944 q 794 972 767 972 l 1069 972 q 1094 957 1089 972 q 1089 929 1099 942 l 644 311 l 586 38 q 570 11 583 22 q 542 0 557 0 l 269 0 m 522 1042 q 490 1049 500 1042 q 469 1065 479 1056 l 300 1233 q 297 1250 294 1239 q 329 1278 301 1278 l 588 1278 q 613 1274 603 1278 q 633 1251 622 1269 l 736 1082 q 739 1064 742 1075 q 713 1042 735 1042 l 522 1042 z "},"Z":{"ha":961,"x_min":-35,"x_max":1013,"o":"m -1 0 q -26 11 -17 0 q -32 38 -35 22 l 11 238 q 26 269 15 257 q 42 286 36 281 l 503 690 l 158 690 q 135 701 143 690 q 129 728 126 713 l 174 935 q 190 961 176 950 q 218 972 203 972 l 979 972 q 1003 961 994 972 q 1010 935 1013 950 l 967 738 q 956 713 964 724 q 939 692 949 701 l 499 285 l 851 285 q 876 274 867 285 q 881 247 885 263 l 836 38 q 820 11 833 22 q 792 0 807 0 l -1 0 z "},"Ź":{"ha":961,"x_min":-35,"x_max":1015,"o":"m -1 0 q -26 11 -17 0 q -32 38 -35 22 l 11 238 q 26 269 15 257 q 42 286 36 281 l 503 690 l 158 690 q 135 701 143 690 q 129 728 126 713 l 174 935 q 190 961 176 950 q 218 972 203 972 l 979 972 q 1003 961 994 972 q 1010 935 1013 950 l 967 738 q 956 713 964 724 q 939 692 949 701 l 499 285 l 851 285 q 876 274 867 285 q 881 247 885 263 l 836 38 q 820 11 833 22 q 792 0 807 0 l -1 0 m 494 1042 q 476 1064 472 1042 q 488 1082 479 1075 l 663 1251 q 693 1274 682 1269 q 719 1278 704 1278 l 992 1278 q 1010 1270 1004 1278 q 1013 1250 1015 1263 q 1001 1233 1011 1240 l 763 1065 q 735 1049 749 1056 q 699 1042 721 1042 l 494 1042 z "},"Ž":{"ha":961,"x_min":-35,"x_max":1013,"o":"m -1 0 q -26 11 -17 0 q -32 38 -35 22 l 11 238 q 26 269 15 257 q 42 286 36 281 l 503 690 l 158 690 q 135 701 143 690 q 129 728 126 713 l 174 935 q 190 961 176 950 q 218 972 203 972 l 979 972 q 1003 961 994 972 q 1010 935 1013 950 l 967 738 q 956 713 964 724 q 939 692 949 701 l 499 285 l 851 285 q 876 274 867 285 q 881 247 885 263 l 836 38 q 820 11 833 22 q 792 0 807 0 l -1 0 m 529 1042 q 504 1048 514 1042 q 483 1068 494 1054 l 364 1238 q 361 1256 358 1244 q 388 1278 365 1278 l 475 1278 q 502 1276 489 1278 q 529 1268 515 1275 l 644 1210 l 785 1268 q 814 1276 800 1275 q 842 1278 828 1278 l 951 1278 q 969 1256 974 1278 q 958 1238 967 1244 l 767 1068 q 738 1048 750 1054 q 710 1042 725 1042 l 529 1042 z "},"Ż":{"ha":961,"x_min":-35,"x_max":1013,"o":"m -1 0 q -26 11 -17 0 q -32 38 -35 22 l 11 238 q 26 269 15 257 q 42 286 36 281 l 503 690 l 158 690 q 135 701 143 690 q 129 728 126 713 l 174 935 q 190 961 176 950 q 218 972 203 972 l 979 972 q 1003 961 994 972 q 1010 935 1013 950 l 967 738 q 956 713 964 724 q 939 692 949 701 l 499 285 l 851 285 q 876 274 867 285 q 881 247 885 263 l 836 38 q 820 11 833 22 q 792 0 807 0 l -1 0 m 525 1042 q 504 1051 511 1042 q 500 1074 497 1060 l 540 1263 q 554 1285 543 1276 q 579 1294 565 1294 l 768 1294 q 789 1285 782 1294 q 793 1263 796 1276 l 753 1074 q 739 1051 750 1060 q 714 1042 728 1042 l 525 1042 z "},"a":{"ha":917,"x_min":7,"x_max":915,"o":"m 261 -14 q 151 3 201 -14 q 66 59 100 21 q 19 158 32 97 q 21 307 7 219 q 33 363 28 339 q 44 417 38 386 q 100 559 65 499 q 181 658 135 619 q 285 717 228 697 q 407 736 342 736 q 529 717 486 736 q 599 667 572 697 l 603 685 q 619 711 606 700 q 647 722 632 722 l 882 722 q 906 711 897 722 q 913 685 915 700 l 775 38 q 759 11 772 22 q 731 0 746 0 l 494 0 q 470 11 479 0 q 464 38 461 22 l 471 69 q 381 9 429 32 q 261 -14 333 -14 m 415 235 q 458 244 442 235 q 485 272 475 254 q 503 315 496 290 q 515 367 511 347 q 524 418 519 388 q 524 456 528 440 q 506 479 519 471 q 469 488 493 488 q 428 478 444 488 q 401 450 411 468 q 383 407 392 432 q 372 361 378 386 q 364 315 367 336 q 363 272 361 290 q 378 244 365 254 q 415 235 390 235 z "},"á":{"ha":917,"x_min":7,"x_max":940,"o":"m 261 -14 q 151 3 201 -14 q 66 59 100 21 q 19 158 32 97 q 21 307 7 219 q 33 363 28 339 q 44 417 38 386 q 100 559 65 499 q 181 658 135 619 q 285 717 228 697 q 407 736 342 736 q 529 717 486 736 q 599 667 572 697 l 603 685 q 619 711 606 700 q 647 722 632 722 l 882 722 q 906 711 897 722 q 913 685 915 700 l 775 38 q 759 11 772 22 q 731 0 746 0 l 494 0 q 470 11 479 0 q 464 38 461 22 l 471 69 q 381 9 429 32 q 261 -14 333 -14 m 415 235 q 458 244 442 235 q 485 272 475 254 q 503 315 496 290 q 515 367 511 347 q 524 418 519 388 q 524 456 528 440 q 506 479 519 471 q 469 488 493 488 q 428 478 444 488 q 401 450 411 468 q 383 407 392 432 q 372 361 378 386 q 364 315 367 336 q 363 272 361 290 q 378 244 365 254 q 415 235 390 235 m 432 826 q 414 849 410 826 q 425 867 417 860 l 600 1036 q 631 1058 619 1054 q 657 1063 642 1063 l 915 1063 q 936 1035 940 1063 q 925 1018 935 1025 l 686 850 q 658 833 672 840 q 622 826 644 826 l 432 826 z "},"ă":{"ha":917,"x_min":7,"x_max":915,"o":"m 261 -14 q 151 3 201 -14 q 66 59 100 21 q 19 158 32 97 q 21 307 7 219 q 33 363 28 339 q 44 417 38 386 q 100 559 65 499 q 181 658 135 619 q 285 717 228 697 q 407 736 342 736 q 529 717 486 736 q 599 667 572 697 l 603 685 q 619 711 606 700 q 647 722 632 722 l 882 722 q 906 711 897 722 q 913 685 915 700 l 775 38 q 759 11 772 22 q 731 0 746 0 l 494 0 q 470 11 479 0 q 464 38 461 22 l 471 69 q 381 9 429 32 q 261 -14 333 -14 m 415 235 q 458 244 442 235 q 485 272 475 254 q 503 315 496 290 q 515 367 511 347 q 524 418 519 388 q 524 456 528 440 q 506 479 519 471 q 469 488 493 488 q 428 478 444 488 q 401 450 411 468 q 383 407 392 432 q 372 361 378 386 q 364 315 367 336 q 363 272 361 290 q 378 244 365 254 q 415 235 390 235 m 557 819 q 436 848 488 819 q 361 925 385 876 q 350 1036 338 974 q 361 1055 353 1047 q 382 1063 369 1063 l 513 1063 q 531 1055 525 1063 q 533 1036 536 1047 q 535 983 528 1006 q 572 960 542 960 q 622 983 604 960 q 644 1036 639 1006 q 656 1055 647 1047 q 676 1063 664 1063 l 807 1063 q 825 1055 819 1063 q 828 1036 831 1047 q 783 925 815 974 q 696 848 751 876 q 557 819 640 819 z "},"â":{"ha":917,"x_min":7,"x_max":915,"o":"m 261 -14 q 151 3 201 -14 q 66 59 100 21 q 19 158 32 97 q 21 307 7 219 q 33 363 28 339 q 44 417 38 386 q 100 559 65 499 q 181 658 135 619 q 285 717 228 697 q 407 736 342 736 q 529 717 486 736 q 599 667 572 697 l 603 685 q 619 711 606 700 q 647 722 632 722 l 882 722 q 906 711 897 722 q 913 685 915 700 l 775 38 q 759 11 772 22 q 731 0 746 0 l 494 0 q 470 11 479 0 q 464 38 461 22 l 471 69 q 381 9 429 32 q 261 -14 333 -14 m 415 235 q 458 244 442 235 q 485 272 475 254 q 503 315 496 290 q 515 367 511 347 q 524 418 519 388 q 524 456 528 440 q 506 479 519 471 q 469 488 493 488 q 428 478 444 488 q 401 450 411 468 q 383 407 392 432 q 372 361 378 386 q 364 315 367 336 q 363 272 361 290 q 378 244 365 254 q 415 235 390 235 m 267 826 q 249 849 244 826 q 260 867 251 860 l 451 1036 q 481 1057 468 1051 q 508 1063 493 1063 l 675 1063 q 701 1057 690 1063 q 721 1036 711 1051 l 840 867 q 843 849 846 860 q 817 826 839 826 l 736 826 q 709 828 722 826 q 682 836 696 829 l 567 894 l 426 836 q 397 828 411 829 q 369 826 383 826 l 267 826 z "},"ä":{"ha":917,"x_min":7,"x_max":915,"o":"m 261 -14 q 151 3 201 -14 q 66 59 100 21 q 19 158 32 97 q 21 307 7 219 q 33 363 28 339 q 44 417 38 386 q 100 559 65 499 q 181 658 135 619 q 285 717 228 697 q 407 736 342 736 q 529 717 486 736 q 599 667 572 697 l 603 685 q 619 711 606 700 q 647 722 632 722 l 882 722 q 906 711 897 722 q 913 685 915 700 l 775 38 q 759 11 772 22 q 731 0 746 0 l 494 0 q 470 11 479 0 q 464 38 461 22 l 471 69 q 381 9 429 32 q 261 -14 333 -14 m 415 235 q 458 244 442 235 q 485 272 475 254 q 503 315 496 290 q 515 367 511 347 q 524 418 519 388 q 524 456 528 440 q 506 479 519 471 q 469 488 493 488 q 428 478 444 488 q 401 450 411 468 q 383 407 392 432 q 372 361 378 386 q 364 315 367 336 q 363 272 361 290 q 378 244 365 254 q 415 235 390 235 m 625 826 q 604 835 611 826 q 600 858 597 844 l 636 1031 q 650 1053 639 1044 q 675 1063 661 1063 l 847 1063 q 868 1053 861 1063 q 872 1031 875 1044 l 836 858 q 822 835 833 844 q 797 826 811 826 l 625 826 m 293 826 q 272 835 279 826 q 268 858 265 844 l 304 1031 q 318 1053 307 1044 q 343 1063 329 1063 l 515 1063 q 536 1053 529 1063 q 540 1031 543 1044 l 504 858 q 490 835 501 844 q 465 826 479 826 l 293 826 z "},"à":{"ha":917,"x_min":7,"x_max":915,"o":"m 261 -14 q 151 3 201 -14 q 66 59 100 21 q 19 158 32 97 q 21 307 7 219 q 33 363 28 339 q 44 417 38 386 q 100 559 65 499 q 181 658 135 619 q 285 717 228 697 q 407 736 342 736 q 529 717 486 736 q 599 667 572 697 l 603 685 q 619 711 606 700 q 647 722 632 722 l 882 722 q 906 711 897 722 q 913 685 915 700 l 775 38 q 759 11 772 22 q 731 0 746 0 l 494 0 q 470 11 479 0 q 464 38 461 22 l 471 69 q 381 9 429 32 q 261 -14 333 -14 m 415 235 q 458 244 442 235 q 485 272 475 254 q 503 315 496 290 q 515 367 511 347 q 524 418 519 388 q 524 456 528 440 q 506 479 519 471 q 469 488 493 488 q 428 478 444 488 q 401 450 411 468 q 383 407 392 432 q 372 361 378 386 q 364 315 367 336 q 363 272 361 290 q 378 244 365 254 q 415 235 390 235 m 469 826 q 437 833 447 826 q 417 850 426 840 l 247 1018 q 244 1035 243 1025 q 276 1063 249 1063 l 549 1063 q 574 1058 564 1063 q 594 1036 583 1054 l 697 867 q 700 849 703 860 q 674 826 696 826 l 469 826 z "},"ā":{"ha":917,"x_min":7,"x_max":915,"o":"m 261 -14 q 151 3 201 -14 q 66 59 100 21 q 19 158 32 97 q 21 307 7 219 q 33 363 28 339 q 44 417 38 386 q 100 559 65 499 q 181 658 135 619 q 285 717 228 697 q 407 736 342 736 q 529 717 486 736 q 599 667 572 697 l 603 685 q 619 711 606 700 q 647 722 632 722 l 882 722 q 906 711 897 722 q 913 685 915 700 l 775 38 q 759 11 772 22 q 731 0 746 0 l 494 0 q 470 11 479 0 q 464 38 461 22 l 471 69 q 381 9 429 32 q 261 -14 333 -14 m 415 235 q 458 244 442 235 q 485 272 475 254 q 503 315 496 290 q 515 367 511 347 q 524 418 519 388 q 524 456 528 440 q 506 479 519 471 q 469 488 493 488 q 428 478 444 488 q 401 450 411 468 q 383 407 392 432 q 372 361 378 386 q 364 315 367 336 q 363 272 361 290 q 378 244 365 254 q 415 235 390 235 m 314 826 q 293 835 300 826 q 289 858 286 844 l 319 1003 q 333 1026 322 1017 q 358 1035 344 1035 l 813 1035 q 833 1026 826 1035 q 838 1003 840 1017 l 807 858 q 793 835 804 844 q 768 826 782 826 l 314 826 z "},"ą":{"ha":918,"x_min":7,"x_max":915,"o":"m 660 -306 q 510 -257 556 -306 q 465 -135 465 -208 q 474 -74 465 -108 q 496 -8 482 -39 q 524 39 510 24 l 531 0 l 500 0 q 469 11 479 0 q 465 46 460 22 l 471 69 q 381 9 429 32 q 261 -14 333 -14 q 151 3 201 -14 q 66 59 100 21 q 19 158 32 97 q 21 307 7 219 q 33 363 28 339 q 44 417 38 386 q 100 559 65 499 q 181 658 135 619 q 285 717 228 697 q 407 736 342 736 q 529 717 486 736 q 599 667 572 697 l 603 685 q 619 711 606 700 q 647 722 632 722 l 882 722 q 906 711 897 722 q 913 685 915 700 l 775 38 q 759 11 772 22 q 731 0 746 0 l 722 0 q 666 -27 688 0 q 644 -86 644 -54 q 657 -120 644 -104 q 701 -136 669 -136 l 715 -136 q 740 -147 731 -136 q 746 -174 749 -158 l 725 -268 q 708 -294 722 -283 q 679 -306 694 -306 l 660 -306 m 415 235 q 458 244 442 235 q 485 272 475 254 q 503 315 496 290 q 515 367 511 347 q 524 418 519 388 q 525 448 526 435 q 517 469 524 461 q 499 483 511 478 q 469 488 488 488 q 428 478 444 488 q 401 450 411 468 q 383 407 392 432 q 372 361 378 386 q 364 315 367 336 q 363 282 363 297 q 368 256 363 267 q 385 240 374 246 q 415 235 396 235 z "},"å":{"ha":917,"x_min":7,"x_max":915,"o":"m 261 -14 q 151 3 201 -14 q 66 59 100 21 q 19 158 32 97 q 21 307 7 219 q 33 363 28 339 q 44 417 38 386 q 100 559 65 499 q 181 658 135 619 q 285 717 228 697 q 407 736 342 736 q 529 717 486 736 q 599 667 572 697 l 603 685 q 619 711 606 700 q 647 722 632 722 l 882 722 q 906 711 897 722 q 913 685 915 700 l 775 38 q 759 11 772 22 q 731 0 746 0 l 494 0 q 470 11 479 0 q 464 38 461 22 l 471 69 q 381 9 429 32 q 261 -14 333 -14 m 415 235 q 458 244 442 235 q 485 272 475 254 q 503 315 496 290 q 515 367 511 347 q 524 418 519 388 q 524 456 528 440 q 506 479 519 471 q 469 488 493 488 q 428 478 444 488 q 401 450 411 468 q 383 407 392 432 q 372 361 378 386 q 364 315 367 336 q 363 272 361 290 q 378 244 365 254 q 415 235 390 235 m 536 819 q 446 857 479 819 q 425 951 413 894 q 486 1046 438 1008 q 592 1083 535 1083 q 682 1046 649 1083 q 703 951 715 1008 q 642 857 690 894 q 536 819 593 819 m 556 910 q 588 922 574 910 q 606 951 601 933 q 600 981 610 969 q 572 993 590 993 q 540 981 554 993 q 522 951 526 969 q 528 922 518 933 q 556 910 538 910 z "},"ã":{"ha":917,"x_min":7,"x_max":915,"o":"m 261 -14 q 151 3 201 -14 q 66 59 100 21 q 19 158 32 97 q 21 307 7 219 q 33 363 28 339 q 44 417 38 386 q 100 559 65 499 q 181 658 135 619 q 285 717 228 697 q 407 736 342 736 q 529 717 486 736 q 599 667 572 697 l 603 685 q 619 711 606 700 q 647 722 632 722 l 882 722 q 906 711 897 722 q 913 685 915 700 l 775 38 q 759 11 772 22 q 731 0 746 0 l 494 0 q 470 11 479 0 q 464 38 461 22 l 471 69 q 381 9 429 32 q 261 -14 333 -14 m 415 235 q 458 244 442 235 q 485 272 475 254 q 503 315 496 290 q 515 367 511 347 q 524 418 519 388 q 524 456 528 440 q 506 479 519 471 q 469 488 493 488 q 428 478 444 488 q 401 450 411 468 q 383 407 392 432 q 372 361 378 386 q 364 315 367 336 q 363 272 361 290 q 378 244 365 254 q 415 235 390 235 m 663 819 q 594 832 621 819 q 545 857 567 844 q 496 869 524 869 q 463 859 475 869 q 442 838 451 849 q 417 826 432 826 l 300 826 q 284 834 290 826 q 279 851 278 842 q 299 912 285 875 q 338 985 313 949 q 403 1045 363 1021 q 500 1069 443 1069 q 569 1057 542 1069 q 619 1032 596 1044 q 668 1019 642 1019 q 700 1031 689 1019 q 721 1052 711 1042 q 746 1063 731 1063 l 863 1063 q 881 1055 875 1063 q 883 1036 886 1047 q 864 976 878 1013 q 824 904 850 940 q 759 844 799 868 q 663 819 719 819 z "},"æ":{"ha":1299,"x_min":-12,"x_max":1283,"o":"m 250 -14 q 95 15 156 -14 q 11 94 35 44 q 0 207 -12 144 q 117 366 21 308 q 356 447 213 424 l 507 471 l 508 475 q 512 526 515 511 q 481 542 508 542 q 442 531 457 542 q 412 508 426 519 q 375 497 397 497 q 373 497 374 497 q 371 497 372 497 l 139 497 q 119 506 125 497 q 115 528 113 514 q 149 590 121 554 q 228 658 178 625 q 353 714 279 692 q 525 736 428 736 q 653 723 603 736 q 732 685 703 710 q 838 722 782 708 q 956 736 894 736 q 1097 717 1038 736 q 1196 662 1157 697 q 1256 579 1235 626 q 1280 476 1276 532 q 1271 358 1283 419 l 1263 317 q 1246 290 1260 301 q 1217 279 1232 279 l 803 279 l 801 272 q 797 226 796 244 q 808 197 799 207 q 838 188 818 188 q 860 194 850 188 q 883 213 869 201 q 908 228 899 225 q 933 232 917 232 l 1196 232 q 1216 224 1210 232 q 1219 201 1222 215 q 1183 138 1214 175 q 1099 67 1153 101 q 969 9 1046 32 q 797 -14 893 -14 q 648 8 713 -14 q 542 71 583 29 q 389 1 467 17 q 250 -14 311 -14 m 363 192 q 413 203 390 192 q 451 238 435 214 q 475 299 468 263 l 475 300 l 389 282 q 335 260 351 274 q 317 231 319 246 q 319 212 315 221 q 335 197 324 203 q 363 192 346 192 m 840 453 l 951 453 l 951 458 q 949 506 951 488 q 940 533 947 525 q 914 542 932 542 q 879 533 896 542 q 851 506 863 525 q 840 458 840 488 l 840 453 z "},"ǽ":{"ha":1299,"x_min":-12,"x_max":1283,"o":"m 250 -14 q 95 15 156 -14 q 11 94 35 44 q 0 207 -12 144 q 117 366 21 308 q 356 447 213 424 l 507 471 l 508 475 q 512 526 515 511 q 481 542 508 542 q 442 531 457 542 q 412 508 426 519 q 375 497 397 497 q 373 497 374 497 q 371 497 372 497 l 139 497 q 119 506 125 497 q 115 528 113 514 q 149 590 121 554 q 228 658 178 625 q 353 714 279 692 q 525 736 428 736 q 653 723 603 736 q 732 685 703 710 q 838 722 782 708 q 956 736 894 736 q 1097 717 1038 736 q 1196 662 1157 697 q 1256 579 1235 626 q 1280 476 1276 532 q 1271 358 1283 419 l 1263 317 q 1246 290 1260 301 q 1217 279 1232 279 l 803 279 l 801 272 q 797 226 796 244 q 808 197 799 207 q 838 188 818 188 q 860 194 850 188 q 883 213 869 201 q 908 228 899 225 q 933 232 917 232 l 1196 232 q 1216 224 1210 232 q 1219 201 1222 215 q 1183 138 1214 175 q 1099 67 1153 101 q 969 9 1046 32 q 797 -14 893 -14 q 648 8 713 -14 q 542 71 583 29 q 389 1 467 17 q 250 -14 311 -14 m 363 192 q 413 203 390 192 q 451 238 435 214 q 475 299 468 263 l 475 300 l 389 282 q 335 260 351 274 q 317 231 319 246 q 319 212 315 221 q 335 197 324 203 q 363 192 346 192 m 840 453 l 951 453 l 951 458 q 949 506 951 488 q 940 533 947 525 q 914 542 932 542 q 879 533 896 542 q 851 506 863 525 q 840 458 840 488 l 840 453 m 640 826 q 622 849 618 826 q 633 867 625 860 l 808 1036 q 839 1058 828 1054 q 865 1063 850 1063 l 1124 1063 q 1144 1035 1149 1063 q 1133 1018 1143 1025 l 894 850 q 867 833 881 840 q 831 826 853 826 l 640 826 z "},"b":{"ha":917,"x_min":-19,"x_max":890,"o":"m 503 -14 q 378 9 431 -14 q 301 69 326 32 l 294 38 q 278 11 292 22 q 250 0 265 0 l 14 0 q -10 11 -1 0 q -17 38 -19 22 l 178 949 q 194 975 181 964 q 222 986 207 986 l 479 986 q 503 975 494 986 q 510 949 513 964 l 450 671 q 533 719 490 701 q 635 736 576 736 q 746 717 696 736 q 830 658 796 697 q 877 559 864 619 q 875 417 890 499 q 865 363 869 386 q 851 307 860 339 q 771 121 822 192 q 651 18 719 50 q 503 -14 583 -14 m 426 235 q 469 244 453 235 q 495 272 485 254 q 514 315 506 290 q 526 361 521 336 q 533 407 532 386 q 533 450 536 432 q 519 478 531 468 q 481 488 507 488 q 440 479 457 488 q 413 456 424 471 q 396 418 403 440 q 383 367 388 388 q 375 315 379 347 q 374 272 371 290 q 389 244 376 254 q 426 235 401 235 z "},"c":{"ha":863,"x_min":1,"x_max":851,"o":"m 351 -14 q 170 23 253 -14 q 44 131 88 60 q 17 304 1 201 q 28 360 21 326 q 40 417 35 393 q 197 653 81 571 q 483 736 314 736 q 660 705 588 736 q 774 628 732 674 q 834 539 817 583 q 847 467 851 494 q 831 440 846 451 q 801 429 817 429 l 531 429 q 508 437 515 429 q 496 457 500 444 q 483 488 490 476 q 454 499 475 499 q 406 475 422 499 q 379 410 390 451 q 367 355 372 379 q 358 311 361 331 q 358 245 351 267 q 396 224 364 224 q 432 235 421 224 q 456 265 443 246 q 475 285 464 278 q 501 293 486 293 l 772 293 q 797 282 788 293 q 803 256 807 271 q 769 190 796 233 q 691 99 743 146 q 556 19 639 51 q 351 -14 472 -14 z "},"ć":{"ha":863,"x_min":1,"x_max":906,"o":"m 351 -14 q 170 23 253 -14 q 44 131 88 60 q 17 304 1 201 q 28 360 21 326 q 40 417 35 393 q 197 653 81 571 q 483 736 314 736 q 660 705 588 736 q 774 628 732 674 q 834 539 817 583 q 847 467 851 494 q 831 440 846 451 q 801 429 817 429 l 531 429 q 508 437 515 429 q 496 457 500 444 q 483 488 490 476 q 454 499 475 499 q 406 475 422 499 q 379 410 390 451 q 367 355 372 379 q 358 311 361 331 q 358 245 351 267 q 396 224 364 224 q 432 235 421 224 q 456 265 443 246 q 475 285 464 278 q 501 293 486 293 l 772 293 q 797 282 788 293 q 803 256 807 271 q 769 190 796 233 q 691 99 743 146 q 556 19 639 51 q 351 -14 472 -14 m 397 826 q 379 849 375 826 q 390 867 382 860 l 565 1036 q 596 1058 585 1054 q 622 1063 607 1063 l 881 1063 q 901 1035 906 1063 q 890 1018 900 1025 l 651 850 q 624 833 638 840 q 588 826 610 826 l 397 826 z "},"č":{"ha":863,"x_min":1,"x_max":857,"o":"m 351 -14 q 170 23 253 -14 q 44 131 88 60 q 17 304 1 201 q 28 360 21 326 q 40 417 35 393 q 197 653 81 571 q 483 736 314 736 q 660 705 588 736 q 774 628 732 674 q 834 539 817 583 q 847 467 851 494 q 831 440 846 451 q 801 429 817 429 l 531 429 q 508 437 515 429 q 496 457 500 444 q 483 488 490 476 q 454 499 475 499 q 406 475 422 499 q 379 410 390 451 q 367 355 372 379 q 358 311 361 331 q 358 245 351 267 q 396 224 364 224 q 432 235 421 224 q 456 265 443 246 q 475 285 464 278 q 501 293 486 293 l 772 293 q 797 282 788 293 q 803 256 807 271 q 769 190 796 233 q 691 99 743 146 q 556 19 639 51 q 351 -14 472 -14 m 426 826 q 401 833 411 826 q 381 853 392 839 l 261 1022 q 258 1040 256 1029 q 268 1057 261 1051 q 285 1063 275 1063 l 365 1063 q 392 1061 379 1063 q 419 1053 406 1060 l 535 994 l 675 1053 q 704 1061 690 1060 q 732 1063 718 1063 l 835 1063 q 853 1040 857 1063 q 842 1022 850 1029 l 650 853 q 621 833 633 839 q 593 826 608 826 l 426 826 z "},"ç":{"ha":863,"x_min":3,"x_max":851,"o":"m 300 -306 q 232 -294 264 -306 q 188 -265 200 -282 q 194 -235 175 -249 l 228 -210 q 251 -201 243 -199 q 271 -208 260 -203 q 306 -214 282 -214 q 337 -203 325 -214 q 351 -181 349 -193 q 347 -158 354 -168 q 319 -147 340 -147 q 292 -151 307 -147 q 265 -155 278 -154 q 244 -147 251 -156 l 215 -108 q 209 -88 208 -99 q 224 -58 210 -78 l 258 -4 q 122 51 182 11 q 32 154 61 90 q 17 304 3 218 q 28 360 21 326 q 40 417 35 393 q 197 653 81 571 q 483 736 314 736 q 660 705 588 736 q 774 628 732 674 q 834 539 817 583 q 847 467 851 494 q 831 440 846 451 q 801 429 817 429 l 531 429 q 508 437 515 429 q 496 457 500 444 q 483 488 490 476 q 454 499 475 499 q 406 475 422 499 q 379 410 390 451 q 367 355 372 379 q 358 311 361 331 q 358 245 351 267 q 396 224 364 224 q 432 235 421 224 q 456 265 443 246 q 475 285 464 278 q 501 293 486 293 l 772 293 q 797 282 788 293 q 803 256 807 271 q 769 190 796 233 q 692 99 743 146 q 558 20 640 53 q 356 -14 475 -12 l 321 -62 q 345 -58 331 -60 q 364 -56 360 -56 q 438 -94 417 -56 q 449 -187 460 -132 q 400 -274 438 -243 q 300 -306 363 -306 z "},"ĉ":{"ha":863,"x_min":1,"x_max":851,"o":"m 351 -14 q 170 23 253 -14 q 44 131 88 60 q 17 304 1 201 q 28 360 21 326 q 40 417 35 393 q 197 653 81 571 q 483 736 314 736 q 660 705 588 736 q 774 628 732 674 q 834 539 817 583 q 847 467 851 494 q 831 440 846 451 q 801 429 817 429 l 531 429 q 508 437 515 429 q 496 457 500 444 q 483 488 490 476 q 454 499 475 499 q 406 475 422 499 q 379 410 390 451 q 367 355 372 379 q 358 311 361 331 q 358 245 351 267 q 396 224 364 224 q 432 235 421 224 q 456 265 443 246 q 475 285 464 278 q 501 293 486 293 l 772 293 q 797 282 788 293 q 803 256 807 271 q 769 190 796 233 q 691 99 743 146 q 556 19 639 51 q 351 -14 472 -14 m 232 826 q 214 849 210 826 q 225 867 217 860 l 417 1036 q 446 1057 433 1051 q 474 1063 458 1063 l 640 1063 q 666 1057 656 1063 q 686 1036 676 1051 l 806 867 q 808 849 811 860 q 782 826 804 826 l 701 826 q 674 828 688 826 q 647 836 661 829 l 532 894 l 392 836 q 363 828 376 829 q 335 826 349 826 l 232 826 z "},"ċ":{"ha":863,"x_min":1,"x_max":851,"o":"m 351 -14 q 170 23 253 -14 q 44 131 88 60 q 17 304 1 201 q 28 360 21 326 q 40 417 35 393 q 197 653 81 571 q 483 736 314 736 q 660 705 588 736 q 774 628 732 674 q 834 539 817 583 q 847 467 851 494 q 831 440 846 451 q 801 429 817 429 l 531 429 q 508 437 515 429 q 496 457 500 444 q 483 488 490 476 q 454 499 475 499 q 406 475 422 499 q 379 410 390 451 q 367 355 372 379 q 358 311 361 331 q 358 245 351 267 q 396 224 364 224 q 432 235 421 224 q 456 265 443 246 q 475 285 464 278 q 501 293 486 293 l 772 293 q 797 282 788 293 q 803 256 807 271 q 769 190 796 233 q 691 99 743 146 q 556 19 639 51 q 351 -14 472 -14 m 418 826 q 397 835 404 826 q 393 858 390 844 l 432 1040 q 446 1063 435 1054 q 471 1072 457 1072 l 653 1072 q 674 1063 667 1072 q 678 1040 681 1054 l 639 858 q 625 835 636 844 q 600 826 614 826 l 418 826 z "},"d":{"ha":918,"x_min":7,"x_max":972,"o":"m 261 -14 q 151 3 201 -14 q 66 59 100 21 q 19 158 32 97 q 21 307 7 219 q 33 363 28 339 q 44 417 38 386 q 99 559 65 499 q 179 658 133 619 q 279 717 225 697 q 393 736 333 736 q 502 719 451 736 q 579 671 553 701 l 638 949 q 653 975 640 964 q 682 986 667 986 l 939 986 q 963 975 954 986 q 969 949 972 964 l 775 38 q 759 11 772 22 q 731 0 746 0 l 494 0 q 470 11 479 0 q 464 38 461 22 l 471 69 q 381 9 429 32 q 261 -14 333 -14 m 415 235 q 458 244 442 235 q 485 272 475 254 q 503 315 496 290 q 515 367 511 347 q 524 418 519 388 q 524 456 528 440 q 506 479 519 471 q 469 488 493 488 q 428 478 444 488 q 401 450 411 468 q 383 407 392 432 q 372 361 378 386 q 364 315 367 336 q 363 272 361 290 q 378 244 365 254 q 415 235 390 235 z "},"ð":{"ha":886,"x_min":13,"x_max":914,"o":"m 368 -14 q 165 22 247 -14 q 47 133 82 58 q 36 319 13 207 q 130 506 61 432 q 298 617 199 581 q 510 653 397 653 q 519 653 515 653 q 529 653 524 653 q 519 691 525 672 q 504 728 513 710 l 326 664 q 310 660 314 660 q 291 668 297 660 q 288 689 285 676 l 296 728 q 308 758 299 747 q 336 774 318 768 l 447 814 q 399 867 425 842 q 343 915 372 893 q 333 929 336 922 q 331 942 329 936 q 344 963 333 954 q 368 972 356 972 l 629 972 q 674 967 657 972 q 699 954 690 961 q 719 936 708 944 q 738 918 729 928 l 872 967 q 889 971 885 971 q 908 963 901 971 q 911 942 914 954 l 903 903 q 891 874 900 885 q 863 857 882 864 l 801 835 q 866 648 850 754 q 858 400 882 542 q 851 356 856 379 q 840 313 846 333 q 746 131 811 204 q 585 22 681 58 q 368 -14 489 -14 m 415 208 q 454 217 439 208 q 479 243 469 226 q 493 282 489 260 q 503 319 500 303 q 510 356 506 335 q 511 394 513 378 q 499 421 510 411 q 463 431 489 431 q 422 421 438 431 q 399 394 407 411 q 385 356 390 378 q 376 319 379 335 q 369 283 372 304 q 367 244 365 261 q 379 217 368 226 q 415 208 390 208 z "},"ď":{"ha":1154,"x_min":7,"x_max":1356,"o":"m 261 -14 q 151 3 201 -14 q 66 59 100 21 q 19 158 32 97 q 21 307 7 219 q 33 363 28 339 q 44 417 38 386 q 99 559 65 499 q 179 658 133 619 q 279 717 225 697 q 393 736 333 736 q 502 719 451 736 q 579 671 553 701 l 638 949 q 653 975 640 964 q 682 986 667 986 l 939 986 q 963 975 954 986 q 969 949 972 964 l 775 38 q 759 11 772 22 q 731 0 746 0 l 494 0 q 470 11 479 0 q 464 38 461 22 l 471 69 q 381 9 429 32 q 261 -14 333 -14 m 415 235 q 458 244 442 235 q 485 272 475 254 q 503 315 496 290 q 515 367 511 347 q 524 418 519 388 q 524 456 528 440 q 506 479 519 471 q 469 488 493 488 q 428 478 444 488 q 401 450 411 468 q 383 407 392 432 q 372 361 378 386 q 364 315 367 336 q 363 272 361 290 q 378 244 365 254 q 415 235 390 235 m 1017 708 q 997 717 1004 708 q 993 739 990 726 l 1063 932 q 1088 969 1069 951 q 1135 986 1107 986 l 1329 986 q 1349 977 1342 986 q 1353 956 1356 968 q 1351 951 1351 954 q 1349 946 1351 949 l 1232 753 q 1207 724 1224 739 q 1163 708 1190 708 l 1017 708 z "},"đ":{"ha":918,"x_min":6,"x_max":1033,"o":"m 246 -14 q 138 3 186 -14 q 58 59 89 21 q 16 158 26 97 q 19 307 6 219 q 31 363 26 339 q 43 417 36 386 q 100 559 64 499 q 185 658 136 619 q 290 717 233 697 q 406 736 346 736 q 507 719 464 736 q 576 671 550 701 l 596 761 l 554 761 q 531 772 539 761 q 525 799 522 783 l 540 869 q 556 896 543 885 q 585 907 569 907 l 626 907 l 636 949 q 652 975 639 964 q 681 986 665 986 l 938 986 q 962 975 953 986 q 968 949 971 964 l 958 907 l 1000 907 q 1024 896 1015 907 q 1031 869 1033 885 l 1015 799 q 999 772 1013 783 q 969 761 985 761 l 928 761 l 774 38 q 758 11 771 22 q 729 0 744 0 l 493 0 q 469 11 478 0 q 463 38 460 22 l 472 79 q 375 13 432 39 q 246 -14 318 -14 m 414 235 q 457 244 440 235 q 484 272 474 254 q 501 315 494 290 q 514 367 510 347 q 522 418 518 388 q 522 456 526 440 q 505 479 518 471 q 468 488 492 488 q 426 478 443 488 q 400 450 410 468 q 382 407 390 432 q 371 361 376 386 q 363 315 365 336 q 362 272 360 290 q 376 244 364 254 q 414 235 389 235 z "},"e":{"ha":863,"x_min":21,"x_max":860,"o":"m 365 -14 q 163 26 244 -14 q 51 148 82 65 q 47 360 21 231 q 49 365 49 363 q 50 369 49 368 q 144 571 78 489 q 308 694 210 653 q 524 736 406 736 q 735 684 660 736 q 835 547 811 632 q 839 358 860 461 l 831 317 q 814 290 828 301 q 785 279 800 279 l 371 279 q 370 276 371 278 q 369 272 369 275 q 365 226 364 244 q 376 197 365 207 q 406 188 386 188 q 421 190 414 188 q 435 199 428 193 q 451 213 442 206 q 476 228 467 225 q 501 232 485 232 l 764 232 q 785 224 778 232 q 788 201 792 215 q 750 138 781 175 q 666 67 719 101 q 537 9 613 32 q 365 -14 461 -14 m 408 453 l 519 453 l 519 454 q 524 504 526 485 q 510 533 521 524 q 482 542 500 542 q 449 533 464 542 q 425 504 435 524 q 408 454 415 485 l 408 453 z "},"é":{"ha":863,"x_min":21,"x_max":926,"o":"m 365 -14 q 163 26 244 -14 q 51 148 82 65 q 47 360 21 231 q 49 365 49 363 q 50 369 49 368 q 144 571 78 489 q 308 694 210 653 q 524 736 406 736 q 735 684 660 736 q 835 547 811 632 q 839 358 860 461 l 831 317 q 814 290 828 301 q 785 279 800 279 l 371 279 q 370 276 371 278 q 369 272 369 275 q 365 226 364 244 q 376 197 365 207 q 406 188 386 188 q 421 190 414 188 q 435 199 428 193 q 451 213 442 206 q 476 228 467 225 q 501 232 485 232 l 764 232 q 785 224 778 232 q 788 201 792 215 q 750 138 781 175 q 666 67 719 101 q 537 9 613 32 q 365 -14 461 -14 m 408 453 l 519 453 l 519 454 q 524 504 526 485 q 510 533 521 524 q 482 542 500 542 q 449 533 464 542 q 425 504 435 524 q 408 454 415 485 l 408 453 m 418 826 q 400 849 396 826 q 411 867 403 860 l 586 1036 q 617 1058 606 1054 q 643 1063 628 1063 l 901 1063 q 922 1035 926 1063 q 911 1018 921 1025 l 672 850 q 644 833 658 840 q 608 826 631 826 l 418 826 z "},"ĕ":{"ha":863,"x_min":21,"x_max":860,"o":"m 365 -14 q 163 26 244 -14 q 51 148 82 65 q 47 360 21 231 q 49 365 49 363 q 50 369 49 368 q 144 571 78 489 q 308 694 210 653 q 524 736 406 736 q 735 684 660 736 q 835 547 811 632 q 839 358 860 461 l 831 317 q 814 290 828 301 q 785 279 800 279 l 371 279 q 370 276 371 278 q 369 272 369 275 q 365 226 364 244 q 376 197 365 207 q 406 188 386 188 q 421 190 414 188 q 435 199 428 193 q 451 213 442 206 q 476 228 467 225 q 501 232 485 232 l 764 232 q 785 224 778 232 q 788 201 792 215 q 750 138 781 175 q 666 67 719 101 q 537 9 613 32 q 365 -14 461 -14 m 408 453 l 519 453 l 519 454 q 524 504 526 485 q 510 533 521 524 q 482 542 500 542 q 449 533 464 542 q 425 504 435 524 q 408 454 415 485 l 408 453 m 543 819 q 422 848 474 819 q 347 925 371 876 q 336 1036 324 974 q 347 1055 339 1047 q 368 1063 356 1063 l 499 1063 q 517 1055 511 1063 q 519 1036 522 1047 q 521 983 514 1006 q 558 960 528 960 q 608 983 590 960 q 631 1036 625 1006 q 642 1055 633 1047 q 663 1063 650 1063 l 793 1063 q 811 1055 806 1063 q 814 1036 817 1047 q 769 925 801 974 q 682 848 738 876 q 543 819 626 819 z "},"ě":{"ha":863,"x_min":21,"x_max":878,"o":"m 365 -14 q 163 26 244 -14 q 51 148 82 65 q 47 360 21 231 q 49 365 49 363 q 50 369 49 368 q 144 571 78 489 q 308 694 210 653 q 524 736 406 736 q 735 684 660 736 q 835 547 811 632 q 839 358 860 461 l 831 317 q 814 290 828 301 q 785 279 800 279 l 371 279 q 370 276 371 278 q 369 272 369 275 q 365 226 364 244 q 376 197 365 207 q 406 188 386 188 q 421 190 414 188 q 435 199 428 193 q 451 213 442 206 q 476 228 467 225 q 501 232 485 232 l 764 232 q 785 224 778 232 q 788 201 792 215 q 750 138 781 175 q 666 67 719 101 q 537 9 613 32 q 365 -14 461 -14 m 408 453 l 519 453 l 519 454 q 524 504 526 485 q 510 533 521 524 q 482 542 500 542 q 449 533 464 542 q 425 504 435 524 q 408 454 415 485 l 408 453 m 447 826 q 422 833 432 826 q 401 853 413 839 l 282 1022 q 279 1040 276 1029 q 289 1057 282 1051 q 306 1063 296 1063 l 386 1063 q 413 1061 400 1063 q 440 1053 426 1060 l 556 994 l 696 1053 q 725 1061 711 1060 q 753 1063 739 1063 l 856 1063 q 874 1040 878 1063 q 863 1022 871 1029 l 671 853 q 642 833 654 839 q 614 826 629 826 l 447 826 z "},"ê":{"ha":863,"x_min":21,"x_max":860,"o":"m 365 -14 q 163 26 244 -14 q 51 148 82 65 q 47 360 21 231 q 49 365 49 363 q 50 369 49 368 q 144 571 78 489 q 308 694 210 653 q 524 736 406 736 q 735 684 660 736 q 835 547 811 632 q 839 358 860 461 l 831 317 q 814 290 828 301 q 785 279 800 279 l 371 279 q 370 276 371 278 q 369 272 369 275 q 365 226 364 244 q 376 197 365 207 q 406 188 386 188 q 421 190 414 188 q 435 199 428 193 q 451 213 442 206 q 476 228 467 225 q 501 232 485 232 l 764 232 q 785 224 778 232 q 788 201 792 215 q 750 138 781 175 q 666 67 719 101 q 537 9 613 32 q 365 -14 461 -14 m 408 453 l 519 453 l 519 454 q 524 504 526 485 q 510 533 521 524 q 482 542 500 542 q 449 533 464 542 q 425 504 435 524 q 408 454 415 485 l 408 453 m 253 826 q 235 849 231 826 q 246 867 238 860 l 438 1036 q 467 1057 454 1051 q 494 1063 479 1063 l 661 1063 q 687 1057 676 1063 q 707 1036 697 1051 l 826 867 q 829 849 832 860 q 803 826 825 826 l 722 826 q 695 828 708 826 q 668 836 682 829 l 553 894 l 413 836 q 383 828 397 829 q 356 826 369 826 l 253 826 z "},"ë":{"ha":863,"x_min":21,"x_max":861,"o":"m 365 -14 q 163 26 244 -14 q 51 148 82 65 q 47 360 21 231 q 49 365 49 363 q 50 369 49 368 q 144 571 78 489 q 308 694 210 653 q 524 736 406 736 q 735 684 660 736 q 835 547 811 632 q 839 358 860 461 l 831 317 q 814 290 828 301 q 785 279 800 279 l 371 279 q 370 276 371 278 q 369 272 369 275 q 365 226 364 244 q 376 197 365 207 q 406 188 386 188 q 421 190 414 188 q 435 199 428 193 q 451 213 442 206 q 476 228 467 225 q 501 232 485 232 l 764 232 q 785 224 778 232 q 788 201 792 215 q 750 138 781 175 q 666 67 719 101 q 537 9 613 32 q 365 -14 461 -14 m 408 453 l 519 453 l 519 454 q 524 504 526 485 q 510 533 521 524 q 482 542 500 542 q 449 533 464 542 q 425 504 435 524 q 408 454 415 485 l 408 453 m 611 826 q 590 835 597 826 q 586 858 583 844 l 622 1031 q 636 1053 625 1044 q 661 1063 647 1063 l 833 1063 q 854 1053 847 1063 q 858 1031 861 1044 l 822 858 q 808 835 819 844 q 783 826 797 826 l 611 826 m 279 826 q 258 835 265 826 q 254 858 251 844 l 290 1031 q 304 1053 293 1044 q 329 1063 315 1063 l 501 1063 q 522 1053 515 1063 q 526 1031 529 1044 l 490 858 q 476 835 488 844 q 451 826 465 826 l 279 826 z "},"ė":{"ha":863,"x_min":21,"x_max":860,"o":"m 365 -14 q 163 26 244 -14 q 51 148 82 65 q 47 360 21 231 q 49 365 49 363 q 50 369 49 368 q 144 571 78 489 q 308 694 210 653 q 524 736 406 736 q 735 684 660 736 q 835 547 811 632 q 839 358 860 461 l 831 317 q 814 290 828 301 q 785 279 800 279 l 371 279 q 370 276 371 278 q 369 272 369 275 q 365 226 364 244 q 376 197 365 207 q 406 188 386 188 q 421 190 414 188 q 435 199 428 193 q 451 213 442 206 q 476 228 467 225 q 501 232 485 232 l 764 232 q 785 224 778 232 q 788 201 792 215 q 750 138 781 175 q 666 67 719 101 q 537 9 613 32 q 365 -14 461 -14 m 408 453 l 519 453 l 519 454 q 524 504 526 485 q 510 533 521 524 q 482 542 500 542 q 449 533 464 542 q 425 504 435 524 q 408 454 415 485 l 408 453 m 439 826 q 418 835 425 826 q 414 858 411 844 l 453 1040 q 467 1063 456 1054 q 492 1072 478 1072 l 674 1072 q 694 1063 688 1072 q 699 1040 701 1054 l 660 858 q 646 835 657 844 q 621 826 635 826 l 439 826 z "},"è":{"ha":863,"x_min":21,"x_max":860,"o":"m 365 -14 q 163 26 244 -14 q 51 148 82 65 q 47 360 21 231 q 49 365 49 363 q 50 369 49 368 q 144 571 78 489 q 308 694 210 653 q 524 736 406 736 q 735 684 660 736 q 835 547 811 632 q 839 358 860 461 l 831 317 q 814 290 828 301 q 785 279 800 279 l 371 279 q 370 276 371 278 q 369 272 369 275 q 365 226 364 244 q 376 197 365 207 q 406 188 386 188 q 421 190 414 188 q 435 199 428 193 q 451 213 442 206 q 476 228 467 225 q 501 232 485 232 l 764 232 q 785 224 778 232 q 788 201 792 215 q 750 138 781 175 q 666 67 719 101 q 537 9 613 32 q 365 -14 461 -14 m 408 453 l 519 453 l 519 454 q 524 504 526 485 q 510 533 521 524 q 482 542 500 542 q 449 533 464 542 q 425 504 435 524 q 408 454 415 485 l 408 453 m 456 826 q 423 833 433 826 q 403 850 413 840 l 233 1018 q 231 1035 229 1025 q 263 1063 235 1063 l 535 1063 q 560 1058 550 1063 q 581 1036 569 1054 l 683 867 q 686 849 689 860 q 660 826 682 826 l 456 826 z "},"ē":{"ha":863,"x_min":21,"x_max":860,"o":"m 365 -14 q 163 26 244 -14 q 51 148 82 65 q 47 360 21 231 q 49 365 49 363 q 50 369 49 368 q 144 571 78 489 q 308 694 210 653 q 524 736 406 736 q 735 684 660 736 q 835 547 811 632 q 839 358 860 461 l 831 317 q 814 290 828 301 q 785 279 800 279 l 371 279 q 370 276 371 278 q 369 272 369 275 q 365 226 364 244 q 376 197 365 207 q 406 188 386 188 q 421 190 414 188 q 435 199 428 193 q 451 213 442 206 q 476 228 467 225 q 501 232 485 232 l 764 232 q 785 224 778 232 q 788 201 792 215 q 750 138 781 175 q 666 67 719 101 q 537 9 613 32 q 365 -14 461 -14 m 408 453 l 519 453 l 519 454 q 524 504 526 485 q 510 533 521 524 q 482 542 500 542 q 449 533 464 542 q 425 504 435 524 q 408 454 415 485 l 408 453 m 300 826 q 279 835 286 826 q 275 858 272 844 l 306 1003 q 319 1026 308 1017 q 344 1035 331 1035 l 799 1035 q 819 1026 813 1035 q 824 1003 826 1017 l 793 858 q 779 835 790 844 q 754 826 768 826 l 300 826 z "},"ę":{"ha":865,"x_min":17,"x_max":861,"o":"m 378 -306 q 249 -274 294 -306 q 190 -187 203 -242 q 190 -68 176 -133 q 200 -31 194 -49 q 214 4 206 -12 q 62 124 107 36 q 47 360 17 211 q 49 364 49 363 q 49 367 49 365 q 143 569 76 488 q 308 694 210 651 q 524 736 406 736 q 736 684 660 736 q 837 547 813 632 q 839 358 861 461 l 831 317 q 813 290 826 301 q 785 279 800 279 l 371 279 l 369 272 q 365 226 364 244 q 376 197 365 207 q 406 188 386 188 q 421 190 414 188 q 435 199 428 193 q 451 213 442 206 q 476 228 467 225 q 501 232 485 232 l 764 232 q 785 224 778 232 q 788 201 792 215 q 739 127 779 171 q 628 45 699 83 q 458 -7 558 7 q 392 -30 414 -14 q 365 -68 369 -46 q 369 -113 360 -90 q 419 -136 379 -136 l 433 -136 q 458 -147 449 -136 q 464 -174 467 -158 l 443 -268 q 426 -294 440 -283 q 397 -306 413 -306 l 378 -306 m 408 453 l 519 453 l 519 454 q 524 504 526 485 q 510 533 521 524 q 482 542 500 542 q 449 533 464 542 q 425 504 435 524 q 408 454 415 485 l 408 453 z "},"f":{"ha":682,"x_min":40,"x_max":808,"o":"m 106 0 q 81 11 90 0 q 75 38 72 22 l 169 479 l 74 479 q 49 490 58 479 q 44 517 40 501 l 79 685 q 96 711 82 700 q 125 722 110 722 l 221 722 l 226 746 q 306 921 251 860 q 440 1005 360 982 q 619 1028 519 1028 l 776 1028 q 800 1017 792 1028 q 806 990 808 1006 l 769 822 q 753 796 767 807 q 725 785 740 785 l 613 785 q 565 773 582 785 q 543 739 547 761 l 539 722 l 697 722 q 721 711 713 722 q 726 685 729 700 l 692 517 q 674 490 688 501 q 646 479 661 479 l 488 479 l 393 38 q 377 11 390 22 q 349 0 364 0 l 106 0 z "},"g":{"ha":924,"x_min":-46,"x_max":921,"o":"m 331 -306 q 144 -276 218 -306 q 28 -203 71 -246 q -30 -120 -14 -161 q -43 -57 -46 -79 q -26 -31 -40 -42 q 3 -19 -12 -19 l 274 -19 q 296 -27 289 -19 q 306 -47 303 -35 q 315 -67 310 -58 q 331 -78 321 -75 q 357 -82 340 -82 q 392 -73 378 -82 q 418 -46 407 -64 q 435 0 429 -28 l 454 92 q 373 48 415 64 q 269 32 331 32 q 153 49 204 32 q 70 102 103 65 q 26 199 38 139 q 28 346 14 258 q 35 381 32 367 q 43 417 38 396 q 98 559 65 499 q 174 658 131 619 q 272 717 217 697 q 392 736 326 736 q 513 710 460 736 q 590 642 565 683 l 600 685 q 617 711 603 700 q 646 722 631 722 l 889 722 q 913 711 904 722 q 918 685 921 700 l 779 24 q 722 -126 761 -64 q 624 -228 682 -189 q 492 -287 565 -268 q 331 -306 418 -306 m 422 274 q 463 282 446 274 q 490 306 479 290 q 507 343 500 321 q 515 381 510 354 q 522 418 521 408 q 521 456 525 440 q 504 479 517 471 q 468 488 492 488 q 426 478 443 488 q 399 450 410 468 q 382 407 389 432 q 376 381 379 397 q 371 354 372 365 q 370 311 368 329 q 385 283 372 293 q 422 274 397 274 z "},"ğ":{"ha":924,"x_min":-46,"x_max":921,"o":"m 331 -306 q 144 -276 218 -306 q 28 -203 71 -246 q -30 -120 -14 -161 q -43 -57 -46 -79 q -26 -31 -40 -42 q 3 -19 -12 -19 l 274 -19 q 296 -27 289 -19 q 306 -47 303 -35 q 315 -67 310 -58 q 331 -78 321 -75 q 357 -82 340 -82 q 392 -73 378 -82 q 418 -46 407 -64 q 435 0 429 -28 l 454 92 q 373 48 415 64 q 269 32 331 32 q 153 49 204 32 q 70 102 103 65 q 26 199 38 139 q 28 346 14 258 q 35 381 32 367 q 43 417 38 396 q 98 559 65 499 q 174 658 131 619 q 272 717 217 697 q 392 736 326 736 q 513 710 460 736 q 590 642 565 683 l 600 685 q 617 711 603 700 q 646 722 631 722 l 889 722 q 913 711 904 722 q 918 685 921 700 l 779 24 q 722 -126 761 -64 q 624 -228 682 -189 q 492 -287 565 -268 q 331 -306 418 -306 m 422 274 q 463 282 446 274 q 490 306 479 290 q 507 343 500 321 q 515 381 510 354 q 522 418 521 408 q 521 456 525 440 q 504 479 517 471 q 468 488 492 488 q 426 478 443 488 q 399 450 410 468 q 382 407 389 432 q 376 381 379 397 q 371 354 372 365 q 370 311 368 329 q 385 283 372 293 q 422 274 397 274 m 539 819 q 418 848 469 819 q 343 925 367 876 q 332 1036 319 974 q 343 1055 335 1047 q 364 1063 351 1063 l 494 1063 q 513 1055 507 1063 q 515 1036 518 1047 q 517 983 510 1006 q 554 960 524 960 q 603 983 586 960 q 626 1036 621 1006 q 638 1055 629 1047 q 658 1063 646 1063 l 789 1063 q 807 1055 801 1063 q 810 1036 813 1047 q 765 925 797 974 q 678 848 733 876 q 539 819 622 819 z "},"ĝ":{"ha":924,"x_min":-46,"x_max":921,"o":"m 331 -306 q 144 -276 218 -306 q 28 -203 71 -246 q -30 -120 -14 -161 q -43 -57 -46 -79 q -26 -31 -40 -42 q 3 -19 -12 -19 l 274 -19 q 296 -27 289 -19 q 306 -47 303 -35 q 315 -67 310 -58 q 331 -78 321 -75 q 357 -82 340 -82 q 392 -73 378 -82 q 418 -46 407 -64 q 435 0 429 -28 l 454 92 q 373 48 415 64 q 269 32 331 32 q 153 49 204 32 q 70 102 103 65 q 26 199 38 139 q 28 346 14 258 q 35 381 32 367 q 43 417 38 396 q 98 559 65 499 q 174 658 131 619 q 272 717 217 697 q 392 736 326 736 q 513 710 460 736 q 590 642 565 683 l 600 685 q 617 711 603 700 q 646 722 631 722 l 889 722 q 913 711 904 722 q 918 685 921 700 l 779 24 q 722 -126 761 -64 q 624 -228 682 -189 q 492 -287 565 -268 q 331 -306 418 -306 m 422 274 q 463 282 446 274 q 490 306 479 290 q 507 343 500 321 q 515 381 510 354 q 522 418 521 408 q 521 456 525 440 q 504 479 517 471 q 468 488 492 488 q 426 478 443 488 q 399 450 410 468 q 382 407 389 432 q 376 381 379 397 q 371 354 372 365 q 370 311 368 329 q 385 283 372 293 q 422 274 397 274 m 249 826 q 231 849 226 826 q 242 867 233 860 l 433 1036 q 463 1057 450 1051 q 490 1063 475 1063 l 657 1063 q 683 1057 672 1063 q 703 1036 693 1051 l 822 867 q 825 849 828 860 q 799 826 821 826 l 718 826 q 691 828 704 826 q 664 836 678 829 l 549 894 l 408 836 q 379 828 393 829 q 351 826 365 826 l 249 826 z "},"ģ":{"ha":924,"x_min":-46,"x_max":921,"o":"m 331 -306 q 144 -276 218 -306 q 28 -203 71 -246 q -30 -120 -14 -161 q -43 -57 -46 -79 q -26 -31 -40 -42 q 3 -19 -12 -19 l 274 -19 q 296 -27 289 -19 q 306 -47 303 -35 q 315 -67 310 -58 q 331 -78 321 -75 q 357 -82 340 -82 q 392 -73 378 -82 q 418 -46 407 -64 q 435 0 429 -28 l 454 92 q 373 48 415 64 q 269 32 331 32 q 153 49 204 32 q 70 102 103 65 q 26 199 38 139 q 28 346 14 258 q 35 381 32 367 q 43 417 38 396 q 98 559 65 499 q 174 658 131 619 q 272 717 217 697 q 392 736 326 736 q 513 710 460 736 q 590 642 565 683 l 600 685 q 617 711 603 700 q 646 722 631 722 l 889 722 q 913 711 904 722 q 918 685 921 700 l 779 24 q 722 -126 761 -64 q 624 -228 682 -189 q 492 -287 565 -268 q 331 -306 418 -306 m 422 274 q 463 282 446 274 q 490 306 479 290 q 507 343 500 321 q 515 381 510 354 q 522 418 521 408 q 521 456 525 440 q 504 479 517 471 q 468 488 492 488 q 426 478 443 488 q 399 450 410 468 q 382 407 389 432 q 376 381 379 397 q 371 354 372 365 q 370 311 368 329 q 385 283 372 293 q 422 274 397 274 m 418 826 q 399 835 406 826 q 394 857 393 844 q 397 862 396 860 q 399 867 397 864 l 515 1060 q 541 1089 524 1074 q 585 1104 558 1104 l 731 1104 q 750 1095 743 1104 q 754 1074 757 1086 l 685 881 q 659 844 678 863 q 613 826 640 826 l 418 826 z "},"ġ":{"ha":924,"x_min":-46,"x_max":921,"o":"m 331 -306 q 144 -276 218 -306 q 28 -203 71 -246 q -30 -120 -14 -161 q -43 -57 -46 -79 q -26 -31 -40 -42 q 3 -19 -12 -19 l 274 -19 q 296 -27 289 -19 q 306 -47 303 -35 q 315 -67 310 -58 q 331 -78 321 -75 q 357 -82 340 -82 q 392 -73 378 -82 q 418 -46 407 -64 q 435 0 429 -28 l 454 92 q 373 48 415 64 q 269 32 331 32 q 153 49 204 32 q 70 102 103 65 q 26 199 38 139 q 28 346 14 258 q 35 381 32 367 q 43 417 38 396 q 98 559 65 499 q 174 658 131 619 q 272 717 217 697 q 392 736 326 736 q 513 710 460 736 q 590 642 565 683 l 600 685 q 617 711 603 700 q 646 722 631 722 l 889 722 q 913 711 904 722 q 918 685 921 700 l 779 24 q 722 -126 761 -64 q 624 -228 682 -189 q 492 -287 565 -268 q 331 -306 418 -306 m 422 274 q 463 282 446 274 q 490 306 479 290 q 507 343 500 321 q 515 381 510 354 q 522 418 521 408 q 521 456 525 440 q 504 479 517 471 q 468 488 492 488 q 426 478 443 488 q 399 450 410 468 q 382 407 389 432 q 376 381 379 397 q 371 354 372 365 q 370 311 368 329 q 385 283 372 293 q 422 274 397 274 m 435 826 q 414 835 421 826 q 410 858 407 844 l 449 1040 q 463 1063 451 1054 q 488 1072 474 1072 l 669 1072 q 690 1063 683 1072 q 694 1040 697 1054 l 656 858 q 642 835 653 844 q 617 826 631 826 l 435 826 z "},"h":{"ha":951,"x_min":-19,"x_max":922,"o":"m 14 0 q -10 11 -1 0 q -17 38 -19 22 l 178 949 q 194 975 181 964 q 222 986 207 986 l 493 986 q 517 975 508 986 q 524 949 526 964 l 460 650 q 558 713 504 690 q 675 736 611 736 q 812 703 753 736 q 897 600 871 669 q 899 421 922 531 l 817 38 q 801 11 814 22 q 772 0 788 0 l 500 0 q 476 11 485 0 q 469 38 467 22 l 549 411 q 543 468 557 449 q 496 488 529 488 q 456 479 474 488 q 426 453 439 471 q 408 411 414 436 l 329 38 q 313 11 326 22 q 285 0 300 0 l 14 0 z "},"ħ":{"ha":951,"x_min":-19,"x_max":922,"o":"m 99 747 q 74 758 83 747 q 69 785 65 769 l 83 856 q 101 882 88 871 q 129 893 114 893 l 544 893 q 569 882 560 893 q 574 856 578 871 l 560 785 q 542 758 556 769 q 514 747 529 747 l 99 747 m 14 0 q -10 11 -1 0 q -17 38 -19 22 l 178 949 q 194 975 181 964 q 222 986 207 986 l 493 986 q 517 975 508 986 q 524 949 526 964 l 460 650 q 558 713 504 690 q 675 736 611 736 q 812 703 753 736 q 897 600 871 669 q 899 421 922 531 l 817 38 q 801 11 814 22 q 772 0 788 0 l 500 0 q 476 11 485 0 q 469 38 467 22 l 549 411 q 543 468 557 449 q 496 488 529 488 q 456 479 474 488 q 426 453 439 471 q 408 411 414 436 l 329 38 q 313 11 326 22 q 285 0 300 0 l 14 0 z "},"ĥ":{"ha":951,"x_min":-19,"x_max":922,"o":"m 14 0 q -10 11 -1 0 q -17 38 -19 22 l 178 949 q 194 975 181 964 q 222 986 207 986 l 493 986 q 517 975 508 986 q 524 949 526 964 l 460 650 q 558 713 504 690 q 675 736 611 736 q 812 703 753 736 q 897 600 871 669 q 899 421 922 531 l 817 38 q 801 11 814 22 q 772 0 788 0 l 500 0 q 476 11 485 0 q 469 38 467 22 l 549 411 q 543 468 557 449 q 496 488 529 488 q 456 479 474 488 q 426 453 439 471 q 408 411 414 436 l 329 38 q 313 11 326 22 q 285 0 300 0 l 14 0 m 292 1044 q 274 1067 269 1044 q 285 1085 276 1078 l 476 1254 q 506 1275 493 1269 q 533 1281 518 1281 l 700 1281 q 726 1275 715 1281 q 746 1254 736 1269 l 865 1085 q 868 1067 871 1078 q 842 1044 864 1044 l 761 1044 q 734 1046 747 1044 q 707 1054 721 1047 l 592 1113 l 451 1054 q 422 1046 436 1047 q 394 1044 408 1044 l 292 1044 z "},"i":{"ha":449,"x_min":-19,"x_max":508,"o":"m 14 0 q -10 11 -1 0 q -17 38 -19 22 l 121 685 q 138 711 124 700 q 167 722 151 722 l 415 722 q 439 711 431 722 q 444 685 447 700 l 307 38 q 291 11 304 22 q 263 0 278 0 l 14 0 m 190 799 q 166 810 175 799 q 160 836 157 821 l 196 1004 q 213 1031 199 1019 q 242 1042 226 1042 l 476 1042 q 500 1031 492 1042 q 506 1004 508 1019 l 469 836 q 453 810 467 821 q 425 799 440 799 l 190 799 z "},"ı":{"ha":449,"x_min":-19,"x_max":447,"o":"m 14 0 q -10 11 -1 0 q -17 38 -19 22 l 121 685 q 138 711 124 700 q 167 722 151 722 l 415 722 q 439 711 431 722 q 444 685 447 700 l 307 38 q 291 11 304 22 q 263 0 278 0 l 14 0 z "},"í":{"ha":449,"x_min":-19,"x_max":710,"o":"m 14 0 q -10 11 -1 0 q -17 38 -19 22 l 121 685 q 138 711 124 700 q 167 722 151 722 l 415 722 q 439 711 431 722 q 444 685 447 700 l 307 38 q 291 11 304 22 q 263 0 278 0 l 14 0 m 201 826 q 183 849 179 826 q 194 867 186 860 l 369 1036 q 400 1058 389 1054 q 426 1063 411 1063 l 685 1063 q 706 1035 710 1063 q 694 1018 704 1025 l 456 850 q 428 833 442 840 q 392 826 414 826 l 201 826 z "},"ĭ":{"ha":449,"x_min":-19,"x_max":600,"o":"m 14 0 q -10 11 -1 0 q -17 38 -19 22 l 121 685 q 138 711 124 700 q 167 722 151 722 l 415 722 q 439 711 431 722 q 444 685 447 700 l 307 38 q 291 11 304 22 q 263 0 278 0 l 14 0 m 326 819 q 206 848 257 819 q 131 925 154 876 q 119 1036 107 974 q 131 1055 122 1047 q 151 1063 139 1063 l 282 1063 q 300 1055 294 1063 q 303 1036 306 1047 q 304 983 297 1006 q 342 960 311 960 q 391 983 374 960 q 414 1036 408 1006 q 425 1055 417 1047 q 446 1063 433 1063 l 576 1063 q 594 1055 589 1063 q 597 1036 600 1047 q 553 925 585 974 q 465 848 521 876 q 326 819 410 819 z "},"î":{"ha":449,"x_min":-19,"x_max":615,"o":"m 14 0 q -10 11 -1 0 q -17 38 -19 22 l 121 685 q 138 711 124 700 q 167 722 151 722 l 415 722 q 439 711 431 722 q 444 685 447 700 l 307 38 q 291 11 304 22 q 263 0 278 0 l 14 0 m 36 826 q 18 849 14 826 q 29 867 21 860 l 221 1036 q 250 1057 238 1051 q 278 1063 263 1063 l 444 1063 q 470 1057 460 1063 q 490 1036 481 1051 l 610 867 q 613 849 615 860 q 586 826 608 826 l 506 826 q 478 828 492 826 q 451 836 465 829 l 336 894 l 196 836 q 167 828 181 829 q 139 826 153 826 l 36 826 z "},"ï":{"ha":449,"x_min":-19,"x_max":644,"o":"m 14 0 q -10 11 -1 0 q -17 38 -19 22 l 121 685 q 138 711 124 700 q 167 722 151 722 l 415 722 q 439 711 431 722 q 444 685 447 700 l 307 38 q 291 11 304 22 q 263 0 278 0 l 14 0 m 394 826 q 374 835 381 826 q 369 858 367 844 l 406 1031 q 419 1053 408 1044 q 444 1063 431 1063 l 617 1063 q 638 1053 631 1063 q 642 1031 644 1044 l 606 858 q 592 835 603 844 q 567 826 581 826 l 394 826 m 63 826 q 42 835 49 826 q 38 858 35 844 l 74 1031 q 88 1053 76 1044 q 113 1063 99 1063 l 285 1063 q 306 1053 299 1063 q 310 1031 313 1044 l 274 858 q 260 835 271 844 q 235 826 249 826 l 63 826 z "},"ì":{"ha":449,"x_min":-19,"x_max":472,"o":"m 14 0 q -10 11 -1 0 q -17 38 -19 22 l 121 685 q 138 711 124 700 q 167 722 151 722 l 415 722 q 439 711 431 722 q 444 685 447 700 l 307 38 q 291 11 304 22 q 263 0 278 0 l 14 0 m 239 826 q 206 833 217 826 q 186 850 196 840 l 17 1018 q 14 1035 13 1025 q 46 1063 18 1063 l 318 1063 q 343 1058 333 1063 q 364 1036 353 1054 l 467 867 q 469 849 472 860 q 443 826 465 826 l 239 826 z "},"ĳ":{"ha":928,"x_min":-19,"x_max":986,"o":"m 14 0 q -10 11 -1 0 q -17 38 -19 22 l 121 685 q 138 711 124 700 q 167 722 151 722 l 415 722 q 439 711 431 722 q 444 685 447 700 l 307 38 q 291 11 304 22 q 263 0 278 0 l 14 0 m 190 799 q 166 810 175 799 q 160 836 157 821 l 196 1004 q 213 1031 199 1019 q 242 1042 226 1042 l 476 1042 q 500 1031 492 1042 q 506 1004 508 1019 l 469 836 q 453 810 467 821 q 425 799 440 799 l 190 799 m 246 -264 q 222 -253 231 -264 q 217 -226 214 -242 l 253 -58 q 269 -32 256 -43 q 297 -21 282 -21 l 376 -21 q 426 -2 408 -21 q 451 49 444 17 l 586 685 q 603 711 589 700 q 632 722 617 722 l 893 722 q 917 711 908 722 q 922 685 925 700 l 786 40 q 709 -131 764 -64 q 572 -231 654 -199 q 381 -264 489 -264 l 246 -264 m 656 799 q 631 810 640 799 q 625 836 622 821 l 661 1004 q 678 1031 664 1019 q 707 1042 692 1042 l 954 1042 q 978 1031 969 1042 q 983 1004 986 1019 l 947 836 q 931 810 944 821 q 903 799 918 799 l 656 799 z "},"ī":{"ha":449,"x_min":-19,"x_max":610,"o":"m 14 0 q -10 11 -1 0 q -17 38 -19 22 l 121 685 q 138 711 124 700 q 167 722 151 722 l 415 722 q 439 711 431 722 q 444 685 447 700 l 307 38 q 291 11 304 22 q 263 0 278 0 l 14 0 m 83 826 q 63 835 69 826 q 58 858 56 844 l 89 1003 q 103 1026 92 1017 q 128 1035 114 1035 l 582 1035 q 603 1026 596 1035 q 607 1003 610 1017 l 576 858 q 563 835 574 844 q 538 826 551 826 l 83 826 z "},"į":{"ha":449,"x_min":0,"x_max":528,"o":"m 204 -267 q 48 -206 89 -267 q 25 -56 7 -144 q 32 -26 28 -40 q 42 0 36 -12 l 32 0 q 8 11 17 0 q 3 38 0 22 l 140 685 q 157 711 143 700 q 186 722 171 722 l 435 722 q 458 711 450 722 q 464 685 467 700 l 326 38 q 310 11 324 22 q 281 0 296 0 l 267 0 q 208 -17 226 0 q 186 -56 190 -33 q 192 -94 181 -78 q 243 -111 203 -111 l 257 -111 q 281 -122 272 -111 q 286 -149 290 -133 l 269 -229 q 253 -256 267 -244 q 224 -267 239 -267 l 204 -267 m 208 799 q 185 810 193 799 q 179 836 176 821 l 215 1004 q 232 1031 218 1019 q 261 1042 246 1042 l 496 1042 q 519 1031 511 1042 q 525 1004 528 1019 l 489 836 q 472 810 486 821 q 443 799 458 799 l 208 799 z "},"ĩ":{"ha":449,"x_min":-19,"x_max":656,"o":"m 14 0 q -10 11 -1 0 q -17 38 -19 22 l 121 685 q 138 711 124 700 q 167 722 151 722 l 415 722 q 439 711 431 722 q 444 685 447 700 l 307 38 q 291 11 304 22 q 263 0 278 0 l 14 0 m 432 819 q 363 832 390 819 q 315 857 336 844 q 265 869 293 869 q 233 859 244 869 q 211 838 221 849 q 186 826 201 826 l 69 826 q 53 834 60 826 q 49 851 47 842 q 68 912 54 875 q 107 985 82 949 q 172 1045 132 1021 q 269 1069 213 1069 q 338 1057 311 1069 q 388 1032 365 1044 q 438 1019 411 1019 q 469 1031 458 1019 q 490 1052 481 1042 q 515 1063 500 1063 l 632 1063 q 650 1055 644 1063 q 653 1036 656 1047 q 633 976 647 1013 q 594 904 619 940 q 528 844 568 868 q 432 819 489 819 z "},"j":{"ha":479,"x_min":-235,"x_max":538,"o":"m -203 -264 q -226 -253 -218 -264 q -232 -226 -235 -242 l -196 -58 q -180 -32 -193 -43 q -151 -21 -167 -21 l -72 -21 q -22 -2 -40 -21 q 3 49 -4 17 l 138 685 q 154 711 140 700 q 183 722 168 722 l 444 722 q 468 711 460 722 q 474 685 476 700 l 338 40 q 260 -131 315 -64 q 123 -231 206 -199 q -68 -264 40 -264 l -203 -264 m 207 799 q 183 810 192 799 q 176 836 174 821 l 213 1004 q 229 1031 215 1019 q 258 1042 243 1042 l 506 1042 q 529 1031 521 1042 q 535 1004 538 1019 l 499 836 q 483 810 496 821 q 454 799 469 799 l 207 799 z "},"ȷ":{"ha":668,"x_min":-107,"x_max":667,"o":"m -76 -264 q -99 -253 -90 -264 q -104 -226 -107 -242 l -60 -10 q -43 17 -57 6 q -14 28 -29 28 l 126 28 q 162 36 147 28 q 186 60 176 44 q 200 97 196 76 l 279 468 l 83 468 q 60 479 68 468 q 54 506 51 490 l 92 685 q 108 711 94 700 q 138 722 122 722 l 635 722 q 658 711 650 722 q 664 685 667 700 l 539 97 q 451 -97 515 -17 q 299 -221 388 -178 q 108 -264 210 -264 l -76 -264 z "},"ĵ":{"ha":668,"x_min":-107,"x_max":708,"o":"m -76 -264 q -99 -253 -90 -264 q -104 -226 -107 -242 l -60 -10 q -43 17 -57 6 q -14 28 -29 28 l 126 28 q 162 36 147 28 q 186 60 176 44 q 200 97 196 76 l 279 468 l 83 468 q 60 479 68 468 q 54 506 51 490 l 92 685 q 108 711 94 700 q 138 722 122 722 l 635 722 q 658 711 650 722 q 664 685 667 700 l 539 97 q 451 -97 515 -17 q 299 -221 388 -178 q 108 -264 210 -264 l -76 -264 m 129 826 q 111 849 107 826 q 122 867 114 860 l 314 1036 q 343 1057 331 1051 q 371 1063 356 1063 l 538 1063 q 563 1057 553 1063 q 583 1036 574 1051 l 703 867 q 706 849 708 860 q 679 826 701 826 l 599 826 q 572 828 585 826 q 544 836 558 829 l 429 894 l 289 836 q 260 828 274 829 q 232 826 246 826 l 129 826 z "},"k":{"ha":903,"x_min":-19,"x_max":935,"o":"m 14 0 q -10 11 -1 0 q -17 38 -19 22 l 178 949 q 194 975 181 964 q 222 986 207 986 l 465 986 q 490 975 481 986 q 496 949 499 964 l 400 499 l 564 699 q 580 713 568 704 q 610 722 592 722 l 904 722 q 933 703 931 722 q 919 668 935 685 l 672 372 l 808 51 q 806 17 817 33 q 771 0 796 0 l 493 0 q 468 7 478 0 q 454 24 458 14 l 351 282 l 301 38 q 285 11 299 22 q 257 0 272 0 l 14 0 z "},"ķ":{"ha":903,"x_min":-19,"x_max":935,"o":"m 14 0 q -10 11 -1 0 q -17 38 -19 22 l 178 949 q 194 975 181 964 q 222 986 207 986 l 465 986 q 490 975 481 986 q 496 949 499 964 l 400 499 l 564 699 q 580 713 568 704 q 610 722 592 722 l 904 722 q 933 703 931 722 q 919 668 935 685 l 672 372 l 808 51 q 806 17 817 33 q 771 0 796 0 l 493 0 q 468 7 478 0 q 454 24 458 14 l 351 282 l 301 38 q 285 11 299 22 q 257 0 272 0 l 14 0 m 147 -347 q 128 -338 135 -347 q 124 -317 121 -329 l 193 -124 q 219 -87 200 -104 q 265 -69 238 -69 l 460 -69 q 479 -78 472 -69 q 483 -100 486 -87 q 482 -104 482 -101 q 479 -110 482 -107 l 363 -303 q 338 -332 354 -317 q 293 -347 321 -347 l 147 -347 z "},"ĸ":{"ha":893,"x_min":0,"x_max":939,"o":"m 32 0 q 8 11 17 0 q 3 38 0 22 l 140 685 q 157 711 143 700 q 186 722 171 722 l 429 722 q 453 711 444 722 q 458 685 461 700 l 410 457 l 597 699 q 613 713 601 704 q 643 722 625 722 l 910 722 q 931 713 924 722 q 936 689 939 703 q 931 677 935 683 q 924 668 926 671 l 685 369 l 828 51 q 831 44 829 49 q 829 33 832 40 q 815 10 828 19 q 789 0 803 0 l 497 0 q 469 10 476 0 q 460 24 461 21 l 368 260 l 321 38 q 304 11 318 22 q 275 0 290 0 l 32 0 z "},"l":{"ha":450,"x_min":-19,"x_max":504,"o":"m 14 0 q -10 11 -1 0 q -17 38 -19 22 l 178 949 q 194 975 181 964 q 222 986 207 986 l 471 986 q 495 975 486 986 q 501 949 504 964 l 307 38 q 291 11 304 22 q 263 0 278 0 l 14 0 z "},"ĺ":{"ha":450,"x_min":-19,"x_max":768,"o":"m 14 0 q -10 11 -1 0 q -17 38 -19 22 l 178 949 q 194 975 181 964 q 222 986 207 986 l 471 986 q 495 975 486 986 q 501 949 504 964 l 307 38 q 291 11 304 22 q 263 0 278 0 l 14 0 m 260 1042 q 242 1064 238 1042 q 253 1082 244 1075 l 428 1251 q 458 1274 447 1269 q 485 1278 469 1278 l 743 1278 q 764 1250 768 1278 q 753 1233 763 1240 l 514 1065 q 486 1049 500 1056 q 450 1042 472 1042 l 260 1042 z "},"ľ":{"ha":686,"x_min":-19,"x_max":889,"o":"m 14 0 q -10 11 -1 0 q -17 38 -19 22 l 178 949 q 194 975 181 964 q 222 986 207 986 l 471 986 q 495 975 486 986 q 501 949 504 964 l 307 38 q 291 11 304 22 q 263 0 278 0 l 14 0 m 550 708 q 531 717 538 708 q 526 739 524 726 l 596 932 q 622 969 603 951 q 668 986 640 986 l 863 986 q 882 977 875 986 q 886 956 889 968 q 885 951 885 954 q 882 946 885 949 l 765 753 q 740 724 757 739 q 696 708 724 708 l 550 708 z "},"ļ":{"ha":450,"x_min":-110,"x_max":504,"o":"m 14 0 q -10 11 -1 0 q -17 38 -19 22 l 178 949 q 194 975 181 964 q 222 986 207 986 l 471 986 q 495 975 486 986 q 501 949 504 964 l 307 38 q 291 11 304 22 q 263 0 278 0 l 14 0 m -83 -347 q -103 -338 -96 -347 q -107 -317 -110 -329 l -37 -124 q -12 -87 -31 -104 q 35 -69 7 -69 l 229 -69 q 249 -78 242 -69 q 253 -100 256 -87 q 251 -104 251 -101 q 249 -110 251 -107 l 132 -303 q 107 -332 124 -317 q 63 -347 90 -347 l -83 -347 z "},"ŀ":{"ha":717,"x_min":-19,"x_max":749,"o":"m 14 0 q -10 11 -1 0 q -17 38 -19 22 l 178 949 q 194 975 181 964 q 222 986 207 986 l 471 986 q 495 975 486 986 q 501 949 504 964 l 307 38 q 291 11 304 22 q 263 0 278 0 l 14 0 m 486 378 q 465 387 472 378 q 461 410 458 396 l 500 592 q 514 615 503 606 q 539 624 525 624 l 721 624 q 742 615 735 624 q 746 592 749 606 l 707 410 q 693 387 704 396 q 668 378 682 378 l 486 378 z "},"ł":{"ha":556,"x_min":33,"x_max":599,"o":"m 86 0 q 63 11 71 0 q 57 38 54 22 l 117 318 l 75 303 q 58 299 63 299 q 40 307 46 299 q 35 328 33 315 l 67 478 q 80 508 71 497 q 107 524 89 518 l 164 543 l 250 949 q 267 975 254 964 q 296 986 281 986 l 544 986 q 569 975 560 986 q 574 949 578 964 l 515 669 l 557 685 q 574 689 568 689 q 592 681 586 689 q 596 660 599 672 l 564 510 q 551 481 560 492 q 524 464 542 471 l 467 443 l 381 38 q 364 11 378 22 q 335 0 350 0 l 86 0 z "},"m":{"ha":1303,"x_min":-19,"x_max":1275,"o":"m 14 0 q -10 11 -1 0 q -17 38 -19 22 l 121 685 q 138 711 124 700 q 167 722 151 722 l 396 722 q 419 711 411 722 q 425 685 428 700 l 415 639 q 464 683 436 660 q 532 721 492 706 q 629 736 572 736 q 759 705 713 736 q 825 622 806 674 q 921 703 868 671 q 1047 736 974 736 q 1178 704 1125 736 q 1253 604 1232 672 q 1251 426 1275 536 l 1168 38 q 1152 11 1165 22 q 1124 0 1139 0 l 879 0 q 855 11 864 0 q 849 38 846 22 l 931 419 q 931 457 935 442 q 917 480 928 472 q 889 488 907 488 q 858 480 872 488 q 835 457 844 472 q 821 419 825 442 l 739 38 q 723 11 736 22 q 694 0 710 0 l 450 0 q 426 11 435 0 q 419 38 417 22 l 501 419 q 502 457 506 442 q 488 480 499 472 q 460 488 478 488 q 428 479 443 488 q 404 456 414 471 q 390 419 394 442 l 308 38 q 292 11 306 22 q 264 0 279 0 l 14 0 z "},"n":{"ha":936,"x_min":-19,"x_max":907,"o":"m 14 0 q -10 11 -1 0 q -17 38 -19 22 l 121 685 q 138 711 124 700 q 167 722 151 722 l 410 722 q 433 711 425 722 q 439 685 442 700 l 429 639 q 533 708 474 679 q 667 736 593 736 q 801 703 744 736 q 883 600 858 669 q 883 421 907 531 l 801 38 q 785 11 799 22 q 757 0 772 0 l 492 0 q 467 11 476 0 q 461 38 458 22 l 540 411 q 535 468 549 449 q 488 488 521 488 q 432 468 454 488 q 401 411 410 449 l 322 38 q 306 11 319 22 q 278 0 293 0 l 14 0 z "},"ń":{"ha":936,"x_min":-19,"x_max":944,"o":"m 14 0 q -10 11 -1 0 q -17 38 -19 22 l 121 685 q 138 711 124 700 q 167 722 151 722 l 410 722 q 433 711 425 722 q 439 685 442 700 l 429 639 q 533 708 474 679 q 667 736 593 736 q 801 703 744 736 q 883 600 858 669 q 883 421 907 531 l 801 38 q 785 11 799 22 q 757 0 772 0 l 492 0 q 467 11 476 0 q 461 38 458 22 l 540 411 q 535 468 549 449 q 488 488 521 488 q 432 468 454 488 q 401 411 410 449 l 322 38 q 306 11 319 22 q 278 0 293 0 l 14 0 m 436 826 q 418 849 414 826 q 429 867 421 860 l 604 1036 q 635 1058 624 1054 q 661 1063 646 1063 l 919 1063 q 940 1035 944 1063 q 929 1018 939 1025 l 690 850 q 663 833 676 840 q 626 826 649 826 l 436 826 z "},"ŉ":{"ha":936,"x_min":-86,"x_max":907,"o":"m -60 764 q -79 773 -72 764 q -83 794 -86 782 l -14 988 q 12 1024 -7 1007 q 58 1042 31 1042 l 253 1042 q 272 1033 265 1042 q 276 1011 279 1024 q 275 1007 275 1010 q 272 1001 275 1004 l 156 808 q 131 779 147 794 q 86 764 114 764 l -60 764 m 14 0 q -10 11 -1 0 q -17 38 -19 22 l 121 685 q 138 711 124 700 q 167 722 151 722 l 410 722 q 433 711 425 722 q 439 685 442 700 l 429 639 q 533 708 474 679 q 667 736 593 736 q 801 703 744 736 q 883 600 858 669 q 883 421 907 531 l 801 38 q 785 11 799 22 q 757 0 772 0 l 492 0 q 467 11 476 0 q 461 38 458 22 l 540 411 q 535 468 549 449 q 488 488 521 488 q 432 468 454 488 q 401 411 410 449 l 322 38 q 306 11 319 22 q 278 0 293 0 l 14 0 z "},"ň":{"ha":936,"x_min":-19,"x_max":907,"o":"m 14 0 q -10 11 -1 0 q -17 38 -19 22 l 121 685 q 138 711 124 700 q 167 722 151 722 l 410 722 q 433 711 425 722 q 439 685 442 700 l 429 639 q 533 708 474 679 q 667 736 593 736 q 801 703 744 736 q 883 600 858 669 q 883 421 907 531 l 801 38 q 785 11 799 22 q 757 0 772 0 l 492 0 q 467 11 476 0 q 461 38 458 22 l 540 411 q 535 468 549 449 q 488 488 521 488 q 432 468 454 488 q 401 411 410 449 l 322 38 q 306 11 319 22 q 278 0 293 0 l 14 0 m 465 826 q 440 833 450 826 q 419 853 431 839 l 300 1022 q 297 1040 294 1029 q 307 1057 300 1051 q 324 1063 314 1063 l 404 1063 q 431 1061 418 1063 q 458 1053 444 1060 l 574 994 l 714 1053 q 743 1061 729 1060 q 771 1063 757 1063 l 874 1063 q 892 1040 896 1063 q 881 1022 889 1029 l 689 853 q 660 833 672 839 q 632 826 647 826 l 465 826 z "},"ņ":{"ha":936,"x_min":-19,"x_max":907,"o":"m 14 0 q -10 11 -1 0 q -17 38 -19 22 l 121 685 q 138 711 124 700 q 167 722 151 722 l 410 722 q 433 711 425 722 q 439 685 442 700 l 429 639 q 533 708 474 679 q 667 736 593 736 q 801 703 744 736 q 883 600 858 669 q 883 421 907 531 l 801 38 q 785 11 799 22 q 757 0 772 0 l 492 0 q 467 11 476 0 q 461 38 458 22 l 540 411 q 535 468 549 449 q 488 488 521 488 q 432 468 454 488 q 401 411 410 449 l 322 38 q 306 11 319 22 q 278 0 293 0 l 14 0 m 164 -347 q 144 -338 151 -347 q 140 -317 138 -329 l 210 -124 q 235 -87 217 -104 q 282 -69 254 -69 l 476 -69 q 496 -78 489 -69 q 500 -100 503 -87 q 499 -104 499 -101 q 496 -110 499 -107 l 379 -303 q 354 -332 371 -317 q 310 -347 338 -347 l 164 -347 z "},"ñ":{"ha":936,"x_min":-19,"x_max":907,"o":"m 14 0 q -10 11 -1 0 q -17 38 -19 22 l 121 685 q 138 711 124 700 q 167 722 151 722 l 410 722 q 433 711 425 722 q 439 685 442 700 l 429 639 q 533 708 474 679 q 667 736 593 736 q 801 703 744 736 q 883 600 858 669 q 883 421 907 531 l 801 38 q 785 11 799 22 q 757 0 772 0 l 492 0 q 467 11 476 0 q 461 38 458 22 l 540 411 q 535 468 549 449 q 488 488 521 488 q 432 468 454 488 q 401 411 410 449 l 322 38 q 306 11 319 22 q 278 0 293 0 l 14 0 m 667 819 q 598 832 625 819 q 549 857 571 844 q 500 869 528 869 q 467 859 479 869 q 446 838 456 849 q 421 826 436 826 l 304 826 q 288 834 294 826 q 283 851 282 842 q 303 912 289 875 q 342 985 317 949 q 407 1045 367 1021 q 504 1069 447 1069 q 573 1057 546 1069 q 623 1032 600 1044 q 672 1019 646 1019 q 704 1031 693 1019 q 725 1052 715 1042 q 750 1063 735 1063 l 867 1063 q 885 1055 879 1063 q 888 1036 890 1047 q 868 976 882 1013 q 828 904 854 940 q 763 844 803 868 q 667 819 724 819 z "},"ŋ":{"ha":936,"x_min":-19,"x_max":907,"o":"m 240 -312 q 216 -301 225 -312 q 210 -275 207 -290 l 254 -68 q 271 -42 257 -53 q 300 -31 285 -31 l 354 -31 q 408 -20 385 -31 q 447 15 431 -10 q 471 82 463 39 l 540 411 q 535 468 549 449 q 488 488 521 488 q 432 468 454 488 q 401 411 410 449 l 322 38 q 306 11 319 22 q 278 0 293 0 l 14 0 q -10 11 -1 0 q -17 38 -19 22 l 121 685 q 138 711 124 700 q 167 722 151 722 l 410 722 q 433 711 425 722 q 439 685 442 700 l 429 639 q 533 708 474 679 q 667 736 593 736 q 801 703 744 736 q 883 600 858 669 q 883 421 907 531 l 808 67 q 710 -149 781 -65 q 533 -273 639 -233 q 294 -312 428 -312 l 240 -312 z "},"o":{"ha":890,"x_min":4,"x_max":867,"o":"m 368 -14 q 164 21 247 -14 q 42 125 81 56 q 18 296 4 194 q 29 362 22 328 q 46 426 36 396 q 133 598 75 529 q 282 701 190 667 q 500 736 374 736 q 698 701 614 736 q 824 598 782 667 q 851 426 867 529 q 839 362 846 396 q 824 296 832 328 q 740 125 796 194 q 594 21 685 56 q 368 -14 503 -14 m 401 208 q 456 231 442 208 q 485 303 471 254 q 499 361 490 324 q 510 419 507 399 q 512 490 517 465 q 467 514 507 514 q 413 490 428 514 q 385 419 397 465 q 371 361 379 399 q 360 303 363 324 q 358 231 353 254 q 401 208 363 208 z "},"ó":{"ha":890,"x_min":4,"x_max":921,"o":"m 368 -14 q 164 21 247 -14 q 42 125 81 56 q 18 296 4 194 q 29 362 22 328 q 46 426 36 396 q 133 598 75 529 q 282 701 190 667 q 500 736 374 736 q 698 701 614 736 q 824 598 782 667 q 851 426 867 529 q 839 362 846 396 q 824 296 832 328 q 740 125 796 194 q 594 21 685 56 q 368 -14 503 -14 m 401 208 q 456 231 442 208 q 485 303 471 254 q 499 361 490 324 q 510 419 507 399 q 512 490 517 465 q 467 514 507 514 q 413 490 428 514 q 385 419 397 465 q 371 361 379 399 q 360 303 363 324 q 358 231 353 254 q 401 208 363 208 m 413 826 q 394 849 390 826 q 406 867 397 860 l 581 1036 q 611 1058 600 1054 q 638 1063 622 1063 l 896 1063 q 917 1035 921 1063 q 906 1018 915 1025 l 667 850 q 639 833 653 840 q 603 826 625 826 l 413 826 z "},"ŏ":{"ha":890,"x_min":4,"x_max":867,"o":"m 368 -14 q 164 21 247 -14 q 42 125 81 56 q 18 296 4 194 q 29 362 22 328 q 46 426 36 396 q 133 598 75 529 q 282 701 190 667 q 500 736 374 736 q 698 701 614 736 q 824 598 782 667 q 851 426 867 529 q 839 362 846 396 q 824 296 832 328 q 740 125 796 194 q 594 21 685 56 q 368 -14 503 -14 m 401 208 q 456 231 442 208 q 485 303 471 254 q 499 361 490 324 q 510 419 507 399 q 512 490 517 465 q 467 514 507 514 q 413 490 428 514 q 385 419 397 465 q 371 361 379 399 q 360 303 363 324 q 358 231 353 254 q 401 208 363 208 m 538 819 q 417 848 468 819 q 342 925 365 876 q 331 1036 318 974 q 342 1055 333 1047 q 363 1063 350 1063 l 493 1063 q 511 1055 506 1063 q 514 1036 517 1047 q 515 983 508 1006 q 553 960 522 960 q 602 983 585 960 q 625 1036 619 1006 q 636 1055 628 1047 q 657 1063 644 1063 l 788 1063 q 806 1055 800 1063 q 808 1036 811 1047 q 764 925 796 974 q 676 848 732 876 q 538 819 621 819 z "},"ô":{"ha":890,"x_min":4,"x_max":867,"o":"m 368 -14 q 164 21 247 -14 q 42 125 81 56 q 18 296 4 194 q 29 362 22 328 q 46 426 36 396 q 133 598 75 529 q 282 701 190 667 q 500 736 374 736 q 698 701 614 736 q 824 598 782 667 q 851 426 867 529 q 839 362 846 396 q 824 296 832 328 q 740 125 796 194 q 594 21 685 56 q 368 -14 503 -14 m 401 208 q 456 231 442 208 q 485 303 471 254 q 499 361 490 324 q 510 419 507 399 q 512 490 517 465 q 467 514 507 514 q 413 490 428 514 q 385 419 397 465 q 371 361 379 399 q 360 303 363 324 q 358 231 353 254 q 401 208 363 208 m 247 826 q 229 849 225 826 q 240 867 232 860 l 432 1036 q 461 1057 449 1051 q 489 1063 474 1063 l 656 1063 q 681 1057 671 1063 q 701 1036 692 1051 l 821 867 q 824 849 826 860 q 797 826 819 826 l 717 826 q 690 828 703 826 q 663 836 676 829 l 547 894 l 407 836 q 378 828 392 829 q 350 826 364 826 l 247 826 z "},"ö":{"ha":890,"x_min":4,"x_max":867,"o":"m 368 -14 q 164 21 247 -14 q 42 125 81 56 q 18 296 4 194 q 29 362 22 328 q 46 426 36 396 q 133 598 75 529 q 282 701 190 667 q 500 736 374 736 q 698 701 614 736 q 824 598 782 667 q 851 426 867 529 q 839 362 846 396 q 824 296 832 328 q 740 125 796 194 q 594 21 685 56 q 368 -14 503 -14 m 401 208 q 456 231 442 208 q 485 303 471 254 q 499 361 490 324 q 510 419 507 399 q 512 490 517 465 q 467 514 507 514 q 413 490 428 514 q 385 419 397 465 q 371 361 379 399 q 360 303 363 324 q 358 231 353 254 q 401 208 363 208 m 606 826 q 585 835 592 826 q 581 858 578 844 l 617 1031 q 631 1053 619 1044 q 656 1063 642 1063 l 828 1063 q 849 1053 842 1063 q 853 1031 856 1044 l 817 858 q 803 835 814 844 q 778 826 792 826 l 606 826 m 274 826 q 253 835 260 826 q 249 858 246 844 l 285 1031 q 299 1053 288 1044 q 324 1063 310 1063 l 496 1063 q 517 1053 510 1063 q 521 1031 524 1044 l 485 858 q 471 835 482 844 q 446 826 460 826 l 274 826 z "},"ò":{"ha":890,"x_min":4,"x_max":867,"o":"m 368 -14 q 164 21 247 -14 q 42 125 81 56 q 18 296 4 194 q 29 362 22 328 q 46 426 36 396 q 133 598 75 529 q 282 701 190 667 q 500 736 374 736 q 698 701 614 736 q 824 598 782 667 q 851 426 867 529 q 839 362 846 396 q 824 296 832 328 q 740 125 796 194 q 594 21 685 56 q 368 -14 503 -14 m 401 208 q 456 231 442 208 q 485 303 471 254 q 499 361 490 324 q 510 419 507 399 q 512 490 517 465 q 467 514 507 514 q 413 490 428 514 q 385 419 397 465 q 371 361 379 399 q 360 303 363 324 q 358 231 353 254 q 401 208 363 208 m 450 826 q 417 833 428 826 q 397 850 407 840 l 228 1018 q 225 1035 224 1025 q 257 1063 229 1063 l 529 1063 q 554 1058 544 1063 q 575 1036 564 1054 l 678 867 q 681 849 683 860 q 654 826 676 826 l 450 826 z "},"ő":{"ha":890,"x_min":4,"x_max":1018,"o":"m 368 -14 q 164 21 247 -14 q 42 125 81 56 q 18 296 4 194 q 29 362 22 328 q 46 426 36 396 q 133 598 75 529 q 282 701 190 667 q 500 736 374 736 q 698 701 614 736 q 824 598 782 667 q 851 426 867 529 q 839 362 846 396 q 824 296 832 328 q 740 125 796 194 q 594 21 685 56 q 368 -14 503 -14 m 401 208 q 456 231 442 208 q 485 303 471 254 q 499 361 490 324 q 510 419 507 399 q 512 490 517 465 q 467 514 507 514 q 413 490 428 514 q 385 419 397 465 q 371 361 379 399 q 360 303 363 324 q 358 231 353 254 q 401 208 363 208 m 624 826 q 606 849 601 826 q 611 860 607 854 q 618 869 615 865 l 728 1036 q 750 1056 738 1050 q 785 1063 763 1063 l 989 1063 q 1011 1036 1018 1063 q 999 1018 1010 1026 l 804 846 q 753 826 782 826 l 624 826 m 268 826 q 250 849 246 826 q 256 860 251 854 q 263 869 260 865 l 372 1036 q 394 1056 382 1050 q 429 1063 407 1063 l 633 1063 q 656 1036 663 1063 q 643 1018 654 1026 l 449 846 q 397 826 426 826 l 268 826 z "},"ō":{"ha":890,"x_min":4,"x_max":867,"o":"m 368 -14 q 164 21 247 -14 q 42 125 81 56 q 18 296 4 194 q 29 362 22 328 q 46 426 36 396 q 133 598 75 529 q 282 701 190 667 q 500 736 374 736 q 698 701 614 736 q 824 598 782 667 q 851 426 867 529 q 839 362 846 396 q 824 296 832 328 q 740 125 796 194 q 594 21 685 56 q 368 -14 503 -14 m 401 208 q 456 231 442 208 q 485 303 471 254 q 499 361 490 324 q 510 419 507 399 q 512 490 517 465 q 467 514 507 514 q 413 490 428 514 q 385 419 397 465 q 371 361 379 399 q 360 303 363 324 q 358 231 353 254 q 401 208 363 208 m 294 826 q 274 835 281 826 q 269 858 267 844 l 300 1003 q 314 1026 303 1017 q 339 1035 325 1035 l 793 1035 q 814 1026 807 1035 q 818 1003 821 1017 l 788 858 q 774 835 785 844 q 749 826 763 826 l 294 826 z "},"ø":{"ha":890,"x_min":-40,"x_max":917,"o":"m 368 -14 q 164 21 247 -14 q 42 125 81 56 q 18 296 4 194 q 29 362 22 328 q 46 426 36 396 q 133 598 75 529 q 282 701 190 667 q 500 736 374 736 q 698 701 614 736 q 824 598 782 667 q 851 426 867 529 q 839 362 846 396 q 824 296 832 328 q 740 125 796 194 q 594 21 685 56 q 368 -14 503 -14 m 401 208 q 456 231 442 208 q 485 303 471 254 q 499 361 490 324 q 510 419 507 399 q 512 490 517 465 q 467 514 507 514 q 413 490 428 514 q 385 419 397 465 q 371 361 379 399 q 360 303 363 324 q 358 231 353 254 q 401 208 363 208 m -12 -39 q -32 -31 -24 -39 q -40 -11 -40 -22 q -25 17 -40 1 l 792 739 q 813 754 803 749 q 836 760 822 760 l 889 760 q 908 751 900 760 q 917 732 917 743 q 906 707 917 718 l 86 -18 q 67 -32 78 -25 q 40 -39 56 -39 l -12 -39 z "},"ǿ":{"ha":890,"x_min":-40,"x_max":940,"o":"m 368 -14 q 164 21 247 -14 q 42 125 81 56 q 18 296 4 194 q 29 362 22 328 q 46 426 36 396 q 133 598 75 529 q 282 701 190 667 q 500 736 374 736 q 698 701 614 736 q 824 598 782 667 q 851 426 867 529 q 839 362 846 396 q 824 296 832 328 q 740 125 796 194 q 594 21 685 56 q 368 -14 503 -14 m 401 208 q 456 231 442 208 q 485 303 471 254 q 499 361 490 324 q 510 419 507 399 q 512 490 517 465 q 467 514 507 514 q 413 490 428 514 q 385 419 397 465 q 371 361 379 399 q 360 303 363 324 q 358 231 353 254 q 401 208 363 208 m -12 -39 q -32 -31 -24 -39 q -40 -11 -40 -22 q -25 17 -40 1 l 792 739 q 813 754 803 749 q 836 760 822 760 l 889 760 q 908 751 900 760 q 917 732 917 743 q 906 707 917 718 l 86 -18 q 67 -32 78 -25 q 40 -39 56 -39 l -12 -39 m 432 826 q 414 849 410 826 q 425 867 417 860 l 600 1036 q 631 1058 619 1054 q 657 1063 642 1063 l 915 1063 q 936 1035 940 1063 q 925 1018 935 1025 l 686 850 q 658 833 672 840 q 622 826 644 826 l 432 826 z "},"õ":{"ha":890,"x_min":4,"x_max":867,"o":"m 368 -14 q 164 21 247 -14 q 42 125 81 56 q 18 296 4 194 q 29 362 22 328 q 46 426 36 396 q 133 598 75 529 q 282 701 190 667 q 500 736 374 736 q 698 701 614 736 q 824 598 782 667 q 851 426 867 529 q 839 362 846 396 q 824 296 832 328 q 740 125 796 194 q 594 21 685 56 q 368 -14 503 -14 m 401 208 q 456 231 442 208 q 485 303 471 254 q 499 361 490 324 q 510 419 507 399 q 512 490 517 465 q 467 514 507 514 q 413 490 428 514 q 385 419 397 465 q 371 361 379 399 q 360 303 363 324 q 358 231 353 254 q 401 208 363 208 m 643 819 q 574 832 601 819 q 526 857 547 844 q 476 869 504 869 q 444 859 456 869 q 422 838 432 849 q 397 826 413 826 l 281 826 q 265 834 271 826 q 260 851 258 842 q 279 912 265 875 q 318 985 293 949 q 383 1045 343 1021 q 481 1069 424 1069 q 549 1057 522 1069 q 599 1032 576 1044 q 649 1019 622 1019 q 681 1031 669 1019 q 701 1052 692 1042 q 726 1063 711 1063 l 843 1063 q 861 1055 856 1063 q 864 1036 867 1047 q 844 976 858 1013 q 805 904 831 940 q 740 844 779 868 q 643 819 700 819 z "},"œ":{"ha":1338,"x_min":24,"x_max":1333,"o":"m 375 -14 q 167 21 247 -14 q 56 125 88 56 q 38 296 24 194 q 50 362 43 328 q 65 426 57 396 q 159 598 94 529 q 319 701 224 667 q 535 736 415 736 q 663 724 606 736 q 764 686 721 711 q 874 724 815 711 q 996 736 932 736 q 1208 684 1132 736 q 1309 547 1285 632 q 1311 358 1333 461 l 1303 317 q 1285 290 1299 301 q 1257 279 1272 279 l 843 279 l 842 272 q 837 226 836 244 q 848 197 838 207 q 878 188 858 188 q 893 190 886 188 q 907 199 900 193 q 924 213 914 206 q 948 228 939 225 q 974 232 957 232 l 1236 232 q 1257 224 1250 232 q 1260 201 1264 215 q 1222 138 1253 175 q 1138 67 1192 101 q 1009 9 1085 32 q 838 -14 933 -14 q 717 -3 772 -14 q 622 31 663 8 q 510 -3 571 8 q 375 -14 449 -14 m 422 208 q 477 231 463 208 q 506 303 492 254 q 519 361 511 324 q 529 419 526 399 q 532 490 536 465 q 488 514 528 514 q 433 490 449 514 q 404 419 418 465 q 391 361 399 399 q 381 303 383 324 q 378 231 374 254 q 422 208 383 208 m 881 453 l 992 453 l 992 454 q 996 504 999 485 q 983 533 993 524 q 954 542 972 542 q 922 533 936 542 q 897 504 907 524 q 881 454 888 485 l 881 453 z "},"p":{"ha":918,"x_min":-75,"x_max":890,"o":"m -43 -264 q -67 -253 -58 -264 q -72 -226 -75 -242 l 121 685 q 138 711 124 700 q 167 722 151 722 l 403 722 q 426 711 418 722 q 432 685 435 700 l 424 643 q 513 710 464 683 q 635 736 563 736 q 746 719 696 736 q 831 663 796 701 q 878 564 865 625 q 875 415 890 503 q 865 361 869 385 q 851 306 860 338 q 797 163 831 224 q 717 64 763 103 q 618 6 672 25 q 503 -14 564 -14 q 394 6 444 -14 q 322 69 344 25 l 260 -226 q 243 -253 257 -242 q 214 -264 229 -264 l -43 -264 m 426 235 q 469 244 453 235 q 495 272 485 254 q 514 315 506 290 q 526 361 521 336 q 533 407 532 386 q 533 450 536 432 q 519 478 531 468 q 481 488 507 488 q 438 478 456 488 q 411 450 421 468 q 394 407 401 432 q 381 356 385 376 q 372 304 376 336 q 373 267 369 282 q 390 243 376 251 q 426 235 403 235 z "},"þ":{"ha":918,"x_min":-75,"x_max":890,"o":"m -43 -264 q -67 -253 -58 -264 q -72 -226 -75 -242 l 178 949 q 194 975 181 964 q 222 986 207 986 l 479 986 q 503 975 494 986 q 510 949 513 964 l 447 657 q 520 713 478 689 q 635 736 563 736 q 746 719 696 736 q 831 663 796 701 q 878 564 865 625 q 875 415 890 503 q 865 361 869 385 q 851 306 860 338 q 797 163 831 224 q 717 64 763 103 q 618 6 672 25 q 503 -14 564 -14 q 394 7 444 -14 q 322 69 344 28 l 260 -226 q 243 -253 257 -242 q 214 -264 229 -264 l -43 -264 m 426 235 q 469 244 453 235 q 495 272 485 254 q 514 315 506 290 q 526 361 521 336 q 533 407 532 386 q 533 450 536 432 q 519 478 531 468 q 481 488 507 488 q 438 478 456 488 q 411 450 421 468 q 394 407 401 432 q 381 356 385 376 q 372 304 376 336 q 373 267 369 282 q 390 243 376 251 q 426 235 403 235 z "},"q":{"ha":918,"x_min":8,"x_max":917,"o":"m 418 -264 q 394 -253 403 -264 q 389 -226 386 -242 l 451 69 q 366 6 411 25 q 263 -14 321 -14 q 152 6 203 -14 q 67 64 101 25 q 21 163 33 103 q 22 306 8 224 q 34 361 29 338 q 46 415 39 385 q 127 602 76 532 q 246 704 178 672 q 394 736 314 736 q 519 710 467 736 q 594 643 572 683 l 603 685 q 619 711 606 700 q 649 722 633 722 l 885 722 q 908 711 900 722 q 914 685 917 700 l 721 -226 q 704 -253 718 -242 q 675 -264 690 -264 l 418 -264 m 417 235 q 457 243 440 235 q 485 267 474 251 q 501 304 496 282 q 514 356 510 336 q 524 407 518 376 q 524 450 528 432 q 509 478 521 468 q 471 488 497 488 q 429 478 446 488 q 403 450 413 468 q 385 407 393 432 q 374 361 379 386 q 365 315 368 336 q 365 272 363 290 q 379 244 367 254 q 417 235 392 235 z "},"r":{"ha":721,"x_min":-19,"x_max":763,"o":"m 14 0 q -10 11 -1 0 q -17 38 -19 22 l 121 685 q 138 711 124 700 q 167 722 151 722 l 410 722 q 433 711 425 722 q 439 685 442 700 l 429 636 q 511 698 464 674 q 636 722 558 722 l 731 722 q 754 711 746 722 q 760 685 763 700 l 714 468 q 697 442 711 453 q 668 431 683 431 l 489 431 q 423 410 447 431 q 389 347 399 389 l 322 38 q 306 11 319 22 q 278 0 293 0 l 14 0 z "},"ŕ":{"ha":721,"x_min":-19,"x_max":858,"o":"m 14 0 q -10 11 -1 0 q -17 38 -19 22 l 121 685 q 138 711 124 700 q 167 722 151 722 l 410 722 q 433 711 425 722 q 439 685 442 700 l 429 636 q 511 698 464 674 q 636 722 558 722 l 731 722 q 754 711 746 722 q 760 685 763 700 l 714 468 q 697 442 711 453 q 668 431 683 431 l 489 431 q 423 410 447 431 q 389 347 399 389 l 322 38 q 306 11 319 22 q 278 0 293 0 l 14 0 m 350 826 q 332 849 328 826 q 343 867 335 860 l 518 1036 q 549 1058 538 1054 q 575 1063 560 1063 l 833 1063 q 854 1035 858 1063 q 843 1018 853 1025 l 604 850 q 576 833 590 840 q 540 826 563 826 l 350 826 z "},"ř":{"ha":721,"x_min":-19,"x_max":810,"o":"m 14 0 q -10 11 -1 0 q -17 38 -19 22 l 121 685 q 138 711 124 700 q 167 722 151 722 l 410 722 q 433 711 425 722 q 439 685 442 700 l 429 636 q 511 698 464 674 q 636 722 558 722 l 731 722 q 754 711 746 722 q 760 685 763 700 l 714 468 q 697 442 711 453 q 668 431 683 431 l 489 431 q 423 410 447 431 q 389 347 399 389 l 322 38 q 306 11 319 22 q 278 0 293 0 l 14 0 m 379 826 q 354 833 364 826 q 333 853 344 839 l 214 1022 q 211 1040 208 1029 q 221 1057 214 1051 q 238 1063 228 1063 l 318 1063 q 345 1061 332 1063 q 372 1053 358 1060 l 488 994 l 628 1053 q 657 1061 643 1060 q 685 1063 671 1063 l 788 1063 q 806 1040 810 1063 q 794 1022 803 1029 l 603 853 q 574 833 586 839 q 546 826 561 826 l 379 826 z "},"ŗ":{"ha":721,"x_min":-96,"x_max":763,"o":"m 14 0 q -10 11 -1 0 q -17 38 -19 22 l 121 685 q 138 711 124 700 q 167 722 151 722 l 410 722 q 433 711 425 722 q 439 685 442 700 l 429 636 q 511 698 464 674 q 636 722 558 722 l 731 722 q 754 711 746 722 q 760 685 763 700 l 714 468 q 697 442 711 453 q 668 431 683 431 l 489 431 q 423 410 447 431 q 389 347 399 389 l 322 38 q 306 11 319 22 q 278 0 293 0 l 14 0 m -69 -347 q -89 -338 -82 -347 q -93 -317 -96 -329 l -24 -124 q 2 -87 -17 -104 q 49 -69 21 -69 l 243 -69 q 263 -78 256 -69 q 267 -100 269 -87 q 265 -104 265 -101 q 263 -110 265 -107 l 146 -303 q 121 -332 138 -317 q 76 -347 104 -347 l -69 -347 z "},"s":{"ha":819,"x_min":-3,"x_max":811,"o":"m 331 -14 q 165 6 231 -14 q 62 58 99 26 q 11 123 25 89 q 1 185 -3 157 q 17 211 4 200 q 43 222 29 222 l 285 222 q 288 222 286 222 q 290 222 289 222 q 321 210 308 221 q 347 190 333 200 q 382 181 361 181 q 405 186 393 181 q 418 201 417 192 q 415 224 421 214 q 382 244 410 233 q 288 267 354 254 q 174 306 226 279 q 94 379 121 332 q 83 499 68 426 q 147 613 96 558 q 285 701 199 667 q 485 736 371 736 q 633 717 571 736 q 736 667 696 697 q 794 601 776 636 q 806 538 811 567 q 792 511 804 522 q 768 500 781 500 l 549 500 q 542 500 546 500 q 535 500 538 500 q 502 510 515 500 q 476 531 489 521 q 442 542 463 542 q 422 535 432 542 q 410 519 413 529 q 413 498 407 508 q 449 478 419 488 q 549 458 479 469 q 697 407 646 444 q 765 321 749 369 q 771 225 781 272 q 699 97 756 151 q 549 15 642 43 q 331 -14 456 -14 z "},"ś":{"ha":819,"x_min":-3,"x_max":876,"o":"m 331 -14 q 165 6 231 -14 q 62 58 99 26 q 11 123 25 89 q 1 185 -3 157 q 17 211 4 200 q 43 222 29 222 l 285 222 q 288 222 286 222 q 290 222 289 222 q 321 210 308 221 q 347 190 333 200 q 382 181 361 181 q 405 186 393 181 q 418 201 417 192 q 415 224 421 214 q 382 244 410 233 q 288 267 354 254 q 174 306 226 279 q 94 379 121 332 q 83 499 68 426 q 147 613 96 558 q 285 701 199 667 q 485 736 371 736 q 633 717 571 736 q 736 667 696 697 q 794 601 776 636 q 806 538 811 567 q 792 511 804 522 q 768 500 781 500 l 549 500 q 542 500 546 500 q 535 500 538 500 q 502 510 515 500 q 476 531 489 521 q 442 542 463 542 q 422 535 432 542 q 410 519 413 529 q 413 498 407 508 q 449 478 419 488 q 549 458 479 469 q 697 407 646 444 q 765 321 749 369 q 771 225 781 272 q 699 97 756 151 q 549 15 642 43 q 331 -14 456 -14 m 368 826 q 350 849 346 826 q 361 867 353 860 l 536 1036 q 567 1058 556 1054 q 593 1063 578 1063 l 851 1063 q 872 1035 876 1063 q 861 1018 871 1025 l 622 850 q 594 833 608 840 q 558 826 581 826 l 368 826 z "},"š":{"ha":819,"x_min":-3,"x_max":828,"o":"m 331 -14 q 165 6 231 -14 q 62 58 99 26 q 11 123 25 89 q 1 185 -3 157 q 17 211 4 200 q 43 222 29 222 l 285 222 q 288 222 286 222 q 290 222 289 222 q 321 210 308 221 q 347 190 333 200 q 382 181 361 181 q 405 186 393 181 q 418 201 417 192 q 415 224 421 214 q 382 244 410 233 q 288 267 354 254 q 174 306 226 279 q 94 379 121 332 q 83 499 68 426 q 147 613 96 558 q 285 701 199 667 q 485 736 371 736 q 633 717 571 736 q 736 667 696 697 q 794 601 776 636 q 806 538 811 567 q 792 511 804 522 q 768 500 781 500 l 549 500 q 542 500 546 500 q 535 500 538 500 q 502 510 515 500 q 476 531 489 521 q 442 542 463 542 q 422 535 432 542 q 410 519 413 529 q 413 498 407 508 q 449 478 419 488 q 549 458 479 469 q 697 407 646 444 q 765 321 749 369 q 771 225 781 272 q 699 97 756 151 q 549 15 642 43 q 331 -14 456 -14 m 397 826 q 372 833 382 826 q 351 853 363 839 l 232 1022 q 229 1040 226 1029 q 239 1057 232 1051 q 256 1063 246 1063 l 336 1063 q 363 1061 350 1063 q 390 1053 376 1060 l 506 994 l 646 1053 q 675 1061 661 1060 q 703 1063 689 1063 l 806 1063 q 824 1040 828 1063 q 813 1022 821 1029 l 621 853 q 592 833 604 839 q 564 826 579 826 l 397 826 z "},"ş":{"ha":819,"x_min":-4,"x_max":811,"o":"m 310 -306 q 246 -294 274 -306 q 209 -265 218 -282 q 218 -235 200 -249 l 253 -210 q 275 -201 267 -199 q 294 -208 283 -203 q 329 -214 306 -214 q 361 -203 349 -214 q 376 -181 374 -193 q 372 -158 379 -168 q 344 -147 365 -147 q 317 -151 332 -147 q 290 -155 303 -154 q 269 -147 276 -156 l 246 -118 q 239 -100 239 -108 q 253 -72 239 -92 l 293 -12 q 109 31 175 -3 q 19 108 43 65 q 1 185 -4 150 q 17 211 4 200 q 43 222 29 222 l 274 222 q 279 222 276 222 q 285 222 282 222 q 318 212 306 222 q 345 191 331 201 q 382 181 360 181 q 405 186 393 181 q 418 201 417 192 q 415 224 421 214 q 382 244 410 233 q 288 267 354 254 q 174 306 226 279 q 94 379 121 332 q 83 499 68 426 q 147 613 96 558 q 285 701 199 667 q 485 736 371 736 q 633 717 571 736 q 736 667 696 697 q 794 601 776 636 q 806 538 811 567 q 792 511 804 522 q 768 500 781 500 l 546 500 q 540 500 543 500 q 535 500 538 500 q 502 510 515 500 q 476 531 489 521 q 442 542 463 542 q 422 535 432 542 q 410 519 413 529 q 413 498 407 508 q 449 478 419 488 q 549 458 479 469 q 697 407 646 444 q 765 321 749 369 q 771 225 781 272 q 648 60 749 122 q 381 -12 547 -3 l 346 -62 q 369 -58 354 -60 q 389 -56 385 -56 q 464 -90 442 -56 q 475 -181 486 -125 q 417 -271 463 -236 q 310 -306 372 -306 z "},"ŝ":{"ha":819,"x_min":-3,"x_max":811,"o":"m 331 -14 q 165 6 231 -14 q 62 58 99 26 q 11 123 25 89 q 1 185 -3 157 q 17 211 4 200 q 43 222 29 222 l 285 222 q 288 222 286 222 q 290 222 289 222 q 321 210 308 221 q 347 190 333 200 q 382 181 361 181 q 405 186 393 181 q 418 201 417 192 q 415 224 421 214 q 382 244 410 233 q 288 267 354 254 q 174 306 226 279 q 94 379 121 332 q 83 499 68 426 q 147 613 96 558 q 285 701 199 667 q 485 736 371 736 q 633 717 571 736 q 736 667 696 697 q 794 601 776 636 q 806 538 811 567 q 792 511 804 522 q 768 500 781 500 l 549 500 q 542 500 546 500 q 535 500 538 500 q 502 510 515 500 q 476 531 489 521 q 442 542 463 542 q 422 535 432 542 q 410 519 413 529 q 413 498 407 508 q 449 478 419 488 q 549 458 479 469 q 697 407 646 444 q 765 321 749 369 q 771 225 781 272 q 699 97 756 151 q 549 15 642 43 q 331 -14 456 -14 m 203 826 q 185 849 181 826 q 196 867 188 860 l 388 1036 q 417 1057 404 1051 q 444 1063 429 1063 l 611 1063 q 637 1057 626 1063 q 657 1036 647 1051 l 776 867 q 779 849 782 860 q 753 826 775 826 l 672 826 q 645 828 658 826 q 618 836 632 829 l 503 894 l 363 836 q 333 828 347 829 q 306 826 319 826 l 203 826 z "},"ș":{"ha":819,"x_min":-3,"x_max":811,"o":"m 331 -14 q 165 6 231 -14 q 62 58 99 26 q 11 123 25 89 q 1 185 -3 157 q 17 211 4 200 q 43 222 29 222 l 285 222 q 288 222 286 222 q 290 222 289 222 q 321 210 308 221 q 347 190 333 200 q 382 181 361 181 q 405 186 393 181 q 418 201 417 192 q 415 224 421 214 q 382 244 410 233 q 288 267 354 254 q 174 306 226 279 q 94 379 121 332 q 83 499 68 426 q 147 613 96 558 q 285 701 199 667 q 485 736 371 736 q 633 717 571 736 q 736 667 696 697 q 794 601 776 636 q 806 538 811 567 q 792 511 804 522 q 768 500 781 500 l 549 500 q 542 500 546 500 q 535 500 538 500 q 502 510 515 500 q 476 531 489 521 q 442 542 463 542 q 422 535 432 542 q 410 519 413 529 q 413 498 407 508 q 449 478 419 488 q 549 458 479 469 q 697 407 646 444 q 765 321 749 369 q 771 225 781 272 q 699 97 756 151 q 549 15 642 43 q 331 -14 456 -14 m 106 -347 q 86 -338 93 -347 q 82 -317 79 -329 l 151 -124 q 177 -87 158 -104 q 224 -69 196 -69 l 418 -69 q 438 -78 431 -69 q 442 -100 444 -87 q 440 -104 440 -101 q 438 -110 440 -107 l 321 -303 q 296 -332 313 -317 q 251 -347 279 -347 l 106 -347 z "},"ß":{"ha":947,"x_min":0,"x_max":964,"o":"m 32 0 q 8 11 17 0 q 3 38 0 22 l 128 628 q 210 810 150 729 q 370 938 269 890 q 614 986 471 986 q 835 944 757 986 q 939 837 914 903 q 949 697 964 771 q 925 628 940 660 q 886 569 910 596 q 829 521 863 543 q 884 474 863 503 q 913 403 906 444 q 906 300 919 361 q 860 193 894 246 q 769 97 825 140 q 633 26 713 53 q 453 0 554 0 l 404 0 q 373 11 382 0 q 367 38 364 22 l 400 196 q 417 223 403 211 q 454 233 432 235 l 457 233 q 528 256 497 233 q 567 315 560 278 q 555 374 575 351 q 486 397 535 397 l 483 397 q 455 408 461 397 q 451 435 449 419 l 481 571 q 492 597 483 586 q 528 608 501 608 l 532 608 q 601 629 572 610 q 636 679 631 649 q 624 731 643 710 q 564 751 604 751 q 494 725 524 751 q 453 638 465 699 l 325 38 q 308 11 322 22 q 279 0 294 0 l 32 0 z "},"ſ":{"ha":536,"x_min":40,"x_max":808,"o":"m 106 0 q 81 11 90 0 q 75 38 72 22 l 169 479 l 74 479 q 49 490 58 479 q 44 517 40 501 l 79 685 q 96 711 82 700 q 125 722 110 722 l 221 722 l 226 746 q 306 921 251 860 q 440 1005 360 982 q 619 1028 519 1028 l 776 1028 q 800 1017 792 1028 q 806 990 808 1006 l 769 822 q 753 796 767 807 q 725 785 740 785 l 613 785 q 565 773 582 785 q 543 739 547 761 l 393 38 q 377 11 390 22 q 349 0 364 0 l 106 0 z "},"t":{"ha":735,"x_min":32,"x_max":750,"o":"m 433 0 q 257 27 333 0 q 146 119 181 54 q 135 299 111 185 l 174 479 l 64 479 q 40 490 49 479 q 35 517 32 501 l 69 685 q 86 711 72 700 q 115 722 100 722 l 225 722 l 274 949 q 290 975 276 964 q 318 986 303 986 l 561 986 q 585 975 576 986 q 592 949 594 964 l 543 722 l 718 722 q 742 711 733 722 q 747 685 750 700 l 713 517 q 696 490 710 501 q 667 479 682 479 l 492 479 l 458 326 q 457 290 454 306 q 472 265 460 274 q 504 257 483 257 l 631 257 q 654 246 646 257 q 660 219 663 235 l 621 38 q 605 11 618 22 q 576 0 592 0 l 433 0 z "},"ŧ":{"ha":738,"x_min":10,"x_max":753,"o":"m 422 0 q 249 27 322 0 q 144 119 175 54 q 138 299 114 185 l 153 368 l 43 368 q 19 379 28 368 q 14 406 10 390 l 28 476 q 45 503 32 492 q 74 514 58 514 l 183 514 l 197 576 l 88 576 q 63 588 72 576 q 57 614 54 599 l 72 685 q 89 711 75 700 q 118 722 103 722 l 228 722 l 276 949 q 292 975 279 964 q 321 986 306 986 l 564 986 q 588 975 579 986 q 594 949 597 964 l 546 722 l 721 722 q 744 711 736 722 q 750 685 753 700 l 735 614 q 719 588 732 599 q 690 576 706 576 l 515 576 l 501 514 l 676 514 q 701 503 692 514 q 706 476 710 492 l 692 406 q 674 379 688 390 q 646 368 661 368 l 471 368 l 461 326 q 460 290 457 306 q 475 265 464 274 q 507 257 486 257 l 633 257 q 657 246 649 257 q 663 219 665 235 l 624 38 q 608 11 621 22 q 579 0 594 0 l 422 0 z "},"ť":{"ha":735,"x_min":32,"x_max":1036,"o":"m 433 0 q 257 27 333 0 q 146 119 181 54 q 135 299 111 185 l 174 479 l 64 479 q 40 490 49 479 q 35 517 32 501 l 69 685 q 86 711 72 700 q 115 722 100 722 l 225 722 l 274 949 q 290 975 276 964 q 318 986 303 986 l 561 986 q 585 975 576 986 q 592 949 594 964 l 543 722 l 718 722 q 742 711 733 722 q 747 685 750 700 l 713 517 q 696 490 710 501 q 667 479 682 479 l 492 479 l 458 326 q 457 290 454 306 q 472 265 460 274 q 504 257 483 257 l 631 257 q 654 246 646 257 q 660 219 663 235 l 621 38 q 605 11 618 22 q 576 0 592 0 l 433 0 m 697 847 q 678 856 685 847 q 674 878 671 865 l 743 1071 q 769 1108 750 1090 q 815 1125 788 1125 l 1010 1125 q 1029 1116 1022 1125 q 1033 1094 1036 1107 q 1032 1090 1032 1093 q 1029 1085 1032 1088 l 913 892 q 888 863 904 878 q 843 847 871 847 l 697 847 z "},"ț":{"ha":735,"x_min":32,"x_max":750,"o":"m 433 0 q 257 27 333 0 q 146 119 181 54 q 135 299 111 185 l 174 479 l 64 479 q 40 490 49 479 q 35 517 32 501 l 69 685 q 86 711 72 700 q 115 722 100 722 l 225 722 l 274 949 q 290 975 276 964 q 318 986 303 986 l 561 986 q 585 975 576 986 q 592 949 594 964 l 543 722 l 718 722 q 742 711 733 722 q 747 685 750 700 l 713 517 q 696 490 710 501 q 667 479 682 479 l 492 479 l 458 326 q 457 290 454 306 q 472 265 460 274 q 504 257 483 257 l 631 257 q 654 246 646 257 q 660 219 663 235 l 621 38 q 605 11 618 22 q 576 0 592 0 l 433 0 m 132 -347 q 113 -338 119 -347 q 108 -317 106 -329 l 178 -124 q 203 -87 185 -104 q 250 -69 222 -69 l 444 -69 q 464 -78 457 -69 q 468 -100 471 -87 q 467 -104 467 -101 q 464 -110 467 -107 l 347 -303 q 322 -332 339 -317 q 278 -347 306 -347 l 132 -347 z "},"u":{"ha":935,"x_min":8,"x_max":933,"o":"m 247 -14 q 119 19 178 -14 q 35 122 61 53 q 32 301 8 192 l 113 685 q 129 711 115 700 q 158 722 143 722 l 424 722 q 447 711 439 722 q 453 685 456 700 l 374 311 q 372 269 368 286 q 390 244 376 253 q 426 235 404 235 q 482 254 460 235 q 513 311 504 274 l 592 685 q 608 711 594 700 q 638 722 622 722 l 901 722 q 925 711 917 722 q 931 685 933 700 l 793 38 q 777 11 790 22 q 749 0 764 0 l 506 0 q 481 11 490 0 q 475 38 472 22 l 485 83 q 422 28 456 50 q 346 -3 388 7 q 247 -14 304 -14 z "},"ú":{"ha":935,"x_min":8,"x_max":939,"o":"m 247 -14 q 119 19 178 -14 q 35 122 61 53 q 32 301 8 192 l 113 685 q 129 711 115 700 q 158 722 143 722 l 424 722 q 447 711 439 722 q 453 685 456 700 l 374 311 q 372 269 368 286 q 390 244 376 253 q 426 235 404 235 q 482 254 460 235 q 513 311 504 274 l 592 685 q 608 711 594 700 q 638 722 622 722 l 901 722 q 925 711 917 722 q 931 685 933 700 l 793 38 q 777 11 790 22 q 749 0 764 0 l 506 0 q 481 11 490 0 q 475 38 472 22 l 485 83 q 422 28 456 50 q 346 -3 388 7 q 247 -14 304 -14 m 431 826 q 413 849 408 826 q 424 867 415 860 l 599 1036 q 629 1058 618 1054 q 656 1063 640 1063 l 914 1063 q 935 1035 939 1063 q 924 1018 933 1025 l 685 850 q 657 833 671 840 q 621 826 643 826 l 431 826 z "},"ŭ":{"ha":935,"x_min":8,"x_max":933,"o":"m 247 -14 q 119 19 178 -14 q 35 122 61 53 q 32 301 8 192 l 113 685 q 129 711 115 700 q 158 722 143 722 l 424 722 q 447 711 439 722 q 453 685 456 700 l 374 311 q 372 269 368 286 q 390 244 376 253 q 426 235 404 235 q 482 254 460 235 q 513 311 504 274 l 592 685 q 608 711 594 700 q 638 722 622 722 l 901 722 q 925 711 917 722 q 931 685 933 700 l 793 38 q 777 11 790 22 q 749 0 764 0 l 506 0 q 481 11 490 0 q 475 38 472 22 l 485 83 q 422 28 456 50 q 346 -3 388 7 q 247 -14 304 -14 m 556 819 q 435 848 486 819 q 360 925 383 876 q 349 1036 336 974 q 360 1055 351 1047 q 381 1063 368 1063 l 511 1063 q 529 1055 524 1063 q 532 1036 535 1047 q 533 983 526 1006 q 571 960 540 960 q 620 983 603 960 q 643 1036 638 1006 q 654 1055 646 1047 q 675 1063 663 1063 l 806 1063 q 824 1055 818 1063 q 826 1036 829 1047 q 782 925 814 974 q 694 848 750 876 q 556 819 639 819 z "},"û":{"ha":935,"x_min":8,"x_max":933,"o":"m 247 -14 q 119 19 178 -14 q 35 122 61 53 q 32 301 8 192 l 113 685 q 129 711 115 700 q 158 722 143 722 l 424 722 q 447 711 439 722 q 453 685 456 700 l 374 311 q 372 269 368 286 q 390 244 376 253 q 426 235 404 235 q 482 254 460 235 q 513 311 504 274 l 592 685 q 608 711 594 700 q 638 722 622 722 l 901 722 q 925 711 917 722 q 931 685 933 700 l 793 38 q 777 11 790 22 q 749 0 764 0 l 506 0 q 481 11 490 0 q 475 38 472 22 l 485 83 q 422 28 456 50 q 346 -3 388 7 q 247 -14 304 -14 m 265 826 q 247 849 243 826 q 258 867 250 860 l 450 1036 q 479 1057 467 1051 q 507 1063 492 1063 l 674 1063 q 699 1057 689 1063 q 719 1036 710 1051 l 839 867 q 842 849 844 860 q 815 826 838 826 l 735 826 q 708 828 721 826 q 681 836 694 829 l 565 894 l 425 836 q 396 828 410 829 q 368 826 382 826 l 265 826 z "},"ü":{"ha":935,"x_min":8,"x_max":933,"o":"m 247 -14 q 119 19 178 -14 q 35 122 61 53 q 32 301 8 192 l 113 685 q 129 711 115 700 q 158 722 143 722 l 424 722 q 447 711 439 722 q 453 685 456 700 l 374 311 q 372 269 368 286 q 390 244 376 253 q 426 235 404 235 q 482 254 460 235 q 513 311 504 274 l 592 685 q 608 711 594 700 q 638 722 622 722 l 901 722 q 925 711 917 722 q 931 685 933 700 l 793 38 q 777 11 790 22 q 749 0 764 0 l 506 0 q 481 11 490 0 q 475 38 472 22 l 485 83 q 422 28 456 50 q 346 -3 388 7 q 247 -14 304 -14 m 624 826 q 603 835 610 826 q 599 858 596 844 l 635 1031 q 649 1053 638 1044 q 674 1063 660 1063 l 846 1063 q 867 1053 860 1063 q 871 1031 874 1044 l 835 858 q 821 835 832 844 q 796 826 810 826 l 624 826 m 292 826 q 271 835 278 826 q 267 858 264 844 l 303 1031 q 317 1053 306 1044 q 342 1063 328 1063 l 514 1063 q 535 1053 528 1063 q 539 1031 542 1044 l 503 858 q 489 835 500 844 q 464 826 478 826 l 292 826 z "},"ù":{"ha":935,"x_min":8,"x_max":933,"o":"m 247 -14 q 119 19 178 -14 q 35 122 61 53 q 32 301 8 192 l 113 685 q 129 711 115 700 q 158 722 143 722 l 424 722 q 447 711 439 722 q 453 685 456 700 l 374 311 q 372 269 368 286 q 390 244 376 253 q 426 235 404 235 q 482 254 460 235 q 513 311 504 274 l 592 685 q 608 711 594 700 q 638 722 622 722 l 901 722 q 925 711 917 722 q 931 685 933 700 l 793 38 q 777 11 790 22 q 749 0 764 0 l 506 0 q 481 11 490 0 q 475 38 472 22 l 485 83 q 422 28 456 50 q 346 -3 388 7 q 247 -14 304 -14 m 468 826 q 435 833 446 826 q 415 850 425 840 l 246 1018 q 243 1035 242 1025 q 275 1063 247 1063 l 547 1063 q 572 1058 563 1063 q 593 1036 582 1054 l 696 867 q 699 849 701 860 q 672 826 694 826 l 468 826 z "},"ű":{"ha":935,"x_min":8,"x_max":1036,"o":"m 247 -14 q 119 19 178 -14 q 35 122 61 53 q 32 301 8 192 l 113 685 q 129 711 115 700 q 158 722 143 722 l 424 722 q 447 711 439 722 q 453 685 456 700 l 374 311 q 372 269 368 286 q 390 244 376 253 q 426 235 404 235 q 482 254 460 235 q 513 311 504 274 l 592 685 q 608 711 594 700 q 638 722 622 722 l 901 722 q 925 711 917 722 q 931 685 933 700 l 793 38 q 777 11 790 22 q 749 0 764 0 l 506 0 q 481 11 490 0 q 475 38 472 22 l 485 83 q 422 28 456 50 q 346 -3 388 7 q 247 -14 304 -14 m 642 826 q 624 849 619 826 q 629 860 625 854 q 636 869 633 865 l 746 1036 q 768 1056 756 1050 q 803 1063 781 1063 l 1007 1063 q 1029 1036 1036 1063 q 1017 1018 1028 1026 l 822 846 q 771 826 800 826 l 642 826 m 286 826 q 268 849 264 826 q 274 860 269 854 q 281 869 278 865 l 390 1036 q 413 1056 400 1050 q 447 1063 425 1063 l 651 1063 q 674 1036 681 1063 q 661 1018 672 1026 l 467 846 q 415 826 444 826 l 286 826 z "},"ū":{"ha":935,"x_min":8,"x_max":933,"o":"m 247 -14 q 119 19 178 -14 q 35 122 61 53 q 32 301 8 192 l 113 685 q 129 711 115 700 q 158 722 143 722 l 424 722 q 447 711 439 722 q 453 685 456 700 l 374 311 q 372 269 368 286 q 390 244 376 253 q 426 235 404 235 q 482 254 460 235 q 513 311 504 274 l 592 685 q 608 711 594 700 q 638 722 622 722 l 901 722 q 925 711 917 722 q 931 685 933 700 l 793 38 q 777 11 790 22 q 749 0 764 0 l 506 0 q 481 11 490 0 q 475 38 472 22 l 485 83 q 422 28 456 50 q 346 -3 388 7 q 247 -14 304 -14 m 313 826 q 292 835 299 826 q 288 858 285 844 l 318 1003 q 332 1026 321 1017 q 357 1035 343 1035 l 811 1035 q 832 1026 825 1035 q 836 1003 839 1017 l 806 858 q 792 835 803 844 q 767 826 781 826 l 313 826 z "},"ų":{"ha":936,"x_min":29,"x_max":954,"o":"m 683 -306 q 554 -274 600 -306 q 495 -187 508 -242 q 496 -68 482 -133 q 501 -44 499 -56 q 508 -22 504 -33 q 517 0 513 -10 q 499 13 506 3 q 496 38 493 24 l 506 83 q 394 9 461 32 q 254 -14 328 -14 q 130 19 185 -14 q 52 122 75 53 q 51 301 29 192 l 133 685 q 150 711 136 700 q 179 722 164 722 l 444 722 q 468 711 460 722 q 474 685 476 700 l 394 311 q 447 235 378 235 q 503 254 481 235 q 533 311 525 274 l 613 685 q 629 711 615 700 q 658 722 643 722 l 922 722 q 946 711 938 722 q 951 685 954 700 l 814 38 q 797 11 811 22 q 768 0 783 0 l 746 0 q 693 -24 711 -1 q 671 -68 675 -47 q 675 -113 665 -90 q 725 -136 685 -136 l 739 -136 q 763 -147 754 -136 q 769 -174 772 -158 l 749 -268 q 732 -294 746 -283 q 703 -306 718 -306 l 683 -306 z "},"ů":{"ha":935,"x_min":8,"x_max":933,"o":"m 247 -14 q 119 19 178 -14 q 35 122 61 53 q 32 301 8 192 l 113 685 q 129 711 115 700 q 158 722 143 722 l 424 722 q 447 711 439 722 q 453 685 456 700 l 374 311 q 372 269 368 286 q 390 244 376 253 q 426 235 404 235 q 482 254 460 235 q 513 311 504 274 l 592 685 q 608 711 594 700 q 638 722 622 722 l 901 722 q 925 711 917 722 q 931 685 933 700 l 793 38 q 777 11 790 22 q 749 0 764 0 l 506 0 q 481 11 490 0 q 475 38 472 22 l 485 83 q 422 28 456 50 q 346 -3 388 7 q 247 -14 304 -14 m 535 819 q 444 857 478 819 q 424 951 411 894 q 485 1046 436 1008 q 590 1083 533 1083 q 681 1046 647 1083 q 701 951 714 1008 q 640 857 689 894 q 535 819 592 819 m 554 910 q 586 922 572 910 q 604 951 600 933 q 599 981 608 969 q 571 993 589 993 q 539 981 553 993 q 521 951 525 969 q 526 922 517 933 q 554 910 536 910 z "},"ũ":{"ha":935,"x_min":8,"x_max":933,"o":"m 247 -14 q 119 19 178 -14 q 35 122 61 53 q 32 301 8 192 l 113 685 q 129 711 115 700 q 158 722 143 722 l 424 722 q 447 711 439 722 q 453 685 456 700 l 374 311 q 372 269 368 286 q 390 244 376 253 q 426 235 404 235 q 482 254 460 235 q 513 311 504 274 l 592 685 q 608 711 594 700 q 638 722 622 722 l 901 722 q 925 711 917 722 q 931 685 933 700 l 793 38 q 777 11 790 22 q 749 0 764 0 l 506 0 q 481 11 490 0 q 475 38 472 22 l 485 83 q 422 28 456 50 q 346 -3 388 7 q 247 -14 304 -14 m 661 819 q 592 832 619 819 q 544 857 565 844 q 494 869 522 869 q 462 859 474 869 q 440 838 450 849 q 415 826 431 826 l 299 826 q 283 834 289 826 q 278 851 276 842 q 297 912 283 875 q 336 985 311 949 q 401 1045 361 1021 q 499 1069 442 1069 q 567 1057 540 1069 q 617 1032 594 1044 q 667 1019 640 1019 q 699 1031 688 1019 q 719 1052 710 1042 q 744 1063 729 1063 l 861 1063 q 879 1055 874 1063 q 882 1036 885 1047 q 863 976 876 1013 q 823 904 849 940 q 758 844 797 868 q 661 819 718 819 z "},"v":{"ha":878,"x_min":69,"x_max":929,"o":"m 242 0 q 213 11 221 0 q 203 35 206 22 l 72 679 q 79 709 69 696 q 114 722 89 722 l 335 722 q 364 711 356 722 q 374 689 372 700 l 415 365 l 596 689 q 615 711 603 700 q 649 722 628 722 l 897 722 q 924 708 918 722 q 919 679 929 694 l 517 35 q 496 11 507 22 q 464 0 485 0 l 242 0 z "},"w":{"ha":1211,"x_min":76,"x_max":1251,"o":"m 183 0 q 154 11 163 0 q 144 35 146 22 l 78 678 q 90 708 76 694 q 119 722 103 722 l 326 722 q 356 711 347 722 q 367 689 365 700 l 390 400 l 542 689 q 562 711 549 700 q 596 722 575 722 l 725 722 q 755 711 746 722 q 765 689 764 700 l 794 400 l 940 689 q 960 711 946 700 q 994 722 974 722 l 1222 722 q 1247 708 1242 722 q 1244 678 1251 693 l 906 35 q 887 11 900 22 q 853 0 874 0 l 667 0 q 638 11 646 0 q 628 35 631 22 l 575 315 l 415 35 q 396 11 408 22 q 363 0 383 0 l 183 0 z "},"ẃ":{"ha":1211,"x_min":76,"x_max":1251,"o":"m 183 0 q 154 11 163 0 q 144 35 146 22 l 78 678 q 90 708 76 694 q 119 722 103 722 l 326 722 q 356 711 347 722 q 367 689 365 700 l 390 400 l 542 689 q 562 711 549 700 q 596 722 575 722 l 725 722 q 755 711 746 722 q 765 689 764 700 l 794 400 l 940 689 q 960 711 946 700 q 994 722 974 722 l 1222 722 q 1247 708 1242 722 q 1244 678 1251 693 l 906 35 q 887 11 900 22 q 853 0 874 0 l 667 0 q 638 11 646 0 q 628 35 631 22 l 575 315 l 415 35 q 396 11 408 22 q 363 0 383 0 l 183 0 m 567 826 q 549 849 544 826 q 560 867 551 860 l 735 1036 q 765 1058 754 1054 q 792 1063 776 1063 l 1050 1063 q 1071 1035 1075 1063 q 1060 1018 1069 1025 l 821 850 q 793 833 807 840 q 757 826 779 826 l 567 826 z "},"ŵ":{"ha":1211,"x_min":76,"x_max":1251,"o":"m 183 0 q 154 11 163 0 q 144 35 146 22 l 78 678 q 90 708 76 694 q 119 722 103 722 l 326 722 q 356 711 347 722 q 367 689 365 700 l 390 400 l 542 689 q 562 711 549 700 q 596 722 575 722 l 725 722 q 755 711 746 722 q 765 689 764 700 l 794 400 l 940 689 q 960 711 946 700 q 994 722 974 722 l 1222 722 q 1247 708 1242 722 q 1244 678 1251 693 l 906 35 q 887 11 900 22 q 853 0 874 0 l 667 0 q 638 11 646 0 q 628 35 631 22 l 575 315 l 415 35 q 396 11 408 22 q 363 0 383 0 l 183 0 m 401 826 q 383 849 379 826 q 394 867 386 860 l 586 1036 q 615 1057 603 1051 q 643 1063 628 1063 l 810 1063 q 835 1057 825 1063 q 856 1036 846 1051 l 975 867 q 978 849 981 860 q 951 826 974 826 l 871 826 q 844 828 857 826 q 817 836 831 829 l 701 894 l 561 836 q 532 828 546 829 q 504 826 518 826 l 401 826 z "},"ẅ":{"ha":1211,"x_min":76,"x_max":1251,"o":"m 183 0 q 154 11 163 0 q 144 35 146 22 l 78 678 q 90 708 76 694 q 119 722 103 722 l 326 722 q 356 711 347 722 q 367 689 365 700 l 390 400 l 542 689 q 562 711 549 700 q 596 722 575 722 l 725 722 q 755 711 746 722 q 765 689 764 700 l 794 400 l 940 689 q 960 711 946 700 q 994 722 974 722 l 1222 722 q 1247 708 1242 722 q 1244 678 1251 693 l 906 35 q 887 11 900 22 q 853 0 874 0 l 667 0 q 638 11 646 0 q 628 35 631 22 l 575 315 l 415 35 q 396 11 408 22 q 363 0 383 0 l 183 0 m 760 826 q 739 835 746 826 q 735 858 732 844 l 771 1031 q 785 1053 774 1044 q 810 1063 796 1063 l 982 1063 q 1003 1053 996 1063 q 1007 1031 1010 1044 l 971 858 q 957 835 968 844 q 932 826 946 826 l 760 826 m 428 826 q 407 835 414 826 q 403 858 400 844 l 439 1031 q 453 1053 442 1044 q 478 1063 464 1063 l 650 1063 q 671 1053 664 1063 q 675 1031 678 1044 l 639 858 q 625 835 636 844 q 600 826 614 826 l 428 826 z "},"ẁ":{"ha":1211,"x_min":76,"x_max":1251,"o":"m 183 0 q 154 11 163 0 q 144 35 146 22 l 78 678 q 90 708 76 694 q 119 722 103 722 l 326 722 q 356 711 347 722 q 367 689 365 700 l 390 400 l 542 689 q 562 711 549 700 q 596 722 575 722 l 725 722 q 755 711 746 722 q 765 689 764 700 l 794 400 l 940 689 q 960 711 946 700 q 994 722 974 722 l 1222 722 q 1247 708 1242 722 q 1244 678 1251 693 l 906 35 q 887 11 900 22 q 853 0 874 0 l 667 0 q 638 11 646 0 q 628 35 631 22 l 575 315 l 415 35 q 396 11 408 22 q 363 0 383 0 l 183 0 m 604 826 q 572 833 582 826 q 551 850 561 840 l 382 1018 q 379 1035 378 1025 q 411 1063 383 1063 l 683 1063 q 708 1058 699 1063 q 729 1036 718 1054 l 832 867 q 835 849 838 860 q 808 826 831 826 l 604 826 z "},"x":{"ha":876,"x_min":-81,"x_max":921,"o":"m -51 0 q -77 19 -74 0 q -69 51 -81 38 l 229 382 l 96 671 q 103 706 90 689 q 135 722 117 722 l 381 722 q 409 713 401 722 q 419 696 417 703 l 472 582 l 575 696 q 592 713 581 703 q 625 722 604 722 l 892 722 q 918 703 915 722 q 908 671 921 683 l 635 364 l 778 51 q 776 17 786 33 q 740 0 765 0 l 488 0 q 462 8 469 0 q 450 24 454 17 l 389 157 l 268 24 q 252 9 263 18 q 222 0 242 0 l -51 0 z "},"y":{"ha":897,"x_min":33,"x_max":951,"o":"m 63 -264 q 40 -249 46 -264 q 43 -221 33 -235 l 211 46 l 76 679 q 85 709 74 696 q 119 722 97 722 l 340 722 q 369 711 361 722 q 378 689 376 700 l 432 372 l 624 689 q 644 712 631 701 q 678 722 657 722 l 924 722 q 947 708 943 722 q 944 679 951 693 l 360 -231 q 339 -253 353 -243 q 304 -264 325 -264 l 63 -264 z "},"ý":{"ha":897,"x_min":33,"x_max":951,"o":"m 63 -264 q 40 -249 46 -264 q 43 -221 33 -235 l 211 46 l 76 679 q 85 709 74 696 q 119 722 97 722 l 340 722 q 369 711 361 722 q 378 689 376 700 l 432 372 l 624 689 q 644 712 631 701 q 678 722 657 722 l 924 722 q 947 708 943 722 q 944 679 951 693 l 360 -231 q 339 -253 353 -243 q 304 -264 325 -264 l 63 -264 m 435 826 q 417 849 413 826 q 428 867 419 860 l 603 1036 q 633 1058 622 1054 q 660 1063 644 1063 l 918 1063 q 939 1035 943 1063 q 928 1018 938 1025 l 689 850 q 661 833 675 840 q 625 826 647 826 l 435 826 z "},"ŷ":{"ha":897,"x_min":33,"x_max":951,"o":"m 63 -264 q 40 -249 46 -264 q 43 -221 33 -235 l 211 46 l 76 679 q 85 709 74 696 q 119 722 97 722 l 340 722 q 369 711 361 722 q 378 689 376 700 l 432 372 l 624 689 q 644 712 631 701 q 678 722 657 722 l 924 722 q 947 708 943 722 q 944 679 951 693 l 360 -231 q 339 -253 353 -243 q 304 -264 325 -264 l 63 -264 m 269 826 q 251 849 247 826 q 263 867 254 860 l 454 1036 q 483 1057 471 1051 q 511 1063 496 1063 l 678 1063 q 703 1057 693 1063 q 724 1036 714 1051 l 843 867 q 846 849 849 860 q 819 826 842 826 l 739 826 q 712 828 725 826 q 685 836 699 829 l 569 894 l 429 836 q 400 828 414 829 q 372 826 386 826 l 269 826 z "},"ÿ":{"ha":897,"x_min":33,"x_max":951,"o":"m 63 -264 q 40 -249 46 -264 q 43 -221 33 -235 l 211 46 l 76 679 q 85 709 74 696 q 119 722 97 722 l 340 722 q 369 711 361 722 q 378 689 376 700 l 432 372 l 624 689 q 644 712 631 701 q 678 722 657 722 l 924 722 q 947 708 943 722 q 944 679 951 693 l 360 -231 q 339 -253 353 -243 q 304 -264 325 -264 l 63 -264 m 628 826 q 607 835 614 826 q 603 858 600 844 l 639 1031 q 653 1053 642 1044 q 678 1063 664 1063 l 850 1063 q 871 1053 864 1063 q 875 1031 878 1044 l 839 858 q 825 835 836 844 q 800 826 814 826 l 628 826 m 296 826 q 275 835 282 826 q 271 858 268 844 l 307 1031 q 321 1053 310 1044 q 346 1063 332 1063 l 518 1063 q 539 1053 532 1063 q 543 1031 546 1044 l 507 858 q 493 835 504 844 q 468 826 482 826 l 296 826 z "},"ỳ":{"ha":897,"x_min":33,"x_max":951,"o":"m 63 -264 q 40 -249 46 -264 q 43 -221 33 -235 l 211 46 l 76 679 q 85 709 74 696 q 119 722 97 722 l 340 722 q 369 711 361 722 q 378 689 376 700 l 432 372 l 624 689 q 644 712 631 701 q 678 722 657 722 l 924 722 q 947 708 943 722 q 944 679 951 693 l 360 -231 q 339 -253 353 -243 q 304 -264 325 -264 l 63 -264 m 472 826 q 440 833 450 826 q 419 850 429 840 l 250 1018 q 247 1035 246 1025 q 279 1063 251 1063 l 551 1063 q 576 1058 567 1063 q 597 1036 586 1054 l 700 867 q 703 849 706 860 q 676 826 699 826 l 472 826 z "},"z":{"ha":821,"x_min":-32,"x_max":810,"o":"m 1 0 q -23 11 -14 0 q -29 38 -32 22 l 6 197 q 17 226 8 214 q 38 246 26 238 l 350 483 l 113 483 q 89 494 97 483 q 83 521 81 506 l 118 685 q 135 711 121 700 q 164 722 149 722 l 778 722 q 801 711 793 722 q 807 685 810 700 l 771 510 q 742 469 765 486 l 443 239 l 704 239 q 728 228 719 239 q 733 201 738 217 l 699 38 q 683 11 696 22 q 654 0 669 0 l 1 0 z "},"ź":{"ha":821,"x_min":-32,"x_max":906,"o":"m 1 0 q -23 11 -14 0 q -29 38 -32 22 l 6 197 q 17 226 8 214 q 38 246 26 238 l 350 483 l 113 483 q 89 494 97 483 q 83 521 81 506 l 118 685 q 135 711 121 700 q 164 722 149 722 l 778 722 q 801 711 793 722 q 807 685 810 700 l 771 510 q 742 469 765 486 l 443 239 l 704 239 q 728 228 719 239 q 733 201 738 217 l 699 38 q 683 11 696 22 q 654 0 669 0 l 1 0 m 397 826 q 379 849 375 826 q 390 867 382 860 l 565 1036 q 596 1058 585 1054 q 622 1063 607 1063 l 881 1063 q 901 1035 906 1063 q 890 1018 900 1025 l 651 850 q 624 833 638 840 q 588 826 610 826 l 397 826 z "},"ž":{"ha":821,"x_min":-32,"x_max":857,"o":"m 1 0 q -23 11 -14 0 q -29 38 -32 22 l 6 197 q 17 226 8 214 q 38 246 26 238 l 350 483 l 113 483 q 89 494 97 483 q 83 521 81 506 l 118 685 q 135 711 121 700 q 164 722 149 722 l 778 722 q 801 711 793 722 q 807 685 810 700 l 771 510 q 742 469 765 486 l 443 239 l 704 239 q 728 228 719 239 q 733 201 738 217 l 699 38 q 683 11 696 22 q 654 0 669 0 l 1 0 m 426 826 q 401 833 411 826 q 381 853 392 839 l 261 1022 q 258 1040 256 1029 q 268 1057 261 1051 q 285 1063 275 1063 l 365 1063 q 392 1061 379 1063 q 419 1053 406 1060 l 535 994 l 675 1053 q 704 1061 690 1060 q 732 1063 718 1063 l 835 1063 q 853 1040 857 1063 q 842 1022 850 1029 l 650 853 q 621 833 633 839 q 593 826 608 826 l 426 826 z "},"ż":{"ha":821,"x_min":-32,"x_max":810,"o":"m 1 0 q -23 11 -14 0 q -29 38 -32 22 l 6 197 q 17 226 8 214 q 38 246 26 238 l 350 483 l 113 483 q 89 494 97 483 q 83 521 81 506 l 118 685 q 135 711 121 700 q 164 722 149 722 l 778 722 q 801 711 793 722 q 807 685 810 700 l 771 510 q 742 469 765 486 l 443 239 l 704 239 q 728 228 719 239 q 733 201 738 217 l 699 38 q 683 11 696 22 q 654 0 669 0 l 1 0 m 418 826 q 397 835 404 826 q 393 858 390 844 l 432 1040 q 446 1063 435 1054 q 471 1072 457 1072 l 653 1072 q 674 1063 667 1072 q 678 1040 681 1054 l 639 858 q 625 835 636 844 q 600 826 614 826 l 418 826 z "},"ﬁ":{"ha":1090,"x_min":40,"x_max":1154,"o":"m 106 0 q 81 11 90 0 q 75 38 72 22 l 169 479 l 74 479 q 49 490 58 479 q 44 517 40 501 l 79 685 q 96 711 82 700 q 125 722 110 722 l 221 722 l 226 746 q 306 921 251 860 q 440 1005 360 982 q 619 1028 519 1028 l 1122 1028 q 1146 1017 1138 1028 q 1151 990 1154 1006 l 1115 822 q 1099 796 1113 807 q 1071 785 1086 785 l 613 785 q 565 773 582 785 q 543 739 547 761 l 539 722 l 1057 722 q 1081 711 1072 722 q 1086 685 1089 700 l 949 38 q 933 11 946 22 q 904 0 919 0 l 661 0 q 637 11 646 0 q 631 38 628 22 l 724 479 l 488 479 l 393 38 q 377 11 390 22 q 349 0 364 0 l 106 0 z "}}}
